<?xml version="1.0" encoding="UTF-8"?>
<svg width="877px" height="469px" viewBox="0 0 877 469" version="1.1" xmlns="http://www.w3.org/2000/svg" xmlns:xlink="http://www.w3.org/1999/xlink">
    <!-- Generator: Sketch 55.2 (78181) - https://sketchapp.com -->
    <title>Logo</title>
    <desc>Created with Sketch.</desc>
    <defs>
        <rect id="path-1" x="0" y="0" width="143" height="344"></rect>
    </defs>
    <g id="Page-1" stroke="none" stroke-width="1" fill="none" fill-rule="evenodd">
        <g id="Logo">
            <rect id="background" fill="#0B4F6C" x="0" y="0" width="877" height="469"></rect>
            <g id="jar" transform="translate(57.000000, 62.000000)">
                <path d="M281.7,134.923077 C278.242105,121.076923 272.478947,109.538462 263.257895,98.7692308 C254.421053,88 241.357895,77.6153846 239.821053,63 C242.510526,62.2307692 245.2,61.0769231 247.889474,59.9230769 C250.963158,58.7692308 253.268421,56.4615385 253.268421,52.6153846 C253.268421,41.8461538 253.268421,31.4615385 253.268421,20.6923077 C253.268421,17.2307692 250.963158,14.5384615 247.889474,13.3846154 C228.678947,6.84615385 207.931579,4.15384615 187.952632,2.23076923 C137.621053,-2.76923077 86.9052632,2.23076923 38.1105263,14.5384615 C32.3473684,16.0769231 31.9631579,22.6153846 35.0368421,26.0769231 C34.2684211,34.9230769 33.8842105,43.7692308 33.5,52.6153846 C33.5,55.3076923 35.4210526,57.6153846 38.1105263,58.3846154 C42.3368421,59.9230769 46.9473684,61.0769231 51.5578947,62.2307692 C48.4842105,78.3846154 34.6526316,90.3076923 24.6631579,102.615385 C15.4421053,113.769231 7.75789474,125.692308 4.3,139.923077 C-1.07894737,161.846154 -0.694736842,183.384615 4.68421053,204.153846 C14.6736842,242.230769 28.5052632,284.538462 51.9421053,316.846154 C60.0105263,328 69.6157895,337.230769 83.0631579,341.076923 C98.8157895,345.692308 116.873684,343.769231 133.010526,343.769231 C150.684211,343.384615 168.742105,343.384615 186.415789,343 C199.478947,342.615385 213.310526,342.230769 223.684211,333.384615 C237.9,321.846154 244.815789,301.076923 252.5,284.923077 C262.105263,264.923077 271.710526,244.153846 277.857895,222.615385 C285.926316,194.923077 288.231579,163 281.7,134.923077 Z M187.568421,17.2307692 C201.784211,18.7692308 216.768421,20.6923077 230.984211,24.5384615 C200.631579,33.3846154 167.205263,34.5384615 135.7,34.1538462 C118.410526,33.7692308 100.736842,32.6153846 83.4473684,30.6923077 C73.0736842,29.5384615 62.7,27.2307692 52.3263158,25.6923077 C96.8947368,16.0769231 142.231579,12.6153846 187.568421,17.2307692 Z M45.7947368,48.3846154 C45.7947368,44.9230769 45.7947368,41.4615385 45.4105263,38 C56.1684211,41.8461538 68.0789474,43 78.8368421,44.5384615 C97.6631579,46.8461538 116.873684,48 135.7,48.3846154 C169.510526,48.7692308 205.626316,47.6153846 238.284211,36.8461538 C238.284211,40.6923077 238.284211,44.1538462 238.284211,48 C208.7,58.7692308 175.273684,60.3076923 144.152632,59.9230769 C111.110526,59.5384615 77.6842105,56.0769231 45.7947368,48.3846154 Z M128.784211,86.0769231 C108.421053,86.4615385 88.0578947,87.6153846 68.0789474,90.6923077 C64.2368421,91.0769231 58.4736842,91.8461538 52.7105263,93 C58.4736842,84.9230769 62.3157895,76.0769231 62.3157895,65.6923077 C89.2105263,71.8461538 116.873684,74.1538462 144.152632,74.5384615 C169.510526,74.9230769 196.405263,74.1538462 221.763158,68.3846154 C224.068421,78.7692308 229.447368,86.4615385 235.978947,93.7692308 C200.631579,87.6153846 164.131579,85.6923077 128.784211,86.0769231 Z M222.915789,108 C188.721053,115.692308 152.605263,116.461538 118.026316,114.538462 C99.5842105,113.384615 80.7578947,111.076923 62.7,106.846154 C66.1578947,106.076923 70,105.692308 73.4578947,105.307692 C92.6684211,103 112.263158,102.230769 131.473684,102.230769 C161.057895,102.230769 193.331579,102.230769 222.915789,108 Z M269.021053,191.461538 C264.794737,229.923077 245.2,265.307692 227.142105,298.769231 C221.378947,309.538462 215.231579,320.307692 202.168421,322.230769 C187.184211,324.538462 171.047368,322.615385 156.063158,322.615385 C140.694737,322.615385 124.942105,322.230769 109.573684,322.230769 C93.0526316,322.230769 80.3736842,321.461538 68.8473684,308 C56.9368421,294.153846 49.6368421,276.846154 43.1052632,259.923077 C35.4210526,241.461538 28.5052632,223 22.7421053,203.769231 C16.2105263,181.846154 14.2894737,159.538462 21.5894737,137.230769 C25.0473684,127.230769 31.1947368,118.769231 38.1105263,110.692308 C42.3368421,113 46.5631579,114.538462 51.1736842,116.076923 C71.5368421,123 93.4368421,125.692308 114.568421,127.615385 C160.289474,131.846154 210.236842,129.923077 254.036842,114.923077 C254.421053,114.923077 254.805263,114.538462 255.189474,114.538462 C255.573684,114.923077 255.573684,114.923077 255.957895,115.307692 C272.478947,136.461538 271.710526,166.076923 269.021053,191.461538 Z" id="Shape" fill="#C3002F" fill-rule="nonzero"></path>
                <g id="jar-left">
                    <mask id="mask-2" fill="white">
                        <use xlink:href="#path-1"></use>
                    </mask>
                    <g id="Mask"></g>
                    <path d="M281.7,134.923077 C278.242105,121.076923 272.478947,109.538462 263.257895,98.7692308 C254.421053,88 241.357895,77.6153846 239.821053,63 C242.510526,62.2307692 245.2,61.0769231 247.889474,59.9230769 C250.963158,58.7692308 253.268421,56.4615385 253.268421,52.6153846 C253.268421,41.8461538 253.268421,31.4615385 253.268421,20.6923077 C253.268421,17.2307692 250.963158,14.5384615 247.889474,13.3846154 C228.678947,6.84615385 207.931579,4.15384615 187.952632,2.23076923 C137.621053,-2.76923077 86.9052632,2.23076923 38.1105263,14.5384615 C32.3473684,16.0769231 31.9631579,22.6153846 35.0368421,26.0769231 C34.2684211,34.9230769 33.8842105,43.7692308 33.5,52.6153846 C33.5,55.3076923 35.4210526,57.6153846 38.1105263,58.3846154 C42.3368421,59.9230769 46.9473684,61.0769231 51.5578947,62.2307692 C48.4842105,78.3846154 34.6526316,90.3076923 24.6631579,102.615385 C15.4421053,113.769231 7.75789474,125.692308 4.3,139.923077 C-1.07894737,161.846154 -0.694736842,183.384615 4.68421053,204.153846 C14.6736842,242.230769 28.5052632,284.538462 51.9421053,316.846154 C60.0105263,328 69.6157895,337.230769 83.0631579,341.076923 C98.8157895,345.692308 116.873684,343.769231 133.010526,343.769231 C150.684211,343.384615 168.742105,343.384615 186.415789,343 C199.478947,342.615385 213.310526,342.230769 223.684211,333.384615 C237.9,321.846154 244.815789,301.076923 252.5,284.923077 C262.105263,264.923077 271.710526,244.153846 277.857895,222.615385 C285.926316,194.923077 288.231579,163 281.7,134.923077 Z M187.568421,17.2307692 C201.784211,18.7692308 216.768421,20.6923077 230.984211,24.5384615 C200.631579,33.3846154 167.205263,34.5384615 135.7,34.1538462 C118.410526,33.7692308 100.736842,32.6153846 83.4473684,30.6923077 C73.0736842,29.5384615 62.7,27.2307692 52.3263158,25.6923077 C96.8947368,16.0769231 142.231579,12.6153846 187.568421,17.2307692 Z M45.7947368,48.3846154 C45.7947368,44.9230769 45.7947368,41.4615385 45.4105263,38 C56.1684211,41.8461538 68.0789474,43 78.8368421,44.5384615 C97.6631579,46.8461538 116.873684,48 135.7,48.3846154 C169.510526,48.7692308 205.626316,47.6153846 238.284211,36.8461538 C238.284211,40.6923077 238.284211,44.1538462 238.284211,48 C208.7,58.7692308 175.273684,60.3076923 144.152632,59.9230769 C111.110526,59.5384615 77.6842105,56.0769231 45.7947368,48.3846154 Z M128.784211,86.0769231 C108.421053,86.4615385 88.0578947,87.6153846 68.0789474,90.6923077 C64.2368421,91.0769231 58.4736842,91.8461538 52.7105263,93 C58.4736842,84.9230769 62.3157895,76.0769231 62.3157895,65.6923077 C89.2105263,71.8461538 116.873684,74.1538462 144.152632,74.5384615 C169.510526,74.9230769 196.405263,74.1538462 221.763158,68.3846154 C224.068421,78.7692308 229.447368,86.4615385 235.978947,93.7692308 C200.631579,87.6153846 164.131579,85.6923077 128.784211,86.0769231 Z M222.915789,108 C188.721053,115.692308 152.605263,116.461538 118.026316,114.538462 C99.5842105,113.384615 80.7578947,111.076923 62.7,106.846154 C66.1578947,106.076923 70,105.692308 73.4578947,105.307692 C92.6684211,103 112.263158,102.230769 131.473684,102.230769 C161.057895,102.230769 193.331579,102.230769 222.915789,108 Z M269.021053,191.461538 C264.794737,229.923077 245.2,265.307692 227.142105,298.769231 C221.378947,309.538462 215.231579,320.307692 202.168421,322.230769 C187.184211,324.538462 171.047368,322.615385 156.063158,322.615385 C140.694737,322.615385 124.942105,322.230769 109.573684,322.230769 C93.0526316,322.230769 80.3736842,321.461538 68.8473684,308 C56.9368421,294.153846 49.6368421,276.846154 43.1052632,259.923077 C35.4210526,241.461538 28.5052632,223 22.7421053,203.769231 C16.2105263,181.846154 14.2894737,159.538462 21.5894737,137.230769 C25.0473684,127.230769 31.1947368,118.769231 38.1105263,110.692308 C42.3368421,113 46.5631579,114.538462 51.1736842,116.076923 C71.5368421,123 93.4368421,125.692308 114.568421,127.615385 C160.289474,131.846154 210.236842,129.923077 254.036842,114.923077 C254.421053,114.923077 254.805263,114.538462 255.189474,114.538462 C255.573684,114.923077 255.573684,114.923077 255.957895,115.307692 C272.478947,136.461538 271.710526,166.076923 269.021053,191.461538 Z" id="Shape" fill="#DD0031" fill-rule="nonzero" mask="url(#mask-2)"></path>
                </g>
            </g>
            <g id="pickles" transform="translate(107.000000, 200.000000)" fill="#29BF12" fill-rule="nonzero">
                <path d="M71.4052632,94.3846154 C72.9421053,92.8461538 74.0947368,90.9230769 74.0947368,88.6153846 C74.0947368,87.0769231 74.0947368,85.5384615 73.7105263,84 C73.7105263,80.9230769 73.7105263,77.4615385 72.1736842,74.7692308 C70.6368421,72.0769231 66.0263158,70.9230769 63.7210526,73.6153846 C61.4157895,76.3076923 61.0315789,79 60.2631579,82.0769231 C59.4947368,85.9230769 58.3421053,89.3846154 60.2631579,92.8461538 C62.5684211,96.3076923 68.3315789,97.4615385 71.4052632,94.3846154 Z" id="Path"></path>
                <path d="M103.294737,102.461538 C96.7631579,99 89.0789474,96.6923077 81.7789474,98.2307692 C74.0947368,100.153846 75.6315789,112.846154 83.7,112.076923 C90.2315789,111.692308 96.3789474,109 102.910526,107.076923 C104.831579,106.307692 105.6,103.230769 103.294737,102.461538 Z" id="Path"></path>
                <path d="M61.8,118.615385 C61.4157895,125.153846 60.6473684,132.846154 65.2578947,138.230769 C66.7947368,139.769231 69.4842105,139 70.2526316,137.461538 C73.3263158,132.461538 74.0947368,126.307692 74.8631579,120.538462 C76.7842105,110.923077 62.5684211,109 61.8,118.615385 Z" id="Path"></path>
                <path d="M54.1157895,99.3846154 C47.9684211,98.2307692 41.4368421,100.538462 35.6736842,102.461538 C32.6,103.615385 32.6,107.846154 35.6736842,108.615385 C41.4368421,110.538462 47.9684211,112.846154 54.1157895,111.692308 C59.8789474,110.538462 59.8789474,100.538462 54.1157895,99.3846154 Z" id="Path"></path>
                <path d="M145.942105,45.5384615 C147.478947,44 148.631579,42.0769231 148.631579,39.7692308 C148.631579,38.2307692 148.631579,36.6923077 148.247368,35.1538462 C148.247368,32.0769231 148.247368,28.6153846 146.710526,25.9230769 C145.173684,23.2307692 140.563158,22.0769231 138.257895,24.7692308 C135.952632,27.4615385 135.568421,30.1538462 134.8,33.2307692 C134.031579,37.0769231 132.878947,40.5384615 134.8,44 C137.105263,47.8461538 142.484211,49 145.942105,45.5384615 Z" id="Path"></path>
                <path d="M156.315789,49.3846154 C148.631579,51.3076923 150.168421,64 158.236842,63.2307692 C164.768421,62.8461538 170.915789,60.1538462 177.447368,58.2307692 C179.368421,57.4615385 180.136842,54.3846154 178.215789,53.2307692 C171.3,50.1538462 163.615789,47.4615385 156.315789,49.3846154 Z" id="Path"></path>
                <path d="M136.336842,69.7692308 C135.952632,76.3076923 135.184211,84 139.794737,89.3846154 C141.331579,90.9230769 144.021053,90.1538462 144.789474,88.6153846 C147.863158,83.6153846 148.631579,77.4615385 149.4,71.6923077 C151.321053,62.0769231 137.105263,60.1538462 136.336842,69.7692308 Z" id="Path"></path>
                <path d="M179.368421,13.6153846 C157.084211,-2.92307692 129.036842,-4.07692308 107.136842,14 C104.447368,16.3076923 101.373684,19.3846154 98.3,23.2307692 C84.8526316,0.153846154 49.8894737,-2.92307692 27.2210526,9.38461538 C1.47894737,23.2307692 -8.51052632,60.5384615 8.39473684,84.3846154 C3.4,99 3.78421053,115.923077 10.3157895,130.538462 C21.4578947,155.923077 48.7368421,172.076923 76.4,169 C101.757895,166.307692 124.810526,147.076923 132.110526,122.461538 C132.878947,120.153846 133.263158,117.846154 133.647368,115.538462 C146.326316,115.153846 157.468421,114.384615 168.994737,108.230769 C180.136842,102.461538 190.126316,92.4615385 195.889474,81.3076923 C207.8,57.4615385 200.5,29 179.368421,13.6153846 Z M30.6789474,22.0769231 C49.1210526,10.1538462 82.9315789,12.0769231 89.0789474,36.6923077 C87.9263158,39.3846154 87.1578947,42.0769231 86.7736842,44.3846154 C79.0894737,40.9230769 68.7157895,40.5384615 61.4157895,41.3076923 C48.3526316,42.8461538 36.0578947,47.8461538 26.0684211,56.3076923 C21.4578947,60.1538462 17.6157895,64.7692308 14.1578947,69.7692308 C11.8526316,52.0769231 13.0052632,33.6153846 30.6789474,22.0769231 Z M113.284211,125.153846 C100.989474,148.615385 71.0210526,159 47.2,146.692308 C22.6105263,134 13.0052632,100.538462 29.9105263,77.4615385 C36.8263158,68.2307692 47.5842105,61.3076923 58.7263158,59 C67.1789474,57.0769231 77.1684211,59.3846154 86.0052632,59 C86.7736842,60.1538462 87.9263158,61.3076923 89.4631579,61.6923077 C113.668421,72.0769231 126.347368,100.923077 113.284211,125.153846 Z M183.594737,70.9230769 C177.063158,85.5384615 151.705263,107.461538 134.415789,96.3076923 C134.031579,95.9230769 133.647368,95.9230769 133.263158,95.5384615 C131.342105,82.8461538 125.194737,70.5384615 116.357895,61.3076923 C120.968421,62.8461538 125.578947,63.6153846 130.573684,62.8461538 C136.721053,61.6923077 136.721053,51.6923077 130.573684,50.5384615 C124.426316,49.3846154 117.894737,51.6923077 112.131579,53.6153846 C111.363158,54 110.594737,54.3846154 110.210526,55.1538462 C107.136842,52.4615385 103.678947,50.1538462 99.8368421,48.2307692 C102.526316,41.3076923 105.6,34.3846154 110.594737,28.6153846 C125.194737,12.4615385 147.094737,10.1538462 165.536842,21.3076923 C182.826316,31.6923077 192.431579,51.6923077 183.594737,70.9230769 Z" id="Shape"></path>
            </g>
            <text id="slices" font-family="PTSans-Bold, PT Sans" font-size="197" font-weight="bold" line-spacing="157" fill="#FFFFFF">
                <tspan x="360" y="389">slices</tspan>
            </text>
            <text id="cucumber" font-family="PTSans-Bold, PT Sans" font-size="109" font-weight="bold" line-spacing="80" fill="#29BF12">
                <tspan x="362" y="226">cucumber</tspan>
            </text>
            <text id="protractor" font-family="PTSans-Bold, PT Sans" font-size="105" font-weight="bold" line-spacing="80" fill="#DD0031">
                <tspan x="362" y="132">protractor</tspan>
            </text>
        </g>
    </g>
</svg>