<?xml version="1.0" encoding="UTF-8"?>
<svg width="14284px" height="3397px" viewBox="0 0 14284 3397" version="1.1" xmlns="http://www.w3.org/2000/svg" xmlns:xlink="http://www.w3.org/1999/xlink">
    <!-- Generator: Sketch 55.2 (78181) - https://sketchapp.com -->
    <title>angular-and-cucumber</title>
    <desc>Created with Sketch.</desc>
    <defs>
        <rect id="path-1" x="0" y="0" width="1051.26758" height="2529.94996"></rect>
    </defs>
    <g id="Page-1" stroke="none" stroke-width="1" fill="none" fill-rule="evenodd">
        <g id="angular-and-cucumber">
            <rect id="background" fill="#0B4F6C" x="0" y="0" width="14284" height="3397"></rect>
            <g id="icon" transform="translate(10947.000000, 455.000000)">
                <g id="jar">
                    <path d="M2070.92362,992.292539 C2045.50283,890.460922 2003.13485,805.601241 1935.34608,726.398871 C1870.38185,647.196502 1774.34776,570.822789 1763.04963,463.33386 C1782.82136,457.676548 1802.59308,449.190579 1822.3648,440.704611 C1844.96106,432.218643 1861.90825,415.246707 1861.90825,386.960146 C1861.90825,307.757777 1861.90825,231.384064 1861.90825,152.181695 C1861.90825,126.723791 1844.96106,106.923198 1822.3648,98.4372302 C1681.13821,50.3500775 1528.61348,30.5494852 1381.73782,16.406205 C1011.72413,-20.3663235 638.885913,16.406205 280.170355,106.923198 C237.802375,118.237823 234.977843,166.324975 257.574099,191.78288 C251.925035,256.841969 249.100503,321.901058 246.275971,386.960146 C246.275971,406.760739 260.398631,423.732675 280.170355,429.389987 C311.240206,440.704611 345.13459,449.190579 379.028973,457.676548 C356.432718,576.480101 254.749567,664.168439 181.311736,754.685432 C113.522969,836.716457 57.0323302,924.404794 31.6115426,1029.06507 C-7.93190481,1190.29846 -5.10737285,1348.7032 34.4360745,1501.45063 C107.873905,1781.48757 209.557056,2092.63974 381.853505,2330.24685 C441.168676,2412.27787 511.781975,2480.16562 610.640594,2508.45218 C726.446404,2542.39605 859.199406,2528.25277 977.829748,2528.25277 C1107.75822,2525.42411 1240.51122,2525.42411 1370.43969,2522.59546 C1466.47378,2519.7668 1568.15693,2516.93815 1644.41929,2451.87906 C1748.92697,2367.01938 1799.76855,2214.27195 1856.25919,2095.4684 C1926.87249,1948.37828 1997.48578,1795.63086 2042.6783,1637.22612 C2101.99347,1433.56288 2118.94066,1198.78443 2070.92362,992.292539 Z M1378.91329,126.723791 C1483.42097,138.038415 1593.57771,152.181695 1698.0854,180.468255 C1474.94737,245.527344 1229.21309,254.013313 997.601472,251.184656 C870.497534,248.356 740.569064,239.870032 613.465126,225.726752 C537.202763,217.240784 460.9404,200.268848 384.678037,188.954224 C712.323744,118.237823 1045.61852,92.7799182 1378.91329,126.723791 Z M336.660994,355.84493 C336.660994,330.387026 336.660994,304.929121 333.836462,279.471217 C412.923357,307.757777 500.483847,316.243745 579.570742,327.55837 C717.972808,344.530306 859.199406,353.016274 997.601472,355.84493 C1246.16028,358.673586 1511.66629,350.187618 1751.7515,270.985249 C1751.7515,299.271809 1751.7515,324.729714 1751.7515,353.016274 C1534.26254,432.218643 1288.52826,443.533267 1059.74117,440.704611 C816.831427,437.875955 571.097146,412.418051 336.660994,355.84493 Z M946.759897,633.053222 C797.059703,635.881878 647.359509,644.367846 500.483847,666.997095 C472.238528,669.825751 429.870548,675.483063 387.502569,683.969031 C429.870548,624.567254 458.115868,559.508165 458.115868,483.134452 C655.833105,528.392949 859.199406,545.364885 1059.74117,548.193541 C1246.16028,551.022197 1443.87752,545.364885 1630.29663,502.935044 C1647.24382,579.308757 1686.78727,635.881878 1734.80431,689.626343 C1474.94737,644.367846 1206.61684,630.224566 946.759897,633.053222 Z M1638.77023,794.286616 C1387.38688,850.859737 1121.88088,856.517049 867.673002,842.373769 C732.095468,833.887801 593.693402,816.915865 460.9404,785.800648 C486.361188,780.143336 514.606507,777.31468 540.027295,774.486024 C681.253893,757.514088 825.305022,751.856776 966.53162,751.856776 C1184.02058,751.856776 1421.28127,751.856776 1638.77023,794.286616 Z M1977.71406,1408.10498 C1946.64421,1690.97058 1802.59308,1951.20694 1669.84008,2197.30001 C1627.4721,2276.50238 1582.27959,2355.70475 1486.2455,2369.84803 C1376.08875,2386.81997 1257.45841,2372.67669 1147.30167,2372.67669 C1034.32039,2372.67669 918.514577,2369.84803 805.533299,2369.84803 C684.078425,2369.84803 590.86887,2364.19072 506.132911,2265.18776 C418.572421,2163.35614 364.906313,2036.06662 316.88927,1911.60575 C260.398631,1775.83026 209.557056,1640.05477 167.189077,1498.62197 C119.172033,1337.38858 105.049373,1173.32653 158.715481,1009.26448 C184.136268,935.719419 229.32878,873.488986 280.170355,814.087209 C311.240206,831.059145 342.310058,842.373769 376.204441,853.688393 C525.904635,904.604202 686.902957,924.404794 842.252214,938.548075 C1178.37152,969.663291 1545.56067,955.520011 1867.55731,845.202425 C1870.38185,845.202425 1873.20638,842.373769 1876.03091,842.373769 C1878.85544,845.202425 1878.85544,845.202425 1881.67997,848.031081 C2003.13485,1003.60716 1997.48578,1221.41368 1977.71406,1408.10498 Z" id="Shape" fill="#C3002F" fill-rule="nonzero"></path>
                    <g id="jar-left">
                        <mask id="mask-2" fill="white">
                            <use xlink:href="#path-1"></use>
                        </mask>
                        <g id="Mask"></g>
                        <path d="M2070.92362,992.292539 C2045.50283,890.460922 2003.13485,805.601241 1935.34608,726.398871 C1870.38185,647.196502 1774.34776,570.822789 1763.04963,463.33386 C1782.82136,457.676548 1802.59308,449.190579 1822.3648,440.704611 C1844.96106,432.218643 1861.90825,415.246707 1861.90825,386.960146 C1861.90825,307.757777 1861.90825,231.384064 1861.90825,152.181695 C1861.90825,126.723791 1844.96106,106.923198 1822.3648,98.4372302 C1681.13821,50.3500775 1528.61348,30.5494852 1381.73782,16.406205 C1011.72413,-20.3663235 638.885913,16.406205 280.170355,106.923198 C237.802375,118.237823 234.977843,166.324975 257.574099,191.78288 C251.925035,256.841969 249.100503,321.901058 246.275971,386.960146 C246.275971,406.760739 260.398631,423.732675 280.170355,429.389987 C311.240206,440.704611 345.13459,449.190579 379.028973,457.676548 C356.432718,576.480101 254.749567,664.168439 181.311736,754.685432 C113.522969,836.716457 57.0323302,924.404794 31.6115426,1029.06507 C-7.93190481,1190.29846 -5.10737285,1348.7032 34.4360745,1501.45063 C107.873905,1781.48757 209.557056,2092.63974 381.853505,2330.24685 C441.168676,2412.27787 511.781975,2480.16562 610.640594,2508.45218 C726.446404,2542.39605 859.199406,2528.25277 977.829748,2528.25277 C1107.75822,2525.42411 1240.51122,2525.42411 1370.43969,2522.59546 C1466.47378,2519.7668 1568.15693,2516.93815 1644.41929,2451.87906 C1748.92697,2367.01938 1799.76855,2214.27195 1856.25919,2095.4684 C1926.87249,1948.37828 1997.48578,1795.63086 2042.6783,1637.22612 C2101.99347,1433.56288 2118.94066,1198.78443 2070.92362,992.292539 Z M1378.91329,126.723791 C1483.42097,138.038415 1593.57771,152.181695 1698.0854,180.468255 C1474.94737,245.527344 1229.21309,254.013313 997.601472,251.184656 C870.497534,248.356 740.569064,239.870032 613.465126,225.726752 C537.202763,217.240784 460.9404,200.268848 384.678037,188.954224 C712.323744,118.237823 1045.61852,92.7799182 1378.91329,126.723791 Z M336.660994,355.84493 C336.660994,330.387026 336.660994,304.929121 333.836462,279.471217 C412.923357,307.757777 500.483847,316.243745 579.570742,327.55837 C717.972808,344.530306 859.199406,353.016274 997.601472,355.84493 C1246.16028,358.673586 1511.66629,350.187618 1751.7515,270.985249 C1751.7515,299.271809 1751.7515,324.729714 1751.7515,353.016274 C1534.26254,432.218643 1288.52826,443.533267 1059.74117,440.704611 C816.831427,437.875955 571.097146,412.418051 336.660994,355.84493 Z M946.759897,633.053222 C797.059703,635.881878 647.359509,644.367846 500.483847,666.997095 C472.238528,669.825751 429.870548,675.483063 387.502569,683.969031 C429.870548,624.567254 458.115868,559.508165 458.115868,483.134452 C655.833105,528.392949 859.199406,545.364885 1059.74117,548.193541 C1246.16028,551.022197 1443.87752,545.364885 1630.29663,502.935044 C1647.24382,579.308757 1686.78727,635.881878 1734.80431,689.626343 C1474.94737,644.367846 1206.61684,630.224566 946.759897,633.053222 Z M1638.77023,794.286616 C1387.38688,850.859737 1121.88088,856.517049 867.673002,842.373769 C732.095468,833.887801 593.693402,816.915865 460.9404,785.800648 C486.361188,780.143336 514.606507,777.31468 540.027295,774.486024 C681.253893,757.514088 825.305022,751.856776 966.53162,751.856776 C1184.02058,751.856776 1421.28127,751.856776 1638.77023,794.286616 Z M1977.71406,1408.10498 C1946.64421,1690.97058 1802.59308,1951.20694 1669.84008,2197.30001 C1627.4721,2276.50238 1582.27959,2355.70475 1486.2455,2369.84803 C1376.08875,2386.81997 1257.45841,2372.67669 1147.30167,2372.67669 C1034.32039,2372.67669 918.514577,2369.84803 805.533299,2369.84803 C684.078425,2369.84803 590.86887,2364.19072 506.132911,2265.18776 C418.572421,2163.35614 364.906313,2036.06662 316.88927,1911.60575 C260.398631,1775.83026 209.557056,1640.05477 167.189077,1498.62197 C119.172033,1337.38858 105.049373,1173.32653 158.715481,1009.26448 C184.136268,935.719419 229.32878,873.488986 280.170355,814.087209 C311.240206,831.059145 342.310058,842.373769 376.204441,853.688393 C525.904635,904.604202 686.902957,924.404794 842.252214,938.548075 C1178.37152,969.663291 1545.56067,955.520011 1867.55731,845.202425 C1870.38185,845.202425 1873.20638,842.373769 1876.03091,842.373769 C1878.85544,845.202425 1878.85544,845.202425 1881.67997,848.031081 C2003.13485,1003.60716 1997.48578,1221.41368 1977.71406,1408.10498 Z" id="Shape" fill="#DD0031" fill-rule="nonzero" mask="url(#mask-2)"></path>
                    </g>
                </g>
                <g id="slices" transform="translate(412.000000, 1006.000000)" fill-rule="nonzero">
                    <g id="cucumber">
                        <path d="M408.468892,817.820179 C633.683944,817.820179 816.256817,634.894046 816.256817,409.243225 C816.256817,183.592404 633.683944,0.666270864 408.468892,0.666270864 C183.253839,0.666270864 0.680966531,183.592404 0.680966531,409.243225 C0.680966531,634.894046 183.253839,817.820179 408.468892,817.820179 Z M408.468892,714.755722 C240.064844,714.755722 103.546389,577.973118 103.546389,409.243225 C103.546389,240.513332 240.064844,103.730728 408.468892,103.730728 C576.87294,103.730728 713.391394,240.513332 713.391394,409.243225 C713.391394,577.973118 576.87294,714.755722 408.468892,714.755722 Z" id="Oval" fill="#29BF12"></path>
                        <path d="M488.66829,199.64226 C476.678797,198.411909 464.051017,202.58593 455.220497,213.02503 C448.797071,221.594319 444.783444,229.891097 440.502061,238.457688 C427.655209,268.439408 431.939296,300.563451 451.20687,324.123601 C481.176547,317.696634 506.597087,298.556036 519.443939,268.574315 C523.725321,260.007724 526.132415,249.031695 526.132415,240.465103 C527.471193,217.711697 508.655287,201.692846 488.66829,199.64226 Z M332.794053,201.649676 C313.247906,203.511392 294.661892,219.052672 294.661892,240.465103 C294.661892,249.031695 297.068986,260.007724 301.353073,268.574315 C314.197221,298.556036 341.624574,317.696634 371.596956,324.120903 C388.722486,300.566149 393.136394,268.439408 380.292246,238.457688 C376.010864,229.891097 371.997237,221.459412 365.573811,215.035143 C356.74329,204.593345 344.523906,200.532646 332.794053,201.652374 L332.794053,201.649676 Z M227.766305,304.715887 C194.007482,306.448092 178.929335,348.884423 207.027429,370.971388 C215.590194,377.392959 223.885203,382.079627 232.450673,386.364271 C262.417646,399.212809 297.071691,394.795956 322.76269,377.662773 C316.339264,349.823375 294.532071,324.258508 264.559689,311.407272 C253.854881,307.125325 245.15959,304.715887 234.457486,304.715887 C232.047687,304.446073 230.016532,304.599867 227.766305,304.715887 Z M557.578805,434.550336 C537.970452,434.172596 518.107866,439.903443 502.053358,450.609659 C508.474079,478.451755 530.283977,504.016622 560.256359,516.86516 C570.958463,521.147107 579.653753,523.556545 590.358562,523.556545 C628.893709,525.698867 647.758297,478.049733 617.78862,456.634603 C609.22315,450.207636 600.92814,446.192805 592.365376,441.910859 C581.127761,437.091983 569.343817,434.774281 557.578805,434.547638 L557.578805,434.550336 Z M373.606474,502.141416 C343.634092,508.565685 318.213552,527.706283 305.369405,557.688003 C301.088023,566.254595 298.678224,576.561485 298.678224,585.128077 C296.538885,621.534066 346.176416,641.076687 367.586033,613.234591 C374.006755,604.667999 378.020382,596.371222 382.301764,587.804631 C395.148616,559.965233 390.732004,527.84119 373.606474,502.141416 L373.606474,502.141416 Z M453.216388,504.148831 C436.088153,527.706283 431.674245,559.830326 444.518393,589.814744 C448.799775,598.378637 452.813402,606.81302 459.236828,613.234591 C482.785784,638.934365 532.288086,619.925975 530.151452,587.804631 C530.151452,579.238039 527.741653,568.26201 523.46027,559.695419 C510.613418,529.713698 483.18877,510.5731 453.216388,504.148831 Z" id="Shape" fill="#FFFFFF"></path>
                    </g>
                    <g id="cucumber" transform="translate(602.497475, 184.043673)">
                        <path d="M470.922898,762.607077 C679.906235,762.607077 849.320703,592.864809 849.320703,383.477111 C849.320703,174.089412 679.906235,4.34714432 470.922898,4.34714432 C261.939561,4.34714432 92.5250938,174.089412 92.5250938,383.477111 C92.5250938,592.864809 261.939561,762.607077 470.922898,762.607077 Z M470.922898,254.64654 C541.936653,254.64654 599.504676,312.325951 599.504676,383.477111 C599.504676,454.628271 541.936653,512.307682 470.922898,512.307682 C399.909143,512.307682 342.34112,454.628271 342.34112,383.477111 C342.34112,312.325951 399.909143,254.64654 470.922898,254.64654 Z" id="Oval" fill="#0B4F6C"></path>
                        <path d="M408.468892,817.820179 C633.683944,817.820179 816.256817,634.894046 816.256817,409.243225 C816.256817,183.592404 633.683944,0.666270864 408.468892,0.666270864 C183.253839,0.666270864 0.680966531,183.592404 0.680966531,409.243225 C0.680966531,634.894046 183.253839,817.820179 408.468892,817.820179 Z M408.468892,714.755722 C240.064844,714.755722 103.546389,577.973118 103.546389,409.243225 C103.546389,240.513332 240.064844,103.730728 408.468892,103.730728 C576.87294,103.730728 713.391394,240.513332 713.391394,409.243225 C713.391394,577.973118 576.87294,714.755722 408.468892,714.755722 Z" id="Oval" fill="#29BF12"></path>
                        <path d="M488.66829,199.64226 C476.678797,198.411909 464.051017,202.58593 455.220497,213.02503 C448.797071,221.594319 444.783444,229.891097 440.502061,238.457688 C427.655209,268.439408 431.939296,300.563451 451.20687,324.123601 C481.176547,317.696634 506.597087,298.556036 519.443939,268.574315 C523.725321,260.007724 526.132415,249.031695 526.132415,240.465103 C527.471193,217.711697 508.655287,201.692846 488.66829,199.64226 Z M332.794053,201.649676 C313.247906,203.511392 294.661892,219.052672 294.661892,240.465103 C294.661892,249.031695 297.068986,260.007724 301.353073,268.574315 C314.197221,298.556036 341.624574,317.696634 371.596956,324.120903 C388.722486,300.566149 393.136394,268.439408 380.292246,238.457688 C376.010864,229.891097 371.997237,221.459412 365.573811,215.035143 C356.74329,204.593345 344.523906,200.532646 332.794053,201.652374 L332.794053,201.649676 Z M557.578805,434.550336 C537.970452,434.172596 518.107866,439.903443 502.053358,450.609659 C508.474079,478.451755 530.283977,504.016622 560.256359,516.86516 C570.958463,521.147107 579.653753,523.556545 590.358562,523.556545 C628.893709,525.698867 647.758297,478.049733 617.78862,456.634603 C609.22315,450.207636 600.92814,446.192805 592.365376,441.910859 C581.127761,437.091983 569.343817,434.774281 557.578805,434.547638 L557.578805,434.550336 Z M265.227725,436.555053 C253.462714,436.781697 241.681474,439.099398 230.441155,443.918274 C219.736346,448.200221 211.441337,452.886888 205.017911,459.311157 C177.187572,482.865911 195.922339,527.708981 234.454782,525.56396 C245.15959,525.56396 255.996924,523.15722 264.559689,518.872576 C294.532071,506.024038 315.803754,480.459171 320.085136,452.617074 C303.869536,441.806522 284.727695,436.201871 265.227725,436.555053 L265.227725,436.555053 Z M373.606474,502.141416 C343.634092,508.565685 318.213552,527.706283 305.369405,557.688003 C301.088023,566.254595 298.678224,576.561485 298.678224,585.128077 C296.538885,621.534066 346.176416,641.076687 367.586033,613.234591 C374.006755,604.667999 378.020382,596.371222 382.301764,587.804631 C395.148616,559.965233 390.732004,527.84119 373.606474,502.141416 L373.606474,502.141416 Z M453.216388,504.148831 C436.088153,527.706283 431.674245,559.830326 444.518393,589.814744 C448.799775,598.378637 452.813402,606.81302 459.236828,613.234591 C482.785784,638.934365 532.288086,619.925975 530.151452,587.804631 C530.151452,579.238039 527.741653,568.26201 523.46027,559.695419 C510.613418,529.713698 483.18877,510.5731 453.216388,504.148831 Z" id="Shape" fill="#FFFFFF"></path>
                    </g>
                    <g id="cucumber" transform="translate(80.822832, 360.725599)">
                        <path d="M470.922898,891.437648 C702.224844,891.437648 889.732119,703.567566 889.732119,471.818074 C889.732119,240.068582 702.224844,52.1984993 470.922898,52.1984993 C239.620953,52.1984993 52.1136778,240.068582 52.1136778,471.818074 C52.1136778,703.567566 239.620953,891.437648 470.922898,891.437648 Z M470.922898,493.903315 C458.749112,493.903315 448.880308,484.015416 448.880308,471.818074 C448.880308,459.620732 458.749112,449.732833 470.922898,449.732833 C483.096685,449.732833 492.965489,459.620732 492.965489,471.818074 C492.965489,484.015416 483.096685,493.903315 470.922898,493.903315 Z" id="Oval" fill="#0B4F6C"></path>
                        <path d="M467.249133,935.60813 C724.927616,935.60813 933.8173,726.314266 933.8173,468.1372 C933.8173,209.960135 724.927616,0.666270864 467.249133,0.666270864 C209.57065,0.666270864 0.680966531,209.960135 0.680966531,468.1372 C0.680966531,726.314266 209.57065,935.60813 467.249133,935.60813 Z M467.249133,832.543673 C266.381654,832.543673 103.546389,669.393338 103.546389,468.1372 C103.546389,266.881063 266.381654,103.730728 467.249133,103.730728 C668.116612,103.730728 830.951877,266.881063 830.951877,468.1372 C830.951877,669.393338 668.116612,832.543673 467.249133,832.543673 Z" id="Oval" fill="#29BF12"></path>
                        <path d="M560.202804,221.763505 C546.215061,220.321024 531.482652,225.214704 521.180378,237.453648 C513.686381,247.500401 509.003816,257.227658 504.00887,267.271248 C489.020876,302.42223 494.018978,340.084901 516.497813,367.707146 C551.462437,360.172081 581.119733,337.73138 596.107727,302.580397 C601.102673,292.536807 603.91095,279.668359 603.91095,269.624769 C605.472857,242.948362 583.520967,224.16764 560.202804,221.763505 Z M378.349528,224.117026 C355.545689,226.299728 333.862006,244.52054 333.862006,269.624769 C333.862006,279.668359 336.670283,292.536807 341.668384,302.580397 C356.653223,337.73138 388.651802,360.172081 423.619581,367.703982 C443.599365,340.088065 448.748925,302.42223 433.764086,267.271248 C428.76914,257.227658 424.086575,247.342235 416.592578,239.810333 C406.290304,227.568225 392.034355,222.807406 378.349528,224.12019 L378.349528,224.117026 Z M255.817154,344.953274 C216.431861,346.984136 198.840689,396.737074 231.621799,422.632138 C241.611691,430.160876 251.289202,435.65559 261.28225,440.678966 C296.243718,455.742769 336.673438,450.564389 366.646271,430.47721 C359.152274,397.837915 333.710548,367.865313 298.742769,352.798346 C286.253826,347.778133 276.109321,344.953274 263.623533,344.953274 C260.8121,344.636941 258.44242,344.817251 255.817154,344.953274 Z M640.598404,497.172973 C617.721992,496.730106 594.548976,503.44903 575.818716,516.001145 C583.309558,548.643603 608.754439,578.616205 643.722218,593.680008 C656.208006,598.700222 666.352511,601.52508 678.841454,601.52508 C723.799126,604.036768 745.807812,548.172266 710.843188,523.064873 C700.85014,515.529808 691.172629,510.822765 681.182737,505.802552 C668.072186,500.152835 654.324251,497.435529 640.598404,497.169809 L640.598404,497.172973 Z M299.522145,499.523331 C285.796298,499.789051 272.051518,502.506356 258.937812,508.156073 C246.448869,513.176286 236.771358,518.671 229.277361,526.202901 C196.808633,553.818819 218.665861,606.393453 263.620377,603.878602 C276.109321,603.878602 288.752877,601.056906 298.742769,596.03353 C333.710548,580.969727 358.527511,550.997124 363.522457,518.354666 C344.604257,505.680226 322.27211,499.109256 299.522145,499.523331 L299.522145,499.523331 Z M425.964018,576.417687 C390.996239,583.949589 361.338943,606.39029 346.354105,641.541272 C341.359158,651.584862 338.547726,663.668803 338.547726,673.712393 C336.051831,716.395277 393.962284,739.307316 418.940171,706.664858 C426.431013,696.621268 431.113578,686.894012 436.108524,676.850422 C451.096518,644.211128 445.943803,606.548457 425.964018,576.417687 L425.964018,576.417687 Z M518.842251,578.771209 C498.859311,606.39029 493.709752,644.052961 508.69459,679.207107 C513.689536,689.247533 518.372101,699.13612 525.866098,706.664858 C553.33988,736.795627 611.092566,714.50993 608.599826,676.850422 C608.599826,666.806832 605.788394,653.938384 600.793447,643.894794 C585.805453,608.743811 553.81003,586.30311 518.842251,578.771209 Z" id="Shape" fill="#FFFFFF"></path>
                    </g>
                </g>
            </g>
            <path d="M9586.72,1190.64 C9625.97353,1231.6002 9659.2532,1276.61309 9686.56,1325.68 C9713.8668,1374.74691 9735.83992,1425.09308 9752.48,1476.72 C9769.12008,1528.34692 9781.27996,1580.39974 9788.96,1632.88 C9796.64004,1685.36026 9800.48,1735.49309 9800.48,1783.28 C9800.48,1830.21357 9796.64004,1879.70641 9788.96,1931.76 C9781.27996,1983.81359 9768.90675,2036.07974 9751.84,2088.56 C9734.77325,2141.04026 9712.37347,2192.45308 9684.64,2242.8 C9656.90653,2293.14692 9622.98687,2340.07978 9582.88,2383.6 L9475.36,2313.2 C9506.93349,2270.53312 9532.9599,2227.22689 9553.44,2183.28 C9573.9201,2139.33311 9590.13327,2094.96022 9602.08,2050.16 C9614.02673,2005.35978 9622.34664,1960.56022 9627.04,1915.76 C9631.73336,1870.95978 9634.08,1826.80022 9634.08,1783.28 C9634.08,1742.3198 9630.88003,1699.01356 9624.48,1653.36 C9618.07997,1607.70644 9608.48006,1562.05356 9595.68,1516.4 C9582.87994,1470.74644 9566.45343,1426.37355 9546.4,1383.28 C9526.34657,1340.18645 9502.24014,1300.29352 9474.08,1263.6 L9586.72,1190.64 Z M10358.56,1979.12 C10358.56,1935.59978 10349.6001,1905.73341 10331.68,1889.52 C10313.7599,1873.30659 10288.5868,1865.2 10256.16,1865.2 L10256.16,1737.2 C10288.5868,1737.2 10313.7599,1728.45342 10331.68,1710.96 C10349.6001,1693.46658 10358.56,1665.94685 10358.56,1628.4 L10358.56,1360.88 C10358.56,1314.79977 10369.4399,1277.25348 10391.2,1248.24 C10412.9601,1219.22652 10447.7331,1204.72 10495.52,1204.72 L10649.12,1204.72 L10649.12,1345.52 L10585.12,1345.52 C10562.0799,1345.52 10545.2267,1351.49327 10534.56,1363.44 C10523.8933,1375.38673 10518.56,1395.0132 10518.56,1422.32 L10518.56,1671.92 C10518.56,1709.46685 10509.6001,1737.8399 10491.68,1757.04 C10473.7599,1776.2401 10452.8535,1787.97331 10428.96,1792.24 L10428.96,1805.04 C10452.0001,1808.45335 10472.6932,1821.25322 10491.04,1843.44 C10509.3868,1865.62678 10518.56,1894.63982 10518.56,1930.48 L10518.56,2178.8 C10518.56,2206.1068 10523.6799,2225.73327 10533.92,2237.68 C10544.1601,2249.62673 10561.6532,2255.6 10586.4,2255.6 L10649.12,2255.6 L10649.12,2396.4 L10495.52,2396.4 C10451.1464,2396.4 10417.2268,2382.96013 10393.76,2356.08 C10370.2932,2329.19987 10358.56,2291.01358 10358.56,2241.52 L10358.56,1979.12 Z" id="){" fill="#FFFFFF" fill-rule="nonzero"></path>
            <path d="M13603.08,1622 C13603.08,1665.52022 13612.0399,1695.38659 13629.96,1711.6 C13647.8801,1727.81341 13673.0532,1735.92 13705.48,1735.92 L13705.48,1863.92 C13673.0532,1863.92 13647.8801,1872.66658 13629.96,1890.16 C13612.0399,1907.65342 13603.08,1935.17315 13603.08,1972.72 L13603.08,2240.24 C13603.08,2286.32023 13591.7734,2323.86652 13569.16,2352.88 C13546.5466,2381.89348 13511.3469,2396.4 13463.56,2396.4 L13313.8,2396.4 L13313.8,2255.6 L13377.8,2255.6 C13400.8401,2255.6 13417.6933,2249.84006 13428.36,2238.32 C13439.0267,2226.79994 13444.36,2206.96014 13444.36,2178.8 L13444.36,1929.2 C13444.36,1891.65315 13453.3199,1863.2801 13471.24,1844.08 C13489.1601,1824.8799 13510.0665,1813.14669 13533.96,1808.88 L13533.96,1796.08 C13510.9199,1792.66665 13490.2268,1779.86678 13471.88,1757.68 C13453.5332,1735.49322 13444.36,1706.48018 13444.36,1670.64 L13444.36,1422.32 C13444.36,1395.86653 13439.2401,1376.4534 13429,1364.08 C13418.7599,1351.7066 13401.2668,1345.52 13376.52,1345.52 L13313.8,1345.52 L13313.8,1204.72 L13466.12,1204.72 C13511.3469,1204.72 13545.4799,1218.15987 13568.52,1245.04 C13591.5601,1271.92013 13603.08,1310.10642 13603.08,1359.6 L13603.08,1622 Z" id="}" fill="#FFFFFF" fill-rule="nonzero"></path>
            <g id="angular" transform="translate(2133.000000, 486.000000)" fill-rule="nonzero">
                <polygon id="Path" fill="#DD0031" points="1162 0 1162 0 1162 0 0 413.672 177.233083 1947.498 1162 2492 1162 2492 1162 2492 2146.76692 1947.498 2324 413.672"></polygon>
                <polygon id="Path" fill="#C3002F" points="1159 0 1159 276.612 1159 275.366 1159 1537.564 1159 1537.564 1159 2492 1159 2492 2146.30934 1947.498 2324 413.672"></polygon>
                <path d="M1169.24957,274 L442,1900 L442,1900 L713.156627,1900 L713.156627,1900 L859.356282,1536.17471 L1476.64372,1536.17471 L1622.84337,1900 L1622.84337,1900 L1894,1900 L1894,1900 L1169.24957,274 L1169.24957,274 L1169.24957,274 L1169.24957,274 L1169.24957,274 Z M1381.67642,1311.89885 L956.822719,1311.89885 L1169.24957,802.294253 L1381.67642,1311.89885 Z" id="Shape" fill="#FFFFFF"></path>
            </g>
            <path d="M4884.76,1843.68 C4884.76,1811.25317 4890.09328,1780.32015 4900.76,1750.88 C4911.42672,1721.43985 4926.3599,1693.92013 4945.56,1668.32 C4964.7601,1642.71987 4987.58653,1618.82678 5014.04,1596.64 C5040.49347,1574.45322 5069.07985,1554.82675 5099.8,1537.76 C5078.46656,1509.59986 5060.9734,1481.01348 5047.32,1452 C5033.6666,1422.98652 5026.84,1392.26683 5026.84,1359.84 C5026.84,1338.50656 5030.89329,1316.96011 5039,1295.2 C5047.10671,1273.43989 5059.90658,1253.81342 5077.4,1236.32 C5094.89342,1218.82658 5117.71986,1204.74672 5145.88,1194.08 C5174.04014,1183.41328 5208.17313,1178.08 5248.28,1178.08 C5287.53353,1178.08 5321.02653,1182.77329 5348.76,1192.16 C5376.49347,1201.54671 5398.89325,1213.91992 5415.96,1229.28 C5433.02675,1244.64008 5445.39996,1262.13324 5453.08,1281.76 C5460.76004,1301.38676 5464.6,1321.4399 5464.6,1341.92 C5464.6,1376.90684 5452.22679,1413.38648 5427.48,1451.36 C5402.73321,1489.33352 5360.49363,1525.81316 5300.76,1560.8 C5330.62682,1606.88023 5360.49318,1649.11981 5390.36,1687.52 C5420.22682,1725.92019 5453.50648,1763.89315 5490.2,1801.44 C5509.82676,1780.10656 5527.53325,1753.44016 5543.32,1721.44 C5559.10675,1689.43984 5572.97327,1656.80017 5584.92,1623.52 L5705.24,1687.52 C5700.11997,1702.88008 5693.08004,1719.73324 5684.12,1738.08 C5675.15996,1756.42676 5665.34672,1774.98657 5654.68,1793.76 C5644.01328,1812.53343 5633.13339,1830.23992 5622.04,1846.88 C5610.94661,1863.52008 5600.70671,1877.81327 5591.32,1889.76 C5618.6268,1914.50679 5642.5199,1933.91993 5663,1948 C5683.4801,1962.08007 5704.38656,1975.09327 5725.72,1987.04 L5637.4,2109.92 C5613.50655,2098.82661 5588.97346,2084.10676 5563.8,2065.76 C5538.62654,2047.41324 5513.66679,2026.29345 5488.92,2002.4 C5458.19985,2030.56014 5419.80023,2055.51989 5373.72,2077.28 C5327.63977,2099.04011 5270.89367,2109.92 5203.48,2109.92 C5159.10644,2109.92 5117.50686,2103.94673 5078.68,2092 C5039.85314,2080.05327 5006.14681,2062.56012 4977.56,2039.52 C4948.97319,2016.47988 4926.36008,1988.5335 4909.72,1955.68 C4893.07992,1922.8265 4884.76,1885.49354 4884.76,1843.68 Z M5389.08,1901.28 C5345.55978,1856.05311 5305.88018,1811.04022 5270.04,1766.24 C5234.19982,1721.43978 5203.05347,1678.98687 5176.6,1638.88 C5135.6398,1670.45349 5104.49344,1700.95985 5083.16,1730.4 C5061.82656,1759.84015 5051.16,1792.90648 5051.16,1829.6 C5051.16,1873.12022 5067.15984,1907.25321 5099.16,1932 C5131.16016,1956.74679 5173.18641,1969.12 5225.24,1969.12 C5259.3735,1969.12 5291.37318,1962.08007 5321.24,1948 C5351.10682,1933.91993 5373.71992,1918.34675 5389.08,1901.28 Z M5193.24,1367.52 C5193.24,1403.36018 5208.59985,1441.7598 5239.32,1482.72 C5272.60017,1461.38656 5296.70659,1441.33343 5311.64,1422.56 C5326.57341,1403.78657 5334.04,1385.86675 5334.04,1368.8 C5334.04,1348.3199 5328.28006,1332.10673 5316.76,1320.16 C5305.23994,1308.21327 5286.68013,1302.24 5261.08,1302.24 C5238.03988,1302.24 5220.97339,1308.21327 5209.88,1320.16 C5198.78661,1332.10673 5193.24,1347.89324 5193.24,1367.52 Z M5926.68,1843.68 C5926.68,1811.25317 5932.01328,1780.32015 5942.68,1750.88 C5953.34672,1721.43985 5968.2799,1693.92013 5987.48,1668.32 C6006.6801,1642.71987 6029.50653,1618.82678 6055.96,1596.64 C6082.41347,1574.45322 6110.99985,1554.82675 6141.72,1537.76 C6120.38656,1509.59986 6102.8934,1481.01348 6089.24,1452 C6075.5866,1422.98652 6068.76,1392.26683 6068.76,1359.84 C6068.76,1338.50656 6072.81329,1316.96011 6080.92,1295.2 C6089.02671,1273.43989 6101.82658,1253.81342 6119.32,1236.32 C6136.81342,1218.82658 6159.63986,1204.74672 6187.8,1194.08 C6215.96014,1183.41328 6250.09313,1178.08 6290.2,1178.08 C6329.45353,1178.08 6362.94653,1182.77329 6390.68,1192.16 C6418.41347,1201.54671 6440.81325,1213.91992 6457.88,1229.28 C6474.94675,1244.64008 6487.31996,1262.13324 6495,1281.76 C6502.68004,1301.38676 6506.52,1321.4399 6506.52,1341.92 C6506.52,1376.90684 6494.14679,1413.38648 6469.4,1451.36 C6444.65321,1489.33352 6402.41363,1525.81316 6342.68,1560.8 C6372.54682,1606.88023 6402.41318,1649.11981 6432.28,1687.52 C6462.14682,1725.92019 6495.42648,1763.89315 6532.12,1801.44 C6551.74676,1780.10656 6569.45325,1753.44016 6585.24,1721.44 C6601.02675,1689.43984 6614.89327,1656.80017 6626.84,1623.52 L6747.16,1687.52 C6742.03997,1702.88008 6735.00004,1719.73324 6726.04,1738.08 C6717.07996,1756.42676 6707.26672,1774.98657 6696.6,1793.76 C6685.93328,1812.53343 6675.05339,1830.23992 6663.96,1846.88 C6652.86661,1863.52008 6642.62671,1877.81327 6633.24,1889.76 C6660.5468,1914.50679 6684.4399,1933.91993 6704.92,1948 C6725.4001,1962.08007 6746.30656,1975.09327 6767.64,1987.04 L6679.32,2109.92 C6655.42655,2098.82661 6630.89346,2084.10676 6605.72,2065.76 C6580.54654,2047.41324 6555.58679,2026.29345 6530.84,2002.4 C6500.11985,2030.56014 6461.72023,2055.51989 6415.64,2077.28 C6369.55977,2099.04011 6312.81367,2109.92 6245.4,2109.92 C6201.02644,2109.92 6159.42686,2103.94673 6120.6,2092 C6081.77314,2080.05327 6048.06681,2062.56012 6019.48,2039.52 C5990.89319,2016.47988 5968.28008,1988.5335 5951.64,1955.68 C5934.99992,1922.8265 5926.68,1885.49354 5926.68,1843.68 Z M6431,1901.28 C6387.47978,1856.05311 6347.80018,1811.04022 6311.96,1766.24 C6276.11982,1721.43978 6244.97347,1678.98687 6218.52,1638.88 C6177.5598,1670.45349 6146.41344,1700.95985 6125.08,1730.4 C6103.74656,1759.84015 6093.08,1792.90648 6093.08,1829.6 C6093.08,1873.12022 6109.07984,1907.25321 6141.08,1932 C6173.08016,1956.74679 6215.10641,1969.12 6267.16,1969.12 C6301.2935,1969.12 6333.29318,1962.08007 6363.16,1948 C6393.02682,1933.91993 6415.63992,1918.34675 6431,1901.28 Z M6235.16,1367.52 C6235.16,1403.36018 6250.51985,1441.7598 6281.24,1482.72 C6314.52017,1461.38656 6338.62659,1441.33343 6353.56,1422.56 C6368.49341,1403.78657 6375.96,1385.86675 6375.96,1368.8 C6375.96,1348.3199 6370.20006,1332.10673 6358.68,1320.16 C6347.15994,1308.21327 6328.60013,1302.24 6303,1302.24 C6279.95988,1302.24 6262.89339,1308.21327 6251.8,1320.16 C6240.70661,1332.10673 6235.16,1347.89324 6235.16,1367.52 Z" id="&amp;&amp;" fill="#FFFFFF" fill-rule="nonzero"></path>
            <path d="M589.32,1438 L755.72,1438 L755.72,2078 L589.32,2078 L589.32,1438 Z M565,1257.52 C565,1232.77321 574.173242,1211.65342 592.52,1194.16 C610.866758,1176.66658 636.253171,1167.92 668.68,1167.92 C701.106829,1167.92 727.346566,1176.66658 747.4,1194.16 C767.453434,1211.65342 777.48,1232.77321 777.48,1257.52 C777.48,1282.26679 767.453434,1302.95992 747.4,1319.6 C727.346566,1336.24008 701.106829,1344.56 668.68,1344.56 C636.253171,1344.56 610.866758,1336.24008 592.52,1319.6 C574.173242,1302.95992 565,1282.26679 565,1257.52 Z M859.4,1438 L947.72,1438 L947.72,1402.16 C947.72,1321.09293 964.786496,1262.42685 998.92,1226.16 C1033.0535,1189.89315 1082.54634,1171.76 1147.4,1171.76 C1215.66701,1171.76 1272.41311,1179.86659 1317.64,1196.08 L1285.64,1329.2 C1266.01324,1322.3733 1248.73341,1317.89334 1233.8,1315.76 C1218.86659,1313.62666 1203.29341,1312.56 1187.08,1312.56 C1170.01325,1312.56 1156.57338,1315.11997 1146.76,1320.24 C1136.94662,1325.36003 1129.69336,1333.25328 1125,1343.92 C1120.30664,1354.58672 1117.32001,1367.81325 1116.04,1383.6 C1114.75999,1399.38675 1114.12,1417.5199 1114.12,1438 L1254.92,1438 L1254.92,1578.8 L1114.12,1578.8 L1114.12,2078 L947.72,2078 L947.72,1578.8 L859.4,1578.8 L859.4,1438 Z M1870.6,2359.6 C1831.34647,2318.6398 1798.0668,2273.62691 1770.76,2224.56 C1743.4532,2175.49309 1721.48008,2125.14692 1704.84,2073.52 C1688.19992,2021.89308 1676.04004,1969.84026 1668.36,1917.36 C1660.67996,1864.87974 1656.84,1814.74691 1656.84,1766.96 C1656.84,1720.02643 1660.67996,1670.53359 1668.36,1618.48 C1676.04004,1566.42641 1688.41325,1514.16026 1705.48,1461.68 C1722.54675,1409.19974 1744.94653,1357.78692 1772.68,1307.44 C1800.41347,1257.09308 1834.33313,1210.16022 1874.44,1166.64 L1981.96,1235.76 C1952.09318,1275.86687 1927.13343,1317.67978 1907.08,1361.2 C1887.02657,1404.72022 1870.8134,1449.30644 1858.44,1494.96 C1846.0666,1540.61356 1837.10669,1586.47977 1831.56,1632.56 C1826.01331,1678.64023 1823.24,1723.43978 1823.24,1766.96 C1823.24,1807.9202 1826.22664,1851.43977 1832.2,1897.52 C1838.17336,1943.60023 1847.55994,1989.46644 1860.36,2035.12 C1873.16006,2080.77356 1889.7999,2125.35978 1910.28,2168.88 C1930.7601,2212.40022 1955.50652,2252.07982 1984.52,2287.92 L1870.6,2359.6 Z" id="if(" fill="#FFFFFF" fill-rule="nonzero"></path>
            <g id="cucumber" transform="translate(7126.000000, 495.000000)" fill-rule="nonzero">
                <path d="M1095.93809,0 C490.210945,0 0,491.56657 0,1098.9713 C0,1633.75689 382.28625,2078.10534 886.790566,2176.9643 L886.790566,2491.55402 C1542.6843,2392.39853 2123.44253,1870.30498 2166.78016,1184.96029 C2192.859,772.435125 1987.75294,351.301746 1641.81438,146.805715 C1622.00531,135.104977 1601.88275,123.480492 1581.15864,113.253996 C1560.04478,102.832629 1538.36325,92.6823867 1516.32587,83.8877695 C1509.32746,80.9562305 1502.47308,78.2958164 1495.40688,75.4998398 C1476.16548,68.3828086 1456.74615,60.3592031 1436.85236,54.5300156 C1329.60547,19.0888945 1214.97043,0 1095.93809,0 Z" id="Path" fill="#00A818"></path>
                <path d="M1322.97138,406.068996 C1285.4121,402.205465 1245.85327,415.312664 1218.19004,448.093371 C1198.06748,475.002527 1185.49406,501.055945 1172.08185,527.956629 C1131.83673,622.104785 1145.25742,722.98023 1205.61662,796.963465 C1299.50212,776.781598 1379.13662,716.676574 1419.38174,622.528418 C1432.79395,595.627734 1440.33462,561.160969 1440.33462,534.260285 C1444.52858,462.810375 1385.58431,412.508215 1322.97138,406.068996 Z M834.666785,412.372652 C773.434898,418.218785 715.210805,467.021285 715.210805,534.260285 C715.210805,561.160969 722.751469,595.627734 736.172156,622.528418 C776.408801,716.676574 862.330008,776.781598 956.223984,796.954992 C1009.87284,722.988703 1023.70022,622.104785 983.463574,527.956629 C970.051359,501.055945 957.477937,474.578895 937.355379,454.4055 C909.692156,421.61632 871.412695,408.864973 834.666785,412.381125 L834.666785,412.372652 Z M505.648125,736.019648 C399.89243,741.459094 352.657371,874.717031 440.679797,944.074195 C467.504227,964.239117 493.489863,978.956121 520.322766,992.410699 C614.199797,1032.75749 722.759941,1018.88775 803.241703,965.086383 C783.119145,877.665516 714.804117,797.387098 620.910141,757.031836 C587.375367,743.58573 560.135777,736.019648 526.609477,736.019648 C519.06034,735.172383 512.697375,735.655324 505.648125,736.019648 Z M1538.84619,1143.72387 C1477.41943,1142.5377 1415.19625,1160.53362 1364.90256,1194.15312 C1385.01664,1281.58246 1453.34014,1361.86088 1547.23412,1402.20766 C1580.76042,1415.65377 1608.00001,1423.21985 1641.53479,1423.21985 C1762.25319,1429.94714 1821.34997,1280.32003 1727.46446,1213.07256 C1700.63156,1192.89069 1674.64593,1180.28338 1647.8215,1166.83727 C1612.61761,1151.70511 1575.70225,1144.4271 1538.84619,1143.71539 L1538.84619,1143.72387 Z M623.002887,1150.01905 C586.146832,1150.73075 549.239941,1158.00877 514.027582,1173.14093 C480.492809,1186.58704 454.507172,1201.30404 434.384613,1221.47743 C347.20098,1295.44372 405.89107,1436.25927 526.601004,1429.52351 C560.135777,1429.52351 594.085711,1421.9659 620.910141,1408.51132 C714.804117,1368.16453 781.441559,1287.88611 794.853773,1200.45677 C744.055435,1166.50964 684.090113,1148.90999 623.002887,1150.01905 L623.002887,1150.01905 Z M962.519168,1355.97238 C868.625191,1376.14577 788.990695,1436.2508 748.754051,1530.39895 C735.341836,1557.29964 727.792699,1589.66518 727.792699,1616.56587 C721.090828,1730.88742 876.589488,1792.25487 943.659035,1704.82553 C963.773121,1677.92484 976.346543,1651.87143 989.758758,1624.97074 C1030.00388,1537.54987 1016.16803,1436.67443 962.519168,1355.97238 L962.519168,1355.97238 Z M1211.9118,1362.27604 C1158.25447,1436.2508 1144.4271,1537.12624 1184.66374,1631.28287 C1198.07596,1658.17508 1210.64938,1684.66061 1230.77194,1704.82553 C1304.54336,1785.52758 1459.61838,1725.83771 1452.92498,1624.97074 C1452.92498,1598.07006 1445.37585,1563.60329 1431.96363,1536.70261 C1391.71852,1442.55445 1305.80578,1382.44943 1211.9118,1362.27604 Z" id="Shape" fill="#FFFFFF"></path>
            </g>
        </g>
    </g>
</svg>