<?xml version="1.0" encoding="UTF-8"?>
<svg width="14284px" height="3397px" viewBox="0 0 14284 3397" version="1.1" xmlns="http://www.w3.org/2000/svg" xmlns:xlink="http://www.w3.org/1999/xlink">
    <!-- Generator: Sketch 55.2 (78181) - https://sketchapp.com -->
    <title>angular-and-cucumber</title>
    <desc>Created with Sketch.</desc>
    <defs>
        <rect id="path-1" x="0" y="0" width="1030.11799" height="2478.7287"></rect>
    </defs>
    <g id="transparent" stroke="none" stroke-width="1" fill="none" fill-rule="evenodd">
        <g id="angular-and-cucumber">
            <rect id="background" fill="#0B4F6C" x="0" y="0" width="14284" height="3397"></rect>
            <path d="M13603.08,1622 C13603.08,1665.52022 13612.0399,1695.38659 13629.96,1711.6 C13647.8801,1727.81341 13673.0532,1735.92 13705.48,1735.92 L13705.48,1863.92 C13673.0532,1863.92 13647.8801,1872.66658 13629.96,1890.16 C13612.0399,1907.65342 13603.08,1935.17315 13603.08,1972.72 L13603.08,2240.24 C13603.08,2286.32023 13591.7734,2323.86652 13569.16,2352.88 C13546.5466,2381.89348 13511.3469,2396.4 13463.56,2396.4 L13313.8,2396.4 L13313.8,2255.6 L13377.8,2255.6 C13400.8401,2255.6 13417.6933,2249.84006 13428.36,2238.32 C13439.0267,2226.79994 13444.36,2206.96014 13444.36,2178.8 L13444.36,1929.2 C13444.36,1891.65315 13453.3199,1863.2801 13471.24,1844.08 C13489.1601,1824.8799 13510.0665,1813.14669 13533.96,1808.88 L13533.96,1796.08 C13510.9199,1792.66665 13490.2268,1779.86678 13471.88,1757.68 C13453.5332,1735.49322 13444.36,1706.48018 13444.36,1670.64 L13444.36,1422.32 C13444.36,1395.86653 13439.2401,1376.4534 13429,1364.08 C13418.7599,1351.7066 13401.2668,1345.52 13376.52,1345.52 L13313.8,1345.52 L13313.8,1204.72 L13466.12,1204.72 C13511.3469,1204.72 13545.4799,1218.15987 13568.52,1245.04 C13591.5601,1271.92013 13603.08,1310.10642 13603.08,1359.6 L13603.08,1622 Z" id="}" fill="#FFFFFF" fill-rule="nonzero"></path>
            <g id="icon" transform="translate(10952.000000, 478.000000)">
                <g id="jar">
                    <path d="M2029.2604,972.202625 C2004.35103,872.432686 1962.83542,789.29107 1896.41044,711.692229 C1832.75316,634.093388 1738.65111,559.265934 1727.58028,453.953221 C1746.95423,448.410447 1766.32818,440.096285 1785.70214,431.782123 C1807.8438,423.467962 1824.45004,406.839639 1824.45004,379.125767 C1824.45004,301.526926 1824.45004,226.699472 1824.45004,149.100631 C1824.45004,124.158146 1807.8438,104.758436 1785.70214,96.444274 C1647.31676,49.3306919 1497.86056,29.9309816 1353.93976,16.0740457 C991.370081,-19.9539877 626.03269,16.0740457 274.533837,104.758436 C233.018224,115.843984 230.250516,162.957566 252.392176,187.900051 C246.856761,251.641956 244.089054,315.383862 241.321346,379.125767 C241.321346,398.525477 255.159884,415.1538 274.533837,420.696575 C304.978619,431.782123 338.191109,440.096285 371.403599,448.410447 C349.261939,564.808708 249.624469,650.721711 177.664074,739.406101 C111.239094,819.776329 55.8849434,905.689332 30.9755758,1008.23066 C-7.7723293,1166.19973 -5.0046218,1321.39741 33.7432833,1471.05232 C105.703679,1745.41965 205.341149,2050.27224 374.171307,2283.06876 C432.293165,2363.43899 501.485852,2429.95228 598.355615,2457.66616 C711.831623,2490.9228 841.913876,2477.06587 958.157591,2477.06587 C1085.47214,2474.29448 1215.55439,2474.29448 1342.86893,2471.52309 C1436.97099,2468.7517 1536.60846,2465.98032 1611.33656,2402.23841 C1713.74174,2319.0968 1763.56048,2169.44189 1818.91463,2053.04363 C1888.10731,1908.93149 1957.3,1759.27659 2001.58332,1604.0789 C2059.70518,1404.53903 2076.31142,1174.51389 2029.2604,972.202625 Z M1351.17206,124.158146 C1453.57724,135.243695 1561.51783,149.100631 1663.92301,176.814502 C1445.27411,240.556408 1204.48356,248.870569 977.531544,246.099182 C852.984706,243.327795 725.67016,235.013633 601.123323,221.156697 C526.39522,212.842536 451.667117,196.214213 376.939014,185.128664 C697.993085,115.843984 1024.58257,90.9014997 1351.17206,124.158146 Z M329.887987,348.640508 C329.887987,323.698023 329.887987,298.755539 327.120279,273.813054 C404.616089,301.526926 490.415022,309.841087 567.910832,320.926636 C703.5285,337.554959 841.913876,345.869121 977.531544,348.640508 C1221.0898,351.411895 1481.25431,343.097734 1716.50945,265.498892 C1716.50945,293.212764 1716.50945,318.155249 1716.50945,345.869121 C1503.39597,423.467962 1262.60542,434.553511 1038.42111,431.782123 C800.398263,429.010736 559.60771,404.068252 329.887987,348.640508 Z M927.712809,620.236452 C781.024311,623.007839 634.335813,631.322001 490.415022,653.493098 C462.737947,656.264485 421.222335,661.80726 379.706722,670.121421 C421.222335,611.92229 448.89941,548.180385 448.89941,473.352931 C642.638935,517.695126 841.913876,534.323449 1038.42111,537.094836 C1221.0898,539.866224 1414.82933,534.323449 1597.49803,492.752642 C1614.10427,567.580095 1652.85218,623.007839 1699.9032,675.664196 C1445.27411,631.322001 1182.3419,617.465065 927.712809,620.236452 Z M1605.80115,778.205522 C1359.47518,833.633265 1099.31067,839.17604 850.216998,825.319104 C717.367038,817.004942 581.74937,800.376619 451.667117,769.89136 C476.576485,764.348586 504.25356,761.577198 529.162927,758.805811 C667.548303,742.177488 808.701386,736.634714 947.086761,736.634714 C1160.20024,736.634714 1392.68767,736.634714 1605.80115,778.205522 Z M1937.92605,1379.59654 C1907.48127,1656.73526 1766.32818,1911.70288 1636.24593,2152.81357 C1594.73032,2230.41241 1550.447,2308.01125 1456.34494,2321.86818 C1348.40435,2338.49651 1232.16063,2324.63957 1124.22004,2324.63957 C1013.51174,2324.63957 900.035733,2321.86818 789.327433,2321.86818 C670.31601,2321.86818 578.981662,2316.32541 495.950437,2219.32686 C410.151504,2119.55692 357.565062,1994.8445 310.514034,1872.90346 C255.159884,1739.87687 205.341149,1606.85029 163.825536,1468.28093 C116.774509,1310.31186 102.935971,1149.5714 155.522414,988.830948 C180.431781,916.774881 224.715101,855.804363 274.533837,797.605232 C304.978619,814.233555 335.423402,825.319104 368.635892,836.404652 C515.32439,886.289622 673.083718,905.689332 825.307631,919.546268 C1154.66482,950.031527 1514.4668,936.174591 1829.98546,828.090491 C1832.75316,828.090491 1835.52087,825.319104 1838.28858,825.319104 C1841.05629,828.090491 1841.05629,828.090491 1843.82399,830.861878 C1962.83542,983.288173 1957.3,1196.68499 1937.92605,1379.59654 Z" id="Shape" fill="#C3002F" fill-rule="nonzero"></path>
                    <g id="jar-left">
                        <mask id="mask-2" fill="white">
                            <use xlink:href="#path-1"></use>
                        </mask>
                        <g id="Mask"></g>
                        <path d="M2029.2604,972.202625 C2004.35103,872.432686 1962.83542,789.29107 1896.41044,711.692229 C1832.75316,634.093388 1738.65111,559.265934 1727.58028,453.953221 C1746.95423,448.410447 1766.32818,440.096285 1785.70214,431.782123 C1807.8438,423.467962 1824.45004,406.839639 1824.45004,379.125767 C1824.45004,301.526926 1824.45004,226.699472 1824.45004,149.100631 C1824.45004,124.158146 1807.8438,104.758436 1785.70214,96.444274 C1647.31676,49.3306919 1497.86056,29.9309816 1353.93976,16.0740457 C991.370081,-19.9539877 626.03269,16.0740457 274.533837,104.758436 C233.018224,115.843984 230.250516,162.957566 252.392176,187.900051 C246.856761,251.641956 244.089054,315.383862 241.321346,379.125767 C241.321346,398.525477 255.159884,415.1538 274.533837,420.696575 C304.978619,431.782123 338.191109,440.096285 371.403599,448.410447 C349.261939,564.808708 249.624469,650.721711 177.664074,739.406101 C111.239094,819.776329 55.8849434,905.689332 30.9755758,1008.23066 C-7.7723293,1166.19973 -5.0046218,1321.39741 33.7432833,1471.05232 C105.703679,1745.41965 205.341149,2050.27224 374.171307,2283.06876 C432.293165,2363.43899 501.485852,2429.95228 598.355615,2457.66616 C711.831623,2490.9228 841.913876,2477.06587 958.157591,2477.06587 C1085.47214,2474.29448 1215.55439,2474.29448 1342.86893,2471.52309 C1436.97099,2468.7517 1536.60846,2465.98032 1611.33656,2402.23841 C1713.74174,2319.0968 1763.56048,2169.44189 1818.91463,2053.04363 C1888.10731,1908.93149 1957.3,1759.27659 2001.58332,1604.0789 C2059.70518,1404.53903 2076.31142,1174.51389 2029.2604,972.202625 Z M1351.17206,124.158146 C1453.57724,135.243695 1561.51783,149.100631 1663.92301,176.814502 C1445.27411,240.556408 1204.48356,248.870569 977.531544,246.099182 C852.984706,243.327795 725.67016,235.013633 601.123323,221.156697 C526.39522,212.842536 451.667117,196.214213 376.939014,185.128664 C697.993085,115.843984 1024.58257,90.9014997 1351.17206,124.158146 Z M329.887987,348.640508 C329.887987,323.698023 329.887987,298.755539 327.120279,273.813054 C404.616089,301.526926 490.415022,309.841087 567.910832,320.926636 C703.5285,337.554959 841.913876,345.869121 977.531544,348.640508 C1221.0898,351.411895 1481.25431,343.097734 1716.50945,265.498892 C1716.50945,293.212764 1716.50945,318.155249 1716.50945,345.869121 C1503.39597,423.467962 1262.60542,434.553511 1038.42111,431.782123 C800.398263,429.010736 559.60771,404.068252 329.887987,348.640508 Z M927.712809,620.236452 C781.024311,623.007839 634.335813,631.322001 490.415022,653.493098 C462.737947,656.264485 421.222335,661.80726 379.706722,670.121421 C421.222335,611.92229 448.89941,548.180385 448.89941,473.352931 C642.638935,517.695126 841.913876,534.323449 1038.42111,537.094836 C1221.0898,539.866224 1414.82933,534.323449 1597.49803,492.752642 C1614.10427,567.580095 1652.85218,623.007839 1699.9032,675.664196 C1445.27411,631.322001 1182.3419,617.465065 927.712809,620.236452 Z M1605.80115,778.205522 C1359.47518,833.633265 1099.31067,839.17604 850.216998,825.319104 C717.367038,817.004942 581.74937,800.376619 451.667117,769.89136 C476.576485,764.348586 504.25356,761.577198 529.162927,758.805811 C667.548303,742.177488 808.701386,736.634714 947.086761,736.634714 C1160.20024,736.634714 1392.68767,736.634714 1605.80115,778.205522 Z M1937.92605,1379.59654 C1907.48127,1656.73526 1766.32818,1911.70288 1636.24593,2152.81357 C1594.73032,2230.41241 1550.447,2308.01125 1456.34494,2321.86818 C1348.40435,2338.49651 1232.16063,2324.63957 1124.22004,2324.63957 C1013.51174,2324.63957 900.035733,2321.86818 789.327433,2321.86818 C670.31601,2321.86818 578.981662,2316.32541 495.950437,2219.32686 C410.151504,2119.55692 357.565062,1994.8445 310.514034,1872.90346 C255.159884,1739.87687 205.341149,1606.85029 163.825536,1468.28093 C116.774509,1310.31186 102.935971,1149.5714 155.522414,988.830948 C180.431781,916.774881 224.715101,855.804363 274.533837,797.605232 C304.978619,814.233555 335.423402,825.319104 368.635892,836.404652 C515.32439,886.289622 673.083718,905.689332 825.307631,919.546268 C1154.66482,950.031527 1514.4668,936.174591 1829.98546,828.090491 C1832.75316,828.090491 1835.52087,825.319104 1838.28858,825.319104 C1841.05629,828.090491 1841.05629,828.090491 1843.82399,830.861878 C1962.83542,983.288173 1957.3,1196.68499 1937.92605,1379.59654 Z" id="Shape" fill="#FF0039" fill-rule="nonzero" mask="url(#mask-2)"></path>
                    </g>
                </g>
                <g id="slices" transform="translate(399.000000, 992.000000)" fill-rule="nonzero">
                    <g id="cucumber">
                        <path d="M482.357606,189.379352 C470.60203,188.17446 458.220622,192.262109 449.562387,202.485196 C443.264283,210.877163 439.328963,219.002257 435.131111,227.391582 C422.534904,256.752899 426.735408,288.212208 445.627067,311.284834 C475.012029,304.990858 499.936608,286.246331 512.532815,256.885015 C516.730666,248.49569 519.090798,237.746784 519.090798,229.357459 C520.403455,207.074883 501.954653,191.387506 482.357606,189.379352 Z M329.524511,191.345229 C310.359714,193.168421 292.136317,208.38811 292.136317,229.357459 C292.136317,237.746784 294.496448,248.49569 298.696952,256.885015 C311.290507,286.246331 338.182746,304.990858 367.57036,311.282191 C384.361767,288.21485 388.689559,256.752899 376.096004,227.391582 C371.898152,219.002257 367.962832,210.745048 361.664728,204.453714 C353.006493,194.227986 341.025511,190.251313 329.524511,191.347871 L329.524511,191.345229 Z M226.545878,292.278719 C193.445698,293.97508 178.661729,335.533286 206.211622,357.163212 C214.607326,363.451903 222.740498,368.041591 231.138853,372.237575 C260.521163,384.820241 294.4991,380.494784 319.688863,363.716134 C313.390759,336.452809 292.009029,311.416949 262.621415,298.83164 C252.12546,294.638299 243.599817,292.278719 233.106513,292.278719 C230.74373,292.014488 228.752203,292.165099 226.545878,292.278719 Z" id="Shape" fill="#FFFFFF"></path>
                        <path d="M552.654574,133.750971 C609.207574,163.465422 621.847779,173.111371 664.950524,216.18022 C691.793087,243.001675 717.701644,283.405698 729.971308,310.169281 L808.546809,274.094277 C792.325723,238.711532 761.070171,189.968946 726.033742,154.960069 C677.091015,106.05583 657.589686,91.1740446 592.842238,57.1540121 C543.651192,31.3077275 491.341857,13.0789525 436.048602,2.49969609 L433.799771,2.06942726 L431.518102,1.87930629 C364.691093,-3.68908152 306.053187,4.48853708 256.077448,27.0430501 C244.587227,32.2286931 207.554122,48.1930076 199.714634,51.9785982 C194.287834,54.5991321 189.383942,57.1863262 184.546342,60.0103904 C170.167829,68.4041888 156.829342,78.5062018 132.999534,98.6265241 C107.102066,120.492642 94.5821188,132.097894 83.6611779,145.050232 C78.3654359,151.331031 73.6820831,157.727636 69.0240065,164.965654 C63.0116713,174.308006 62.2414955,175.681828 45.2405555,206.692456 C15.971514,260.080762 13.1790401,268.814175 5.17885511,330.228595 C0.809243627,363.772464 -0.326250946,378.165538 0.783104599,395.210757 C1.79907103,410.821055 3.31625326,418.626301 12.1343443,458.141467 C24.8466553,515.107208 30.3695743,528.299124 67.2034175,592.918763 C94.7510053,641.247012 119.222168,669.222007 149.63775,677.415553 L172.109388,593.876452 C173.9929,594.383845 174.74043,594.773488 174.597059,594.666151 C172.948373,593.431837 170.623838,591.211792 167.81693,588.002986 C160.618321,579.773665 151.98432,567.050641 142.295625,550.053231 C109.424514,492.385631 107.135875,486.919042 96.5062038,439.285917 C88.9093155,405.24314 87.6465379,398.746696 87.0504649,389.588049 C86.4217548,379.927934 87.243954,369.506066 90.9036673,341.41182 C97.5356121,290.500867 97.0253193,292.096798 121.033418,248.304735 C136.448127,220.187477 137.362239,218.556906 141.705384,211.808248 C144.415441,207.597189 146.912969,204.186021 149.733426,200.840932 C156.574891,192.726892 166.426361,183.59516 188.747604,164.748571 C209.045324,147.610512 219.097518,139.9974 228.106986,134.737909 C230.8911,133.112617 233.81031,131.5725 237.284749,129.894737 C243.13517,127.069642 278.637766,111.765103 291.617849,105.907072 C326.74104,90.0556507 370.073935,83.8553785 422.069532,87.910387 C468.202692,96.9562061 511.688367,112.226236 552.654574,133.750971 Z" id="Path-2" fill="#00A818"></path>
                    </g>
                    <g id="cucumber" transform="translate(637.396407, 182.587651)">
                        <path d="M435.703811,187.027008 C423.948235,185.822116 411.566826,189.909765 402.908591,200.132851 C396.610488,208.524818 392.675167,216.649913 388.477316,225.039238 C375.881109,254.400555 380.081612,285.859863 398.973271,308.932489 C428.358233,302.638514 453.282812,283.893987 465.879019,254.53267 C470.076871,246.143345 472.437002,235.39444 472.437002,227.005114 C473.74966,204.722538 455.300857,189.035161 435.703811,187.027008 Z M282.870716,188.992884 C263.705918,190.816076 245.482521,206.035765 245.482521,227.005114 C245.482521,235.39444 247.842653,246.143345 252.043156,254.53267 C264.636712,283.893987 291.528951,302.638514 320.916565,308.929847 C337.707972,285.862506 342.035763,254.400555 329.442208,225.039238 C325.244356,216.649913 321.309036,208.392703 315.010932,202.10137 C306.352698,191.875641 294.371716,187.898969 282.870716,188.995526 L282.870716,188.992884 Z M503.269865,417.074193 C484.044075,416.70427 464.569013,422.31653 448.827732,432.801205 C455.123184,460.067172 476.507566,485.103032 505.89518,497.685699 C516.388483,501.87904 524.914127,504.238621 535.410082,504.238621 C573.193399,506.336612 591.689935,459.673469 562.304973,438.701477 C553.906617,432.407501 545.773445,428.475748 537.377742,424.282407 C526.359376,419.563246 514.805339,417.293505 503.269865,417.071551 L503.269865,417.074193 Z M400.943583,485.232505 C384.149524,508.302489 379.821732,539.761798 392.415288,569.125757 C396.613139,577.51244 400.54846,585.772292 406.846563,592.060983 C429.936074,617.228958 478.472574,598.613904 476.377626,567.157238 C476.377626,558.767913 474.014843,548.019007 469.816991,539.629682 C457.220784,510.268365 430.331197,491.523839 400.943583,485.232505 Z" id="Shape" fill="#FFFFFF"></path>
                        <path d="M614.031862,226.056338 C622.55984,237.334364 630.029846,249.10922 636.460086,261.400104 C643.176679,274.23833 648.800507,287.71923 653.336376,301.87221 C657.357304,313.897127 660.217348,325.980547 662.093195,338.726186 C664.06523,352.125382 664.405787,354.720695 664.640541,358.237493 C664.888134,361.946637 664.921296,364.948472 664.921296,381.476637 C664.921296,389.827861 665.04175,395.947979 665.294948,403.379886 C665.362471,405.328752 665.362471,405.328752 665.423838,407.083394 C665.468886,408.388899 665.500238,409.361408 665.526208,410.280577 C665.716503,417.01572 665.618414,422.702136 664.997998,433.536289 C664.80231,436.953544 664.637728,440.068672 664.453467,443.759983 C664.346981,445.906815 664.346981,445.906815 664.251738,447.839377 C664.16085,449.668835 664.126667,450.345278 664.076393,451.300402 C663.881874,454.995954 663.724657,457.281544 663.522254,459.327618 C663.061503,463.9853 662.15028,469.221478 659.704732,480.723731 C659.094371,483.594467 656.328236,497.027838 655.810426,499.263977 C655.519683,500.519541 655.278427,501.454647 655.03734,502.27949 C654.10832,505.458001 652.389748,509.693794 646.395774,523.238213 C642.095209,532.956084 639.39322,538.439197 636.793321,542.958077 C636.302227,543.811647 635.788313,544.678149 635.222016,545.608142 C634.790632,546.316574 624.047305,563.109753 618.55904,572.17022 C609.108076,587.772628 607.327103,590.578258 604.812878,593.820487 C602.217284,597.167647 599.522471,600.056518 586.355708,613.605388 C578.265112,621.930778 573.937867,625.812352 570.093268,628.550102 C569.244458,629.154543 568.315747,629.780059 567.202186,630.496217 C567.130488,630.542328 549.675892,641.157711 540.852086,646.922819 C531.458287,653.060337 515.213551,664.643629 516.126865,664.030814 C515.218618,664.640229 514.446117,665.129134 513.670514,665.586404 C509.940302,667.785614 503.891392,670.545036 491.134967,675.593794 C460.750552,687.619385 460.255755,687.745698 427.85815,692.102305 C415.329367,693.787089 409.135278,694.011787 401.185011,693.481973 C400.139652,693.412309 399.008617,693.328177 397.507098,693.209659 L393.069046,692.855571 C382.952632,692.059912 374.981002,691.684869 364.273299,691.684869 L298.305513,691.684869 L298.305513,785.407228 L364.273299,785.407228 C372.249616,785.407228 377.873803,785.67183 385.731078,786.289808 L390.143002,786.641837 C391.992663,786.787834 393.476365,786.8982 394.962095,786.99721 C409.236093,787.948446 421.688221,787.49673 440.330889,784.989792 C480.099058,779.642043 487.967921,777.633249 525.578758,762.747574 C542.487359,756.055462 552.379116,751.542991 561.209314,746.336996 C563.621335,744.914947 565.920711,743.459707 568.282815,741.874782 C569.037391,741.368476 584.64911,730.236557 592.051488,725.40015 C599.269308,720.684327 616.33638,710.304624 617.835329,709.340614 C620.133802,707.862411 622.273787,706.421062 624.392231,704.912511 C633.508943,698.420475 641.792178,690.990344 653.495924,678.946949 C669.647693,662.326446 673.131999,658.591228 678.801919,651.279558 C684.489842,643.944673 686.899601,640.148495 698.647855,620.753538 C703.360719,612.973163 714.025473,596.302805 715.197457,594.378134 C716.155765,592.80437 717.064409,591.272318 717.956191,589.722314 C722.411482,581.978578 726.498887,573.684059 732.028342,561.189299 C739.747599,543.746302 742.422967,537.152278 744.925466,528.590336 C745.698451,525.945679 746.376747,523.316613 747.047074,520.421834 C747.869942,516.868316 750.922877,502.042135 751.308515,500.228352 C754.414576,485.619477 755.848718,477.378441 756.721013,468.56049 C757.09125,464.8178 757.337398,461.23934 757.601053,456.230334 C757.657577,455.156477 757.696509,454.386049 757.791474,452.474019 C757.888023,450.51507 757.888023,450.51507 757.99115,448.435933 C758.164864,444.955925 758.317897,442.05937 758.498911,438.898385 C759.267589,425.47732 759.411463,417.129507 759.143111,407.631676 C759.110706,406.484751 759.073575,405.332994 759.022368,403.848992 C758.958319,402.01714 758.958319,402.01714 758.894881,400.186387 C758.675634,393.751022 758.575613,388.669069 758.575613,381.476637 C758.575613,362.156884 758.538012,358.753268 758.086596,351.990695 C757.617204,344.958842 757.140747,341.327865 754.747963,325.069844 C752.076071,306.915395 747.939959,289.44071 742.328694,272.676783 C736.34814,254.003358 728.651376,235.553414 719.430829,217.929082 C710.206876,200.298242 699.449243,183.476879 687.178644,167.486838 L685.992981,165.941779 L653.285605,129.949751 L651.890761,128.645888 C639.374635,116.946148 626.440157,105.799792 613.089364,95.2091841 C611.883221,94.2524026 597.849777,82.9998591 594.212203,80.1998653 C593.448732,79.6121894 592.695485,79.037869 591.943197,78.4700994 C585.121652,73.3217199 578.006073,68.4336084 566.471233,60.9651881 C563.593382,59.1018765 555.121285,53.5789466 553.502209,52.5330264 C549.179906,49.7408272 546.073913,47.8070909 542.818882,45.9173794 C541.474676,45.1369994 540.134922,44.3829836 538.767125,43.6375365 C532.988389,40.4881331 527.205483,37.7158662 515.581212,32.4230203 C514.840071,32.0855589 504.593174,27.3967105 502.05446,26.2547593 C497.347806,24.1376361 493.69515,22.5760563 489.950894,21.1126606 C486.782272,19.8742439 483.645766,18.7490255 480.317039,17.6589008 C473.853422,15.5421316 466.708513,13.5584261 455.571322,10.7299288 C440.108789,6.80292998 432.100098,5.10791522 423.226033,4.04820423 C419.871495,3.64761654 416.674979,3.37170808 412.392067,3.08081834 C411.361321,3.01081145 410.302093,2.94189687 408.787609,2.84547335 C406.924764,2.72731062 406.924764,2.72731062 404.951587,2.60111739 C401.667136,2.38957351 398.88063,2.19884177 395.812956,1.97064385 C378.190639,0.659755861 373.59496,0.394619843 366.384118,0.460266928 C360.208988,0.516484962 360.84352,0.47503135 340.501352,1.96707636 C313.911603,3.91736506 309.158611,4.57792487 281.436784,10.2349553 C276.11957,11.3200077 273.764582,11.729078 262.767275,13.5476931 C260.837973,13.8667401 259.353176,14.1155567 257.879706,14.3682964 C237.085287,17.9350987 220.892717,22.2968897 197.57515,31.4543636 C180.845918,38.02441 171.477653,42.0952975 162.990016,46.6704489 C159.686903,48.4509497 156.57069,50.2873569 153.423753,52.2966501 C147.933404,55.8021918 127.497,70.5473209 124.914744,72.3543762 C102.859628,87.7884828 85.0235916,103.366036 71.4070338,119.434311 C55.7691453,135.02755 41.907336,151.946118 29.8577405,170.157789 C17.147233,189.368359 7.27309833,208.778537 0.336094056,228.403736 L88.629297,259.658483 C92.9195368,247.521138 99.3249337,234.929666 107.946245,221.899478 C116.798593,208.520104 127.043512,196.107996 138.721144,184.627355 L140.46997,182.90803 L142.029832,181.015358 C149.919665,171.442164 162.104685,160.693484 178.585341,149.160369 C183.241583,145.901944 200.946631,133.127524 203.797961,131.306974 C205.032315,130.518849 206.163715,129.852107 207.403289,129.18393 C211.724049,126.85488 218.325136,123.986443 231.788823,118.698869 C248.884939,111.984736 258.946749,109.274387 273.701547,106.743543 C274.95914,106.527832 276.275703,106.307207 278.036488,106.016028 C290.286231,103.990298 293.24682,103.476033 300.149308,102.067483 C323.979824,97.2045292 324.770313,97.094669 347.347301,95.4387058 C364.184494,94.2037416 364.134904,94.2069813 367.236088,94.1787483 C370.770361,94.1465725 374.235972,94.3465121 388.870416,95.4351383 C392.281114,95.6888531 395.365177,95.8999521 398.936355,96.1299634 C401.007768,96.2624395 401.007768,96.2624395 402.841217,96.3787277 C404.234698,96.4674473 405.179874,96.5289415 406.050396,96.5880662 C408.880814,96.7803045 410.629125,96.9312106 412.128998,97.1103204 C415.997111,97.5722375 420.710728,98.5698597 432.533641,101.572509 C441.787817,103.92278 447.174252,105.418264 451.188541,106.732904 C452.856121,107.279019 454.344515,107.812979 455.88011,108.413147 C459.54337,109.844887 454.05926,107.378053 476.794914,117.730212 C486.466533,122.133962 490.740223,124.182727 493.974549,125.94543 C494.598963,126.285735 495.204318,126.626429 495.822974,126.985591 C497.558964,127.993421 499.527042,129.218712 502.709254,131.274415 C504.122557,132.187406 512.539952,137.674676 515.596875,139.65393 C525.401705,146.002227 530.778893,149.696135 535.550994,153.297751 C536.062407,153.683727 536.580075,154.078429 537.112372,154.48816 C539.882196,156.62021 553.02236,167.156487 554.912103,168.655539 C565.791097,177.285376 576.350658,186.353322 586.592575,195.861449 L614.031862,226.056338 Z" id="Path-3" fill="#00A818"></path>
                    </g>
                    <g id="cucumber" transform="translate(83.136987, 347.781921)">
                        <path d="M457.465315,915.595357 C710.116432,915.595357 914.93063,710.632355 914.93063,457.797679 C914.93063,204.963002 710.116432,0 457.465315,0 C204.814198,0 0,204.963002 0,457.797679 C0,710.632355 204.814198,915.595357 457.465315,915.595357 Z M457.465315,814.663586 C260.516806,814.663586 100.858495,654.889277 100.858495,457.797679 C100.858495,260.706081 260.516806,100.931772 457.465315,100.931772 C654.413824,100.931772 814.072135,260.706081 814.072135,457.797679 C814.072135,654.889277 654.413824,814.663586 457.465315,814.663586 Z" id="Oval" fill="#00A818"></path>
                        <path d="M548.605439,216.522128 C534.8906,215.109496 520.445623,219.901912 510.344349,231.8876 C502.996562,241.726458 498.405355,251.252431 493.507861,261.088191 C478.812286,295.511804 483.712874,332.395131 505.753142,359.445796 C540.035598,352.066652 569.114273,330.090311 583.809848,295.666698 C588.707342,285.830937 591.460829,273.228772 591.460829,263.393012 C592.992262,237.268613 571.468659,218.876515 548.605439,216.522128 Z M370.300161,218.826949 C347.941231,220.964484 326.680601,238.808258 326.680601,263.393012 C326.680601,273.228772 329.434088,285.830937 334.334675,295.666698 C349.027156,330.090311 380.401435,352.066652 414.686985,359.442698 C434.27696,332.398229 439.32605,295.511804 424.633569,261.088191 C419.736075,251.252431 415.144868,241.571564 407.797081,234.195518 C397.695807,222.206733 383.717995,217.544428 370.300161,218.830047 L370.300161,218.826949 Z M250.158422,337.162765 C211.541545,339.151602 194.293581,387.875016 226.435124,413.23424 C236.230111,420.607188 245.718812,425.988201 255.516893,430.90763 C289.796255,445.659722 329.437182,440.588497 358.825238,420.916976 C351.47745,388.953078 326.532098,359.60069 292.246549,344.8455 C280.001268,339.929169 270.054684,337.162765 257.812497,337.162765 C255.055916,336.852977 252.732468,337.029556 250.158422,337.162765 Z M627.432502,486.232621 C605.002414,485.798919 582.281509,492.37881 563.916681,504.671187 C571.261374,536.638183 596.20982,565.990571 630.495369,580.742663 C642.737557,585.658994 652.684141,588.425399 664.929422,588.425399 C709.009959,590.885113 730.58925,536.1766 696.306794,511.588747 C686.508713,504.209604 677.020013,499.599962 667.225025,494.683631 C654.370264,489.150822 640.890555,486.489745 627.432502,486.229524 L627.432502,486.232621 Z M293.010719,488.534344 C279.552666,488.794566 266.07605,491.455643 253.218196,496.988451 C240.972915,501.904783 231.484214,507.285796 224.136427,514.661842 C192.301171,541.706311 213.731959,593.193032 257.809403,590.730219 C270.054684,590.730219 282.451561,587.966913 292.246549,583.047483 C326.532098,568.295392 350.864877,538.943004 355.76237,506.976008 C337.213268,494.563836 315.316826,488.128837 293.010719,488.534344 L293.010719,488.534344 Z M416.985682,563.837546 C382.700133,571.213592 353.621457,593.189934 338.928976,627.613547 C334.031482,637.449307 331.274902,649.283199 331.274902,659.118959 C328.827702,700.918618 385.60831,723.356543 410.098872,691.389547 C417.443565,681.553787 422.034772,672.027814 426.932266,662.192053 C441.627841,630.228155 436.575657,593.344828 416.985682,563.837546 L416.985682,563.837546 Z M508.051839,566.142367 C488.458771,593.189934 483.409681,630.073261 498.102162,664.499972 C502.999656,674.332635 507.590862,684.016599 514.93865,691.389547 C541.876412,720.896829 598.502329,699.072283 596.058223,662.192053 C596.058223,652.356293 593.301643,639.754128 588.404149,629.918367 C573.708574,595.494755 542.337389,573.518413 508.051839,566.142367 Z" id="Shape" fill="#FFFFFF"></path>
                    </g>
                </g>
            </g>
            <path d="M9586.72,1190.64 C9625.97353,1231.6002 9659.2532,1276.61309 9686.56,1325.68 C9713.8668,1374.74691 9735.83992,1425.09308 9752.48,1476.72 C9769.12008,1528.34692 9781.27996,1580.39974 9788.96,1632.88 C9796.64004,1685.36026 9800.48,1735.49309 9800.48,1783.28 C9800.48,1830.21357 9796.64004,1879.70641 9788.96,1931.76 C9781.27996,1983.81359 9768.90675,2036.07974 9751.84,2088.56 C9734.77325,2141.04026 9712.37347,2192.45308 9684.64,2242.8 C9656.90653,2293.14692 9622.98687,2340.07978 9582.88,2383.6 L9475.36,2313.2 C9506.93349,2270.53312 9532.9599,2227.22689 9553.44,2183.28 C9573.9201,2139.33311 9590.13327,2094.96022 9602.08,2050.16 C9614.02673,2005.35978 9622.34664,1960.56022 9627.04,1915.76 C9631.73336,1870.95978 9634.08,1826.80022 9634.08,1783.28 C9634.08,1742.3198 9630.88003,1699.01356 9624.48,1653.36 C9618.07997,1607.70644 9608.48006,1562.05356 9595.68,1516.4 C9582.87994,1470.74644 9566.45343,1426.37355 9546.4,1383.28 C9526.34657,1340.18645 9502.24014,1300.29352 9474.08,1263.6 L9586.72,1190.64 Z M10358.56,1979.12 C10358.56,1935.59978 10349.6001,1905.73341 10331.68,1889.52 C10313.7599,1873.30659 10288.5868,1865.2 10256.16,1865.2 L10256.16,1737.2 C10288.5868,1737.2 10313.7599,1728.45342 10331.68,1710.96 C10349.6001,1693.46658 10358.56,1665.94685 10358.56,1628.4 L10358.56,1360.88 C10358.56,1314.79977 10369.4399,1277.25348 10391.2,1248.24 C10412.9601,1219.22652 10447.7331,1204.72 10495.52,1204.72 L10649.12,1204.72 L10649.12,1345.52 L10585.12,1345.52 C10562.0799,1345.52 10545.2267,1351.49327 10534.56,1363.44 C10523.8933,1375.38673 10518.56,1395.0132 10518.56,1422.32 L10518.56,1671.92 C10518.56,1709.46685 10509.6001,1737.8399 10491.68,1757.04 C10473.7599,1776.2401 10452.8535,1787.97331 10428.96,1792.24 L10428.96,1805.04 C10452.0001,1808.45335 10472.6932,1821.25322 10491.04,1843.44 C10509.3868,1865.62678 10518.56,1894.63982 10518.56,1930.48 L10518.56,2178.8 C10518.56,2206.1068 10523.6799,2225.73327 10533.92,2237.68 C10544.1601,2249.62673 10561.6532,2255.6 10586.4,2255.6 L10649.12,2255.6 L10649.12,2396.4 L10495.52,2396.4 C10451.1464,2396.4 10417.2268,2382.96013 10393.76,2356.08 C10370.2932,2329.19987 10358.56,2291.01358 10358.56,2241.52 L10358.56,1979.12 Z" id="){" fill="#FFFFFF" fill-rule="nonzero"></path>
            <g id="angular" transform="translate(2133.000000, 486.000000)" fill-rule="nonzero">
                <polygon id="Path" fill="#FF0039" points="1162 0 1162 0 1162 0 0 413.672 177.233083 1947.498 1162 2492 1162 2492 1162 2492 2146.76692 1947.498 2324 413.672"></polygon>
                <polygon id="Path" fill="#C3002F" points="1159 0 1159 276.612 1159 275.366 1159 1537.564 1159 1537.564 1159 2492 1159 2492 2146.30934 1947.498 2324 413.672"></polygon>
                <path d="M1169.24957,274 L442,1900 L442,1900 L713.156627,1900 L713.156627,1900 L859.356282,1536.17471 L1476.64372,1536.17471 L1622.84337,1900 L1622.84337,1900 L1894,1900 L1894,1900 L1169.24957,274 L1169.24957,274 L1169.24957,274 L1169.24957,274 L1169.24957,274 Z M1381.67642,1311.89885 L956.822719,1311.89885 L1169.24957,802.294253 L1381.67642,1311.89885 Z" id="Shape" fill="#FFFFFF"></path>
            </g>
            <path d="M4884.76,1843.68 C4884.76,1811.25317 4890.09328,1780.32015 4900.76,1750.88 C4911.42672,1721.43985 4926.3599,1693.92013 4945.56,1668.32 C4964.7601,1642.71987 4987.58653,1618.82678 5014.04,1596.64 C5040.49347,1574.45322 5069.07985,1554.82675 5099.8,1537.76 C5078.46656,1509.59986 5060.9734,1481.01348 5047.32,1452 C5033.6666,1422.98652 5026.84,1392.26683 5026.84,1359.84 C5026.84,1338.50656 5030.89329,1316.96011 5039,1295.2 C5047.10671,1273.43989 5059.90658,1253.81342 5077.4,1236.32 C5094.89342,1218.82658 5117.71986,1204.74672 5145.88,1194.08 C5174.04014,1183.41328 5208.17313,1178.08 5248.28,1178.08 C5287.53353,1178.08 5321.02653,1182.77329 5348.76,1192.16 C5376.49347,1201.54671 5398.89325,1213.91992 5415.96,1229.28 C5433.02675,1244.64008 5445.39996,1262.13324 5453.08,1281.76 C5460.76004,1301.38676 5464.6,1321.4399 5464.6,1341.92 C5464.6,1376.90684 5452.22679,1413.38648 5427.48,1451.36 C5402.73321,1489.33352 5360.49363,1525.81316 5300.76,1560.8 C5330.62682,1606.88023 5360.49318,1649.11981 5390.36,1687.52 C5420.22682,1725.92019 5453.50648,1763.89315 5490.2,1801.44 C5509.82676,1780.10656 5527.53325,1753.44016 5543.32,1721.44 C5559.10675,1689.43984 5572.97327,1656.80017 5584.92,1623.52 L5705.24,1687.52 C5700.11997,1702.88008 5693.08004,1719.73324 5684.12,1738.08 C5675.15996,1756.42676 5665.34672,1774.98657 5654.68,1793.76 C5644.01328,1812.53343 5633.13339,1830.23992 5622.04,1846.88 C5610.94661,1863.52008 5600.70671,1877.81327 5591.32,1889.76 C5618.6268,1914.50679 5642.5199,1933.91993 5663,1948 C5683.4801,1962.08007 5704.38656,1975.09327 5725.72,1987.04 L5637.4,2109.92 C5613.50655,2098.82661 5588.97346,2084.10676 5563.8,2065.76 C5538.62654,2047.41324 5513.66679,2026.29345 5488.92,2002.4 C5458.19985,2030.56014 5419.80023,2055.51989 5373.72,2077.28 C5327.63977,2099.04011 5270.89367,2109.92 5203.48,2109.92 C5159.10644,2109.92 5117.50686,2103.94673 5078.68,2092 C5039.85314,2080.05327 5006.14681,2062.56012 4977.56,2039.52 C4948.97319,2016.47988 4926.36008,1988.5335 4909.72,1955.68 C4893.07992,1922.8265 4884.76,1885.49354 4884.76,1843.68 Z M5389.08,1901.28 C5345.55978,1856.05311 5305.88018,1811.04022 5270.04,1766.24 C5234.19982,1721.43978 5203.05347,1678.98687 5176.6,1638.88 C5135.6398,1670.45349 5104.49344,1700.95985 5083.16,1730.4 C5061.82656,1759.84015 5051.16,1792.90648 5051.16,1829.6 C5051.16,1873.12022 5067.15984,1907.25321 5099.16,1932 C5131.16016,1956.74679 5173.18641,1969.12 5225.24,1969.12 C5259.3735,1969.12 5291.37318,1962.08007 5321.24,1948 C5351.10682,1933.91993 5373.71992,1918.34675 5389.08,1901.28 Z M5193.24,1367.52 C5193.24,1403.36018 5208.59985,1441.7598 5239.32,1482.72 C5272.60017,1461.38656 5296.70659,1441.33343 5311.64,1422.56 C5326.57341,1403.78657 5334.04,1385.86675 5334.04,1368.8 C5334.04,1348.3199 5328.28006,1332.10673 5316.76,1320.16 C5305.23994,1308.21327 5286.68013,1302.24 5261.08,1302.24 C5238.03988,1302.24 5220.97339,1308.21327 5209.88,1320.16 C5198.78661,1332.10673 5193.24,1347.89324 5193.24,1367.52 Z M5926.68,1843.68 C5926.68,1811.25317 5932.01328,1780.32015 5942.68,1750.88 C5953.34672,1721.43985 5968.2799,1693.92013 5987.48,1668.32 C6006.6801,1642.71987 6029.50653,1618.82678 6055.96,1596.64 C6082.41347,1574.45322 6110.99985,1554.82675 6141.72,1537.76 C6120.38656,1509.59986 6102.8934,1481.01348 6089.24,1452 C6075.5866,1422.98652 6068.76,1392.26683 6068.76,1359.84 C6068.76,1338.50656 6072.81329,1316.96011 6080.92,1295.2 C6089.02671,1273.43989 6101.82658,1253.81342 6119.32,1236.32 C6136.81342,1218.82658 6159.63986,1204.74672 6187.8,1194.08 C6215.96014,1183.41328 6250.09313,1178.08 6290.2,1178.08 C6329.45353,1178.08 6362.94653,1182.77329 6390.68,1192.16 C6418.41347,1201.54671 6440.81325,1213.91992 6457.88,1229.28 C6474.94675,1244.64008 6487.31996,1262.13324 6495,1281.76 C6502.68004,1301.38676 6506.52,1321.4399 6506.52,1341.92 C6506.52,1376.90684 6494.14679,1413.38648 6469.4,1451.36 C6444.65321,1489.33352 6402.41363,1525.81316 6342.68,1560.8 C6372.54682,1606.88023 6402.41318,1649.11981 6432.28,1687.52 C6462.14682,1725.92019 6495.42648,1763.89315 6532.12,1801.44 C6551.74676,1780.10656 6569.45325,1753.44016 6585.24,1721.44 C6601.02675,1689.43984 6614.89327,1656.80017 6626.84,1623.52 L6747.16,1687.52 C6742.03997,1702.88008 6735.00004,1719.73324 6726.04,1738.08 C6717.07996,1756.42676 6707.26672,1774.98657 6696.6,1793.76 C6685.93328,1812.53343 6675.05339,1830.23992 6663.96,1846.88 C6652.86661,1863.52008 6642.62671,1877.81327 6633.24,1889.76 C6660.5468,1914.50679 6684.4399,1933.91993 6704.92,1948 C6725.4001,1962.08007 6746.30656,1975.09327 6767.64,1987.04 L6679.32,2109.92 C6655.42655,2098.82661 6630.89346,2084.10676 6605.72,2065.76 C6580.54654,2047.41324 6555.58679,2026.29345 6530.84,2002.4 C6500.11985,2030.56014 6461.72023,2055.51989 6415.64,2077.28 C6369.55977,2099.04011 6312.81367,2109.92 6245.4,2109.92 C6201.02644,2109.92 6159.42686,2103.94673 6120.6,2092 C6081.77314,2080.05327 6048.06681,2062.56012 6019.48,2039.52 C5990.89319,2016.47988 5968.28008,1988.5335 5951.64,1955.68 C5934.99992,1922.8265 5926.68,1885.49354 5926.68,1843.68 Z M6431,1901.28 C6387.47978,1856.05311 6347.80018,1811.04022 6311.96,1766.24 C6276.11982,1721.43978 6244.97347,1678.98687 6218.52,1638.88 C6177.5598,1670.45349 6146.41344,1700.95985 6125.08,1730.4 C6103.74656,1759.84015 6093.08,1792.90648 6093.08,1829.6 C6093.08,1873.12022 6109.07984,1907.25321 6141.08,1932 C6173.08016,1956.74679 6215.10641,1969.12 6267.16,1969.12 C6301.2935,1969.12 6333.29318,1962.08007 6363.16,1948 C6393.02682,1933.91993 6415.63992,1918.34675 6431,1901.28 Z M6235.16,1367.52 C6235.16,1403.36018 6250.51985,1441.7598 6281.24,1482.72 C6314.52017,1461.38656 6338.62659,1441.33343 6353.56,1422.56 C6368.49341,1403.78657 6375.96,1385.86675 6375.96,1368.8 C6375.96,1348.3199 6370.20006,1332.10673 6358.68,1320.16 C6347.15994,1308.21327 6328.60013,1302.24 6303,1302.24 C6279.95988,1302.24 6262.89339,1308.21327 6251.8,1320.16 C6240.70661,1332.10673 6235.16,1347.89324 6235.16,1367.52 Z" id="&amp;&amp;" fill="#FFFFFF" fill-rule="nonzero"></path>
            <path d="M589.32,1438 L755.72,1438 L755.72,2078 L589.32,2078 L589.32,1438 Z M565,1257.52 C565,1232.77321 574.173242,1211.65342 592.52,1194.16 C610.866758,1176.66658 636.253171,1167.92 668.68,1167.92 C701.106829,1167.92 727.346566,1176.66658 747.4,1194.16 C767.453434,1211.65342 777.48,1232.77321 777.48,1257.52 C777.48,1282.26679 767.453434,1302.95992 747.4,1319.6 C727.346566,1336.24008 701.106829,1344.56 668.68,1344.56 C636.253171,1344.56 610.866758,1336.24008 592.52,1319.6 C574.173242,1302.95992 565,1282.26679 565,1257.52 Z M859.4,1438 L947.72,1438 L947.72,1402.16 C947.72,1321.09293 964.786496,1262.42685 998.92,1226.16 C1033.0535,1189.89315 1082.54634,1171.76 1147.4,1171.76 C1215.66701,1171.76 1272.41311,1179.86659 1317.64,1196.08 L1285.64,1329.2 C1266.01324,1322.3733 1248.73341,1317.89334 1233.8,1315.76 C1218.86659,1313.62666 1203.29341,1312.56 1187.08,1312.56 C1170.01325,1312.56 1156.57338,1315.11997 1146.76,1320.24 C1136.94662,1325.36003 1129.69336,1333.25328 1125,1343.92 C1120.30664,1354.58672 1117.32001,1367.81325 1116.04,1383.6 C1114.75999,1399.38675 1114.12,1417.5199 1114.12,1438 L1254.92,1438 L1254.92,1578.8 L1114.12,1578.8 L1114.12,2078 L947.72,2078 L947.72,1578.8 L859.4,1578.8 L859.4,1438 Z M1870.6,2359.6 C1831.34647,2318.6398 1798.0668,2273.62691 1770.76,2224.56 C1743.4532,2175.49309 1721.48008,2125.14692 1704.84,2073.52 C1688.19992,2021.89308 1676.04004,1969.84026 1668.36,1917.36 C1660.67996,1864.87974 1656.84,1814.74691 1656.84,1766.96 C1656.84,1720.02643 1660.67996,1670.53359 1668.36,1618.48 C1676.04004,1566.42641 1688.41325,1514.16026 1705.48,1461.68 C1722.54675,1409.19974 1744.94653,1357.78692 1772.68,1307.44 C1800.41347,1257.09308 1834.33313,1210.16022 1874.44,1166.64 L1981.96,1235.76 C1952.09318,1275.86687 1927.13343,1317.67978 1907.08,1361.2 C1887.02657,1404.72022 1870.8134,1449.30644 1858.44,1494.96 C1846.0666,1540.61356 1837.10669,1586.47977 1831.56,1632.56 C1826.01331,1678.64023 1823.24,1723.43978 1823.24,1766.96 C1823.24,1807.9202 1826.22664,1851.43977 1832.2,1897.52 C1838.17336,1943.60023 1847.55994,1989.46644 1860.36,2035.12 C1873.16006,2080.77356 1889.7999,2125.35978 1910.28,2168.88 C1930.7601,2212.40022 1955.50652,2252.07982 1984.52,2287.92 L1870.6,2359.6 Z" id="if(" fill="#FFFFFF" fill-rule="nonzero"></path>
            <g id="cucumber" transform="translate(7126.000000, 495.000000)" fill-rule="nonzero">
                <path d="M1095.93809,0 C490.210945,0 0,491.56657 0,1098.9713 C0,1633.75689 382.28625,2078.10534 886.790566,2176.9643 L886.790566,2491.55402 C1542.6843,2392.39853 2123.44253,1870.30498 2166.78016,1184.96029 C2192.859,772.435125 1987.75294,351.301746 1641.81438,146.805715 C1622.00531,135.104977 1601.88275,123.480492 1581.15864,113.253996 C1560.04478,102.832629 1538.36325,92.6823867 1516.32587,83.8877695 C1509.32746,80.9562305 1502.47308,78.2958164 1495.40688,75.4998398 C1476.16548,68.3828086 1456.74615,60.3592031 1436.85236,54.5300156 C1329.60547,19.0888945 1214.97043,0 1095.93809,0 Z" id="Path" fill="#00A818"></path>
                <path d="M1322.97138,406.068996 C1285.4121,402.205465 1245.85327,415.312664 1218.19004,448.093371 C1198.06748,475.002527 1185.49406,501.055945 1172.08185,527.956629 C1131.83673,622.104785 1145.25742,722.98023 1205.61662,796.963465 C1299.50212,776.781598 1379.13662,716.676574 1419.38174,622.528418 C1432.79395,595.627734 1440.33462,561.160969 1440.33462,534.260285 C1444.52858,462.810375 1385.58431,412.508215 1322.97138,406.068996 Z M834.666785,412.372652 C773.434898,418.218785 715.210805,467.021285 715.210805,534.260285 C715.210805,561.160969 722.751469,595.627734 736.172156,622.528418 C776.408801,716.676574 862.330008,776.781598 956.223984,796.954992 C1009.87284,722.988703 1023.70022,622.104785 983.463574,527.956629 C970.051359,501.055945 957.477937,474.578895 937.355379,454.4055 C909.692156,421.61632 871.412695,408.864973 834.666785,412.381125 L834.666785,412.372652 Z M505.648125,736.019648 C399.89243,741.459094 352.657371,874.717031 440.679797,944.074195 C467.504227,964.239117 493.489863,978.956121 520.322766,992.410699 C614.199797,1032.75749 722.759941,1018.88775 803.241703,965.086383 C783.119145,877.665516 714.804117,797.387098 620.910141,757.031836 C587.375367,743.58573 560.135777,736.019648 526.609477,736.019648 C519.06034,735.172383 512.697375,735.655324 505.648125,736.019648 Z M1538.84619,1143.72387 C1477.41943,1142.5377 1415.19625,1160.53362 1364.90256,1194.15312 C1385.01664,1281.58246 1453.34014,1361.86088 1547.23412,1402.20766 C1580.76042,1415.65377 1608.00001,1423.21985 1641.53479,1423.21985 C1762.25319,1429.94714 1821.34997,1280.32003 1727.46446,1213.07256 C1700.63156,1192.89069 1674.64593,1180.28338 1647.8215,1166.83727 C1612.61761,1151.70511 1575.70225,1144.4271 1538.84619,1143.71539 L1538.84619,1143.72387 Z M623.002887,1150.01905 C586.146832,1150.73075 549.239941,1158.00877 514.027582,1173.14093 C480.492809,1186.58704 454.507172,1201.30404 434.384613,1221.47743 C347.20098,1295.44372 405.89107,1436.25927 526.601004,1429.52351 C560.135777,1429.52351 594.085711,1421.9659 620.910141,1408.51132 C714.804117,1368.16453 781.441559,1287.88611 794.853773,1200.45677 C744.055435,1166.50964 684.090113,1148.90999 623.002887,1150.01905 L623.002887,1150.01905 Z M962.519168,1355.97238 C868.625191,1376.14577 788.990695,1436.2508 748.754051,1530.39895 C735.341836,1557.29964 727.792699,1589.66518 727.792699,1616.56587 C721.090828,1730.88742 876.589488,1792.25487 943.659035,1704.82553 C963.773121,1677.92484 976.346543,1651.87143 989.758758,1624.97074 C1030.00388,1537.54987 1016.16803,1436.67443 962.519168,1355.97238 L962.519168,1355.97238 Z M1211.9118,1362.27604 C1158.25447,1436.2508 1144.4271,1537.12624 1184.66374,1631.28287 C1198.07596,1658.17508 1210.64938,1684.66061 1230.77194,1704.82553 C1304.54336,1785.52758 1459.61838,1725.83771 1452.92498,1624.97074 C1452.92498,1598.07006 1445.37585,1563.60329 1431.96363,1536.70261 C1391.71852,1442.55445 1305.80578,1382.44943 1211.9118,1362.27604 Z" id="Shape" fill="#FFFFFF"></path>
            </g>
        </g>
    </g>
</svg>