<?xml version="1.0" encoding="UTF-8"?>
<svg width="9497px" height="5629px" viewBox="0 0 9497 5629" version="1.1" xmlns="http://www.w3.org/2000/svg" xmlns:xlink="http://www.w3.org/1999/xlink">
    <!-- Generator: Sketch 55.2 (78181) - https://sketchapp.com -->
    <title>Mashup</title>
    <desc>Created with Sketch.</desc>
    <defs>
        <rect id="path-1" x="0" y="0" width="1199" height="2883.61739"></rect>
    </defs>
    <g id="Mashup" stroke="none" stroke-width="1" fill="none" fill-rule="evenodd">
        <g transform="translate(-126.000000, 0.000000)">
            <g id="Logo" transform="translate(1149.000000, 2224.000000)">
                <g id="icon" transform="translate(498.000000, 520.000000)">
                    <g id="jar">
                        <path d="M2361.94615,1131.00736 C2332.95304,1014.94047 2284.63117,918.21806 2207.31619,827.943813 C2133.22267,737.669565 2023.69312,650.619398 2010.80729,528.104348 C2033.35749,521.656187 2055.90769,511.983946 2078.45789,502.311706 C2104.22955,492.639465 2123.5583,473.294983 2123.5583,441.054181 C2123.5583,350.779933 2123.5583,263.729766 2123.5583,173.455518 C2123.5583,144.438796 2104.22955,121.870234 2078.45789,112.197993 C1917.38502,57.3886288 1743.42632,34.8200669 1575.91053,18.6996656 C1153.8996,-23.2133779 728.667206,18.6996656 319.542105,121.870234 C271.220243,134.766555 267.998785,189.57592 293.770445,218.592642 C287.32753,292.746488 284.106073,366.900334 280.884615,441.054181 C280.884615,463.622742 296.991903,482.967224 319.542105,489.415385 C354.978138,502.311706 393.635628,511.983946 432.293117,521.656187 C406.521457,657.067559 290.548988,757.014047 206.791093,860.184615 C129.476113,953.682943 65.0469636,1053.62943 36.0538462,1172.9204 C-9.0465587,1356.69298 -5.82510121,1537.24147 39.2753036,1711.34181 C123.033198,2030.52575 239.005668,2385.17458 435.514575,2655.99732 C503.165182,2749.49565 583.701619,2826.87358 696.452632,2859.11438 C828.532389,2897.80334 979.940891,2881.68294 1115.24211,2881.68294 C1263.42915,2878.45886 1414.83765,2878.45886 1563.0247,2875.23478 C1672.55425,2872.0107 1788.52672,2868.78662 1875.50607,2794.63278 C1994.7,2697.91037 2052.68623,2523.81003 2117.11538,2388.39866 C2197.65182,2220.74649 2278.18826,2046.64615 2329.73158,1866.09766 C2397.38219,1633.96388 2416.71093,1366.36522 2361.94615,1131.00736 Z M1572.68907,144.438796 C1691.883,157.335117 1817.51984,173.455518 1936.71377,205.696321 C1682.21862,279.850167 1401.95182,289.522408 1137.79231,286.298328 C992.826721,283.074247 844.639676,273.402007 699.674089,257.281605 C612.694737,247.609365 525.715385,228.264883 438.736032,215.368562 C812.425101,134.766555 1192.55709,105.749833 1572.68907,144.438796 Z M383.971255,405.589298 C383.971255,376.572575 383.971255,347.555853 380.749798,318.53913 C470.950607,350.779933 570.815789,360.452174 661.016599,373.348495 C818.868016,392.692977 979.940891,402.365217 1137.79231,405.589298 C1421.28057,408.813378 1724.09757,399.141137 1997.92146,308.86689 C1997.92146,341.107692 1997.92146,370.124415 1997.92146,402.365217 C1749.86923,492.639465 1469.60243,505.535786 1208.66437,502.311706 C931.619028,499.087625 651.352227,470.070903 383.971255,405.589298 Z M1079.80607,721.549164 C909.068826,724.773244 738.331579,734.445485 570.815789,760.238127 C538.601215,763.462207 490.279352,769.910368 441.95749,779.582609 C490.279352,711.876923 522.493927,637.723077 522.493927,550.67291 C747.995951,602.258194 979.940891,621.602676 1208.66437,624.826756 C1421.28057,628.050836 1646.78259,621.602676 1859.39879,573.241472 C1878.72753,660.291639 1923.82794,724.773244 1978.59271,786.030769 C1682.21862,734.445485 1376.18016,718.325084 1079.80607,721.549164 Z M1869.06316,905.321739 C1582.35344,969.803344 1279.53644,976.251505 989.605263,960.131104 C834.975304,950.458863 677.123887,931.114381 525.715385,895.649498 C554.708502,889.201338 586.923077,885.977258 615.916194,882.753177 C776.989069,863.408696 941.283401,856.960535 1102.35628,856.960535 C1350.4085,856.960535 1621.01093,856.960535 1869.06316,905.321739 Z M2255.63806,1604.94716 C2220.20202,1927.35518 2055.90769,2223.97057 1904.49919,2504.46555 C1856.17733,2594.7398 1804.63401,2685.01405 1695.10445,2701.13445 C1569.46761,2720.47893 1434.1664,2704.35853 1308.52955,2704.35853 C1179.67126,2704.35853 1047.5915,2701.13445 918.733198,2701.13445 C780.210526,2701.13445 673.902429,2694.68629 577.258704,2581.84348 C477.393522,2465.77659 416.18583,2320.69298 361.421053,2178.83344 C296.991903,2024.07759 239.005668,1869.32174 190.683806,1708.11773 C135.919028,1524.34515 119.811741,1337.34849 181.019433,1150.35184 C210.012551,1066.52575 261.55587,995.595987 319.542105,927.890301 C354.978138,947.234783 390.41417,960.131104 429.07166,973.027425 C599.808907,1031.06087 783.431984,1053.62943 960.612146,1069.74983 C1343.96559,1105.21472 1762.75506,1089.09431 2130.00121,963.355184 C2133.22267,963.355184 2136.44413,960.131104 2139.66559,960.131104 C2142.88704,963.355184 2142.88704,963.355184 2146.1085,966.579264 C2284.63117,1143.90368 2278.18826,1392.15786 2255.63806,1604.94716 Z" id="Shape" fill="#C3002F" fill-rule="nonzero"></path>
                        <g id="jar-left">
                            <mask id="mask-2" fill="white">
                                <use xlink:href="#path-1"></use>
                            </mask>
                            <g id="Mask"></g>
                            <path d="M2361.94615,1131.00736 C2332.95304,1014.94047 2284.63117,918.21806 2207.31619,827.943813 C2133.22267,737.669565 2023.69312,650.619398 2010.80729,528.104348 C2033.35749,521.656187 2055.90769,511.983946 2078.45789,502.311706 C2104.22955,492.639465 2123.5583,473.294983 2123.5583,441.054181 C2123.5583,350.779933 2123.5583,263.729766 2123.5583,173.455518 C2123.5583,144.438796 2104.22955,121.870234 2078.45789,112.197993 C1917.38502,57.3886288 1743.42632,34.8200669 1575.91053,18.6996656 C1153.8996,-23.2133779 728.667206,18.6996656 319.542105,121.870234 C271.220243,134.766555 267.998785,189.57592 293.770445,218.592642 C287.32753,292.746488 284.106073,366.900334 280.884615,441.054181 C280.884615,463.622742 296.991903,482.967224 319.542105,489.415385 C354.978138,502.311706 393.635628,511.983946 432.293117,521.656187 C406.521457,657.067559 290.548988,757.014047 206.791093,860.184615 C129.476113,953.682943 65.0469636,1053.62943 36.0538462,1172.9204 C-9.0465587,1356.69298 -5.82510121,1537.24147 39.2753036,1711.34181 C123.033198,2030.52575 239.005668,2385.17458 435.514575,2655.99732 C503.165182,2749.49565 583.701619,2826.87358 696.452632,2859.11438 C828.532389,2897.80334 979.940891,2881.68294 1115.24211,2881.68294 C1263.42915,2878.45886 1414.83765,2878.45886 1563.0247,2875.23478 C1672.55425,2872.0107 1788.52672,2868.78662 1875.50607,2794.63278 C1994.7,2697.91037 2052.68623,2523.81003 2117.11538,2388.39866 C2197.65182,2220.74649 2278.18826,2046.64615 2329.73158,1866.09766 C2397.38219,1633.96388 2416.71093,1366.36522 2361.94615,1131.00736 Z M1572.68907,144.438796 C1691.883,157.335117 1817.51984,173.455518 1936.71377,205.696321 C1682.21862,279.850167 1401.95182,289.522408 1137.79231,286.298328 C992.826721,283.074247 844.639676,273.402007 699.674089,257.281605 C612.694737,247.609365 525.715385,228.264883 438.736032,215.368562 C812.425101,134.766555 1192.55709,105.749833 1572.68907,144.438796 Z M383.971255,405.589298 C383.971255,376.572575 383.971255,347.555853 380.749798,318.53913 C470.950607,350.779933 570.815789,360.452174 661.016599,373.348495 C818.868016,392.692977 979.940891,402.365217 1137.79231,405.589298 C1421.28057,408.813378 1724.09757,399.141137 1997.92146,308.86689 C1997.92146,341.107692 1997.92146,370.124415 1997.92146,402.365217 C1749.86923,492.639465 1469.60243,505.535786 1208.66437,502.311706 C931.619028,499.087625 651.352227,470.070903 383.971255,405.589298 Z M1079.80607,721.549164 C909.068826,724.773244 738.331579,734.445485 570.815789,760.238127 C538.601215,763.462207 490.279352,769.910368 441.95749,779.582609 C490.279352,711.876923 522.493927,637.723077 522.493927,550.67291 C747.995951,602.258194 979.940891,621.602676 1208.66437,624.826756 C1421.28057,628.050836 1646.78259,621.602676 1859.39879,573.241472 C1878.72753,660.291639 1923.82794,724.773244 1978.59271,786.030769 C1682.21862,734.445485 1376.18016,718.325084 1079.80607,721.549164 Z M1869.06316,905.321739 C1582.35344,969.803344 1279.53644,976.251505 989.605263,960.131104 C834.975304,950.458863 677.123887,931.114381 525.715385,895.649498 C554.708502,889.201338 586.923077,885.977258 615.916194,882.753177 C776.989069,863.408696 941.283401,856.960535 1102.35628,856.960535 C1350.4085,856.960535 1621.01093,856.960535 1869.06316,905.321739 Z M2255.63806,1604.94716 C2220.20202,1927.35518 2055.90769,2223.97057 1904.49919,2504.46555 C1856.17733,2594.7398 1804.63401,2685.01405 1695.10445,2701.13445 C1569.46761,2720.47893 1434.1664,2704.35853 1308.52955,2704.35853 C1179.67126,2704.35853 1047.5915,2701.13445 918.733198,2701.13445 C780.210526,2701.13445 673.902429,2694.68629 577.258704,2581.84348 C477.393522,2465.77659 416.18583,2320.69298 361.421053,2178.83344 C296.991903,2024.07759 239.005668,1869.32174 190.683806,1708.11773 C135.919028,1524.34515 119.811741,1337.34849 181.019433,1150.35184 C210.012551,1066.52575 261.55587,995.595987 319.542105,927.890301 C354.978138,947.234783 390.41417,960.131104 429.07166,973.027425 C599.808907,1031.06087 783.431984,1053.62943 960.612146,1069.74983 C1343.96559,1105.21472 1762.75506,1089.09431 2130.00121,963.355184 C2133.22267,963.355184 2136.44413,960.131104 2139.66559,960.131104 C2142.88704,963.355184 2142.88704,963.355184 2146.1085,966.579264 C2284.63117,1143.90368 2278.18826,1392.15786 2255.63806,1604.94716 Z" id="Shape" fill="#FF0039" fill-rule="nonzero" mask="url(#mask-2)"></path>
                        </g>
                    </g>
                    <g id="slices" transform="translate(465.153846, 1154.417391)" fill-rule="nonzero">
                        <g id="cucumber">
                            <path d="M561.250109,220.568215 C547.568329,219.167249 533.15817,223.920087 523.081244,235.806788 C515.751168,245.564391 511.171028,255.011692 506.285339,264.766222 C491.625187,298.905541 496.513962,335.484262 518.501104,362.311524 C552.700925,354.993322 581.709509,333.198476 596.369662,299.059156 C601.255351,289.304626 604.0022,276.806538 604.0022,267.052008 C605.529942,241.143361 584.05822,222.903158 561.250109,220.568215 Z M383.37462,222.854001 C361.069584,224.973883 339.860201,242.670291 339.860201,267.052008 C339.860201,276.806538 342.60705,289.304626 347.495826,299.059156 C362.152892,333.198476 393.451546,354.993322 427.654453,362.308452 C447.197208,335.487334 452.234128,298.905541 437.577062,264.766222 C432.691373,255.011692 428.111233,245.410776 420.781157,238.095646 C410.704231,226.205873 396.760111,221.582072 383.37462,222.857073 L383.37462,222.854001 Z M263.522472,340.212521 C224.998677,342.184933 207.792288,390.505957 239.856356,415.655747 C249.627733,422.967804 259.093562,428.304377 268.868026,433.183179 C303.064761,447.813438 342.610137,442.784094 371.927356,423.275034 C364.597279,391.575115 339.712056,362.465139 305.509149,347.831807 C293.293384,342.956078 283.370775,340.212521 271.158096,340.212521 C268.40816,339.905291 266.090313,340.080412 263.522472,340.212521 Z" id="Shape" fill="#FFFFFF"></path>
                            <path d="M643.065552,155.887359 C708.885018,190.437279 723.596378,201.652926 773.761702,251.730421 C805.002541,282.916563 835.156333,329.895583 849.436436,361.014436 L940.886889,319.068902 C922.007905,277.92828 885.630989,221.253754 844.853682,180.54784 C787.891468,123.685355 765.194758,106.381838 689.838147,66.8256843 C632.586926,36.7734024 571.70647,15.5782366 507.353165,3.27740494 L504.735853,2.77711793 L502.080322,2.55605834 C424.303405,-3.91847999 356.057413,5.58989244 297.892923,31.8147289 C284.519978,37.8442378 241.418831,56.4064446 232.294807,60.808069 C225.978801,63.8550456 220.271385,66.8632569 214.641121,70.1468846 C197.906624,79.906616 182.382566,91.6525418 154.648135,115.047069 C124.507251,140.471486 109.935853,153.965275 97.2254667,169.025362 C91.0619935,176.328244 85.6112522,183.765776 80.1899286,192.181646 C73.1924451,203.04429 72.2960725,204.641675 52.5094516,240.698702 C18.4445452,302.774951 15.1945117,312.929564 5.88346028,384.338026 C0.797868183,423.34053 -0.523682314,440.075806 0.767446157,459.894815 C1.94988328,478.045395 3.71566269,487.120799 13.9786378,533.066316 C28.7739185,599.302161 35.2017928,614.640814 78.0710279,689.776085 C110.132413,745.96885 138.613286,778.49625 174.012599,788.023141 L200.166316,690.88962 C202.358451,691.479581 203.228467,691.932632 203.061604,691.807828 C201.142773,690.372652 198.437352,687.791337 195.17052,684.060358 C186.792386,674.49187 176.743664,659.698412 165.467434,639.934994 C127.210242,572.883074 124.546599,566.526901 112.175208,511.142379 C103.333535,471.55978 101.863846,464.006161 101.170104,453.357117 C100.438377,442.124999 101.395297,430.007168 105.654671,397.341111 C113.37329,338.145357 112.779383,340.000996 140.721318,289.082597 C158.661797,256.389783 159.72569,254.493868 164.780479,246.646992 C167.93459,241.750662 170.84135,237.784391 174.123952,233.894952 C182.086422,224.460503 193.552099,213.842755 219.53078,191.929237 C243.154373,172.00228 254.853664,163.150278 265.339374,157.034903 C268.579677,155.145125 271.977213,153.354384 276.020955,151.403596 C282.829994,148.11877 324.149851,130.323705 339.25678,123.512388 C380.135064,105.081447 430.56825,97.8721966 491.083561,102.587081 C544.775848,113.104938 595.386848,130.859878 643.065552,155.887359 Z" id="Path-2" fill="#00A818"></path>
                        </g>
                        <g id="cucumber" transform="translate(741.538462, 212.243478)">
                            <path d="M507.250109,217.889954 C493.568329,216.488988 479.15817,221.241826 469.081244,233.128527 C461.751168,242.88613 457.171028,252.333431 452.285339,262.087961 C437.625187,296.227281 442.513962,332.806001 464.501104,359.633263 C498.700925,352.315061 527.709509,330.520215 542.369662,296.380895 C547.255351,286.626365 550.0022,274.128277 550.0022,264.373747 C551.529942,238.4651 530.05822,220.224897 507.250109,217.889954 Z M329.37462,220.17574 C307.069584,222.295622 285.860201,239.99203 285.860201,264.373747 C285.860201,274.128277 288.60705,286.626365 293.495826,296.380895 C308.152892,330.520215 339.451546,352.315061 373.654453,359.630191 C393.197208,332.809073 398.234128,296.227281 383.577062,262.087961 C378.691373,252.333431 374.111233,242.732515 366.781157,235.417386 C356.704231,223.527612 342.760111,218.903811 329.37462,220.178812 L329.37462,220.17574 Z M585.887167,485.372998 C563.511145,484.942877 540.845006,491.468427 522.524445,503.659286 C529.851435,535.362277 554.739744,564.472253 588.942652,579.102512 C601.15533,583.978241 611.077939,586.721799 623.293704,586.721799 C667.267989,589.1612 688.795266,534.904506 654.595444,510.519716 C644.820981,503.201514 635.355152,498.629942 625.583774,493.754213 C612.759999,488.267098 599.312781,485.627998 585.887167,485.369926 L585.887167,485.372998 Z M466.794261,564.622796 C447.248419,591.446986 442.2115,628.025706 456.868566,662.168098 C461.754254,671.919556 466.334395,681.523544 473.664471,688.835601 C500.537302,718.099192 557.026728,696.454887 554.588513,659.879239 C554.588513,650.124709 551.838577,637.626621 546.952888,627.872091 C532.292736,593.732772 500.997168,571.937925 466.794261,564.622796 Z" id="Shape" fill="#FFFFFF"></path>
                            <path d="M714.798018,263.270575 C724.723344,276.383888 733.417345,290.074881 740.901208,304.365875 C748.718346,319.293281 755.263663,334.967944 760.542756,351.424057 C765.22253,365.405803 768.551205,379.455572 770.734418,394.275324 C773.02958,409.854987 773.425939,412.872639 773.699158,416.961731 C773.987321,421.274467 774.025917,424.764795 774.025917,443.982609 C774.025917,453.692837 774.166107,460.80889 774.460793,469.4502 C774.53938,471.716207 774.53938,471.716207 774.610803,473.756384 C774.663232,475.274336 774.699721,476.405102 774.729946,477.473848 C774.951422,485.305009 774.837261,491.916783 774.115187,504.513991 C773.887434,508.48734 773.695884,512.109396 773.481432,516.401399 C773.357498,518.897588 773.357498,518.897588 773.246648,521.144638 C773.140868,523.271806 773.101084,524.058327 773.042572,525.16888 C772.81618,529.465814 772.633203,532.12334 772.397635,534.502375 C771.861388,539.918007 770.800857,546.006274 767.954595,559.380303 C767.244224,562.718198 764.024845,578.337597 763.42219,580.937626 C763.083806,582.397509 762.803019,583.484786 762.52243,584.443857 C761.441185,588.13961 759.441018,593.064699 752.464904,608.813218 C747.459672,620.11249 744.31495,626.487876 741.289046,631.742119 C740.717484,632.734592 740.119363,633.742101 739.460275,634.823432 C738.958207,635.647149 726.454537,655.173102 720.066995,665.70799 C709.067448,683.849397 706.994654,687.11159 704.068462,690.881432 C701.047568,694.773279 697.911198,698.132259 682.587002,713.885953 C673.170724,723.566144 668.134441,728.079372 663.659887,731.26264 C662.671995,731.965441 661.591111,732.692749 660.295088,733.525448 C660.211642,733.579062 639.897032,745.9219 629.627405,752.625171 C618.694389,759.761455 599.78788,773.22971 600.850845,772.51717 C599.793777,773.225757 598.894698,773.794221 597.99201,774.325903 C593.650585,776.882994 586.610534,780.09146 571.763912,785.961808 C536.400872,799.944338 535.825,800.091207 498.118902,805.156769 C483.537221,807.115721 476.328202,807.376984 467.075248,806.760952 C465.858602,806.679952 464.542242,806.582129 462.794692,806.444324 L457.629445,806.032615 C445.855411,805.107477 436.577594,804.671403 424.115385,804.671403 L347.338478,804.671403 L347.338478,913.645317 L424.115385,913.645317 C433.398657,913.645317 439.944393,913.952978 449.089118,914.671519 L454.223956,915.080834 C456.376692,915.25059 458.103505,915.378915 459.832678,915.494038 C476.445536,916.600069 490.938002,916.074845 512.635355,913.159951 C558.919719,906.941956 568.07793,904.606268 611.851473,887.298229 C631.530626,879.517101 643.043191,874.27031 653.320257,868.217137 C656.127498,866.563677 658.803638,864.871624 661.552783,863.028782 C662.431,862.440085 680.600769,849.496654 689.216061,843.873213 C697.616553,838.389979 717.480142,826.321174 719.224701,825.200289 C721.899788,823.481536 724.390421,821.805635 726.855981,820.051596 C737.466508,812.503102 747.106988,803.863858 760.728446,789.860626 C779.526755,770.535449 783.581981,766.192394 790.180943,757.690888 C796.800857,749.162388 799.605467,744.748452 813.278724,722.19733 C818.763813,713.150846 831.176035,693.7677 832.540054,691.529825 C833.655385,689.69996 834.712915,687.918596 835.750819,686.116357 C840.93613,677.112475 845.693274,667.468178 852.128755,652.940131 C861.112848,632.658614 864.226587,624.991536 867.139132,615.036299 C868.038774,611.961273 868.828211,608.904377 869.608375,605.538526 C870.566073,601.40674 874.119246,584.167877 874.568072,582.058934 C878.183075,565.07274 879.852208,555.490629 880.867433,545.237722 C881.298335,540.88598 881.584816,536.725193 881.891671,530.901066 C881.957457,529.652459 882.002768,528.756658 882.113294,526.53348 C882.225663,524.255749 882.225663,524.255749 882.345688,521.838272 C882.547865,517.791958 882.725974,514.424044 882.936647,510.748667 C883.831277,495.143577 883.998725,485.437314 883.686402,474.393888 C883.648687,473.060324 883.605473,471.721139 883.545876,469.995644 C883.471331,467.865692 883.471331,467.865692 883.397498,465.737019 C883.142327,458.254419 883.025917,452.345473 883.025917,443.982609 C883.025917,421.518928 882.982155,417.561438 882.456772,409.698384 C881.910468,401.522228 881.355942,397.300378 878.571089,378.396669 C875.461396,357.287925 870.647563,336.969563 864.116866,317.477622 C857.156372,295.765448 848.198459,274.313122 837.467083,253.820761 C826.731744,233.320832 814.211424,213.762108 799.930232,195.169989 L798.550293,193.373501 L760.483665,151.524446 L758.86027,150.008404 C744.29332,136.404751 729.239468,123.444535 713.701088,111.130504 C712.297313,110.018025 695.964425,96.934341 691.730818,93.6787008 C690.842249,92.9953918 689.96558,92.3276114 689.090026,91.6674481 C681.150739,85.6812665 672.869242,79.9977066 659.444366,71.3139412 C656.094966,69.1474107 646.234677,62.7257276 644.350308,61.5096035 C639.319776,58.2630264 635.704853,56.0146108 631.916469,53.8173843 C630.352009,52.9100121 628.79273,52.0332944 627.200814,51.1665397 C620.475205,47.5046301 613.744745,44.2812288 600.215784,38.1270717 C599.353204,37.7346948 587.427306,32.2828244 584.472613,30.955042 C578.994752,28.4933968 574.743591,26.6776992 570.385823,24.9761634 C566.698007,23.5362176 563.047571,22.227891 559.173417,20.9603691 C551.650707,18.4991354 543.335072,16.1926191 530.373002,12.903837 C512.376863,8.33779289 503.055911,6.36694631 492.727791,5.13478727 C488.823597,4.66901145 485.103317,4.34820408 480.11863,4.00997749 C478.918992,3.9285783 477.686205,3.84844916 475.923566,3.73633453 C473.755485,3.59894304 473.755485,3.59894304 471.458995,3.45221423 C467.636372,3.20624555 464.393283,2.9844758 460.822958,2.71914295 C440.313144,1.19493257 434.964442,0.886650645 426.572072,0.962980559 C419.385118,1.02834702 420.123621,0.980147614 396.448296,2.71499493 C365.501697,4.98265648 359.969905,5.75071 327.705732,12.3283158 C321.517269,13.5899402 318.776405,14.0655789 305.977139,16.1801395 C303.731712,16.5511055 302.003625,16.8404123 300.28872,17.1342806 C276.087041,21.281513 257.241246,26.3531035 230.10299,37.0007843 C210.632598,44.6399823 199.7293,49.3733303 189.850926,54.6930017 C186.006582,56.7632455 182.379764,58.8984936 178.717187,61.2347615 C172.32722,65.3107642 148.542217,82.4553861 145.536847,84.5565058 C119.867901,102.502223 99.1093493,120.61473 83.2616569,139.297816 C65.0614297,157.428561 48.9283002,177.100308 34.9043239,198.275587 C20.1111422,220.612316 8.61908591,243.181136 0.545422095,265.999968 L103.305866,302.340838 C108.299081,288.228368 115.754031,273.58787 125.787984,258.437264 C136.090828,242.880648 148.014423,228.448703 161.605489,215.099803 L163.640868,213.10069 L165.456321,210.900021 C174.638938,199.76897 188.820529,187.271145 208.001614,173.861231 C213.420803,170.072559 234.026903,155.219342 237.345436,153.102531 C238.782045,152.186154 240.09883,151.410912 241.541514,150.634002 C246.57025,147.925943 254.252954,144.590721 269.922728,138.442694 C289.82012,130.635963 301.530603,127.484555 318.703041,124.541863 C320.166697,124.291049 321.698985,124.034522 323.748282,123.695959 C338.005201,121.34058 341.450896,120.742627 349.484387,119.104862 C377.219642,113.450554 378.139656,113.322816 404.415985,111.397376 C424.012029,109.961445 423.954313,109.965212 427.56364,109.932384 C431.67702,109.894973 435.710487,110.127449 452.742851,111.393228 C456.712407,111.68823 460.301808,111.933682 464.458139,112.201123 C466.868962,112.355157 466.868962,112.355157 469.002831,112.490369 C470.62464,112.593526 471.724687,112.665028 472.737848,112.733774 C476.032043,112.957295 478.066823,113.132758 479.812457,113.341015 C484.314378,113.8781 489.800341,115.038067 503.560493,118.529341 C514.331008,121.262074 520.600035,123.000921 525.272083,124.529493 C527.212903,125.164478 528.945177,125.78533 530.732387,126.483165 C534.995888,128.147893 528.613182,125.279628 555.074175,137.316407 C566.330533,142.436785 571.304487,144.818947 575.068771,146.868497 C575.795499,147.26418 576.500044,147.660316 577.220069,148.077924 C579.240509,149.24976 581.531065,150.674444 585.234697,153.064674 C586.879577,154.126237 596.6762,160.506457 600.234013,162.807798 C611.645409,170.189161 617.903673,174.484184 623.457705,178.671895 C624.052915,179.120681 624.655406,179.579613 625.274922,180.05602 C628.498594,182.535021 643.791833,194.78588 645.991219,196.528874 C658.652786,206.563055 670.942579,217.106639 682.86268,228.162035 L714.798018,263.270575 Z" id="Path-3" fill="#00A818"></path>
                        </g>
                        <g id="cucumber" transform="translate(96.615385, 404.747826)">
                            <path d="M532.423077,1064.5913 C826.472223,1064.5913 1064.84615,826.274423 1064.84615,532.295652 C1064.84615,238.316881 826.472223,0 532.423077,0 C238.373931,0 0,238.316881 0,532.295652 C0,826.274423 238.373931,1064.5913 532.423077,1064.5913 Z M532.423077,947.234783 C303.203664,947.234783 117.384615,761.460206 117.384615,532.295652 C117.384615,303.131098 303.203664,117.356522 532.423077,117.356522 C761.64249,117.356522 947.461538,303.131098 947.461538,532.295652 C947.461538,761.460206 761.64249,947.234783 532.423077,947.234783 Z" id="Oval" fill="#00A818"></path>
                            <path d="M638.496922,251.757038 C622.534845,250.114526 605.722994,255.686818 593.96658,269.622951 C585.414824,281.062899 580.071327,292.139045 574.371357,303.57539 C557.267846,343.6008 562.971417,386.486196 588.623083,417.938848 C628.522874,409.358887 662.366222,383.806309 679.469734,343.7809 C685.169704,332.344554 688.374362,317.691623 688.374362,306.255277 C690.156728,275.879623 665.106385,254.494557 638.496922,251.757038 Z M430.975518,254.436925 C404.952976,256.922304 380.208696,277.669816 380.208696,306.255277 C380.208696,317.691623 383.413354,332.344554 389.116925,343.7809 C406.216835,383.806309 442.731932,409.358887 482.635324,417.935246 C505.435205,386.489798 511.311611,343.6008 494.2117,303.57539 C488.51173,292.139045 483.168233,280.882799 474.616478,272.30644 C462.860064,258.366705 446.591924,252.945697 430.975518,254.440527 L430.975518,254.436925 Z M291.148012,392.029672 C246.203585,394.342155 226.129464,450.99439 263.537543,480.480351 C274.937484,489.053108 285.980951,495.30978 297.384492,501.029754 C337.280683,518.182471 383.416955,512.285999 417.620376,489.413308 C409.068621,452.247886 380.03586,418.118948 340.132468,400.962628 C325.880742,395.246257 314.304366,392.029672 300.056241,392.029672 C296.847982,391.669472 294.143827,391.874786 291.148012,392.029672 Z M730.240157,565.357848 C704.134797,564.853568 677.690969,572.504213 656.31698,586.796944 C664.865135,623.965968 693.901497,658.094906 733.804889,675.247623 C748.053014,680.963995 759.62939,684.18058 773.881116,684.18058 C825.184449,687.040567 850.299605,623.42927 810.399813,594.840207 C798.996272,586.260246 787.952805,580.900472 776.552865,575.1841 C761.591793,568.750931 745.903372,565.656814 730.240157,565.354246 L730.240157,565.357848 Z M341.021851,568.034133 C325.358635,568.336701 309.673815,571.430818 294.709143,577.863987 C280.457417,583.580359 269.41395,589.837031 260.862194,598.41339 C223.810588,629.858838 248.752908,689.724056 300.05264,686.860467 C314.304366,686.860467 328.732528,683.647484 340.132468,677.92751 C380.03586,660.774793 408.355674,626.645855 414.055645,589.476831 C392.467188,575.044812 366.982915,567.562637 341.021851,568.034133 L341.021851,568.034133 Z M485.310673,655.591516 C445.407281,664.167875 411.563933,689.720454 394.464022,729.745863 C388.764052,741.182209 385.555794,754.941844 385.555794,766.37819 C382.707609,814.979958 448.791976,841.069234 477.295428,803.90021 C485.843583,792.463864 491.18708,781.387718 496.88705,769.951372 C513.990561,732.78595 508.110554,689.900554 485.310673,655.591516 L485.310673,655.591516 Z M591.298432,658.271403 C568.494951,689.720454 562.618544,732.60585 579.718455,772.634861 C585.418425,784.067605 590.761922,795.327453 599.313678,803.90021 C630.665314,838.209247 696.569644,812.833166 693.72506,769.951372 C693.72506,758.515026 690.516802,743.862096 684.816831,732.42575 C667.71332,692.400341 631.201824,666.847762 591.298432,658.271403 Z" id="Shape" fill="#FFFFFF"></path>
                        </g>
                    </g>
                </g>
                <path d="M3571.80114,3016.04276 C3571.80114,2994.02886 3562.44054,2976.418 3543.71905,2963.20966 C3524.99757,2950.00131 3501.87137,2937.89385 3474.33977,2926.8869 C3446.80817,2915.87994 3416.52387,2904.59799 3383.48595,2893.04069 C3350.44803,2881.48339 3320.16373,2865.52355 3292.63213,2845.16069 C3265.10054,2824.79783 3241.97434,2798.93188 3223.25285,2767.56207 C3204.53137,2736.19226 3195.17076,2695.74232 3195.17076,2646.21103 C3195.17076,2564.75959 3219.39821,2502.57125 3267.85382,2459.64414 C3316.30943,2416.71703 3386.23864,2395.25379 3477.64355,2395.25379 C3540.41559,2395.25379 3597.12983,2401.85786 3647.78797,2415.06621 C3698.44611,2428.27455 3738.09102,2443.13371 3766.72388,2459.64414 L3718.81914,2614.84138 C3693.49007,2604.93512 3661.55389,2594.47868 3623.00966,2583.47172 C3584.46542,2572.46477 3545.37114,2566.96138 3505.72564,2566.96138 C3441.85233,2566.96138 3409.91615,2591.72665 3409.91615,2641.25793 C3409.91615,2661.07044 3419.27676,2677.03028 3437.99824,2689.13793 C3456.71973,2701.24558 3479.84593,2712.52753 3507.37752,2722.98414 C3534.90912,2733.44074 3565.19343,2744.7227 3598.23134,2756.83034 C3631.26926,2768.93799 3661.55356,2784.62266 3689.08516,2803.88483 C3716.61676,2823.14699 3739.74296,2848.18743 3758.46444,2879.0069 C3777.18593,2909.82636 3786.54653,2949.45079 3786.54653,2997.88138 C3786.54653,3081.53421 3759.84128,3147.29976 3706.42998,3195.18 C3653.01868,3243.06024 3572.90293,3267 3466.08033,3267 C3407.71335,3267 3352.92629,3259.57042 3301.71752,3244.71103 C3250.50874,3229.85165 3208.93665,3212.51596 3177,3192.70345 L3236.46795,3032.5531 C3261.79702,3046.86214 3295.38507,3060.89579 3337.2331,3074.65448 C3379.08113,3088.41317 3422.02978,3095.29241 3466.08033,3095.29241 C3498.01699,3095.29241 3523.62099,3089.23868 3542.89311,3077.13103 C3562.16523,3065.02339 3571.80114,3044.66083 3571.80114,3016.04276 Z M4148.30992,2966.51172 C4148.30992,3005.03605 4153.26553,3033.10336 4163.17691,3050.71448 C4173.08828,3068.32561 4189.05637,3077.13103 4211.08165,3077.13103 C4224.29682,3077.13103 4237.23647,3076.03036 4249.90101,3073.82897 C4262.56554,3071.62758 4278.25832,3066.67452 4296.97981,3058.96966 L4320.10623,3227.37517 C4302.48601,3236.18073 4275.50545,3244.98616 4239.16374,3253.79172 C4202.82203,3262.59729 4165.37962,3267 4126.83538,3267 C4064.06334,3267 4016.15908,3252.41601 3983.12116,3223.24759 C3950.08324,3194.07916 3933.56453,3145.92447 3933.56453,3078.78207 L3933.56453,2088.16138 L4148.30992,2088.16138 L4148.30992,2966.51172 Z M4432.43459,2418.36828 L4647.17998,2418.36828 L4647.17998,3243.88552 L4432.43459,3243.88552 L4432.43459,2418.36828 Z M4401.04873,2185.57241 C4401.04873,2153.65225 4412.88714,2126.41046 4436.56431,2103.84621 C4460.24149,2081.28196 4493.0036,2070 4534.85162,2070 C4576.69965,2070 4610.56301,2081.28196 4636.44271,2103.84621 C4662.32242,2126.41046 4675.26207,2153.65225 4675.26207,2185.57241 C4675.26207,2217.49257 4662.32242,2244.18403 4636.44271,2265.64759 C4610.56301,2287.11114 4576.69965,2297.84276 4534.85162,2297.84276 C4493.0036,2297.84276 4460.24149,2287.11114 4436.56431,2265.64759 C4412.88714,2244.18403 4401.04873,2217.49257 4401.04873,2185.57241 Z M5441.73793,3192.70345 C5408.70001,3216.91874 5368.77979,3235.35511 5321.97608,3248.0131 C5275.17236,3260.6711 5226.99279,3267 5177.43591,3267 C5111.36007,3267 5055.47177,3256.54355 5009.76932,3235.63034 C4964.06686,3214.71714 4926.89976,3185.27398 4898.2669,3147.3 C4869.63404,3109.32602 4848.98565,3063.37268 4836.32112,3009.43862 C4823.65658,2955.50456 4817.32441,2896.06791 4817.32441,2831.1269 C4817.32441,2691.33861 4848.70996,2583.74727 4911.482,2508.34966 C4974.25405,2432.95204 5065.65758,2395.25379 5185.69535,2395.25379 C5246.26486,2395.25379 5294.99506,2400.20685 5331.8874,2410.1131 C5368.77974,2420.01936 5402.09248,2432.67716 5431.8266,2448.0869 L5380.61809,2623.09655 C5355.28902,2610.9889 5330.23564,2601.63314 5305.4572,2595.02897 C5280.67876,2588.42479 5252.32164,2585.12276 5220.38499,2585.12276 C5160.91674,2585.12276 5115.76559,2604.6598 5084.9302,2643.73448 C5054.09481,2682.80916 5038.67735,2745.27267 5038.67735,2831.1269 C5038.67735,2866.34914 5042.53171,2898.81916 5050.24056,2928.53793 C5057.94941,2958.2567 5069.51251,2984.12265 5084.9302,3006.13655 C5100.3479,3028.15045 5120.44566,3045.48614 5145.2241,3058.14414 C5170.00254,3070.80213 5198.91028,3077.13103 5231.9482,3077.13103 C5268.28991,3077.13103 5299.12484,3072.45315 5324.45391,3063.09724 C5349.78298,3053.74133 5372.35855,3042.45938 5392.1813,3029.25103 L5441.73793,3192.70345 Z M6204.91001,3172.89103 C6171.87209,3199.30772 6126.99626,3221.59646 6070.28117,3239.75793 C6013.56608,3257.9194 5953.27278,3267 5889.39947,3267 C5756.14654,3267 5658.68614,3228.20108 5597.01536,3150.60207 C5535.34458,3073.00306 5504.50966,2966.5124 5504.50966,2831.1269 C5504.50966,2685.83514 5539.19895,2576.86795 5608.57858,2504.22207 C5677.9582,2431.57619 5775.4186,2395.25379 5900.96269,2395.25379 C5942.81072,2395.25379 5983.55687,2400.75719 6023.20237,2411.76414 C6062.84787,2422.77109 6098.08779,2440.93229 6128.92318,2466.24828 C6159.75857,2491.56426 6184.53663,2525.6853 6203.25812,2568.61241 C6221.97961,2611.53952 6231.34021,2664.92244 6231.34021,2728.76276 C6231.34021,2751.87736 6229.96365,2776.64263 6227.21049,2803.05931 C6224.45733,2829.47599 6220.32765,2856.99296 6214.82133,2885.61103 L5719.25505,2885.61103 C5722.55884,2954.95483 5740.45411,3007.23707 5772.9414,3042.45931 C5805.42868,3077.68156 5858.01325,3095.29241 5930.69666,3095.29241 C5975.84848,3095.29241 6016.31933,3088.41317 6052.1104,3074.65448 C6087.90148,3060.89579 6115.15735,3046.86214 6133.87884,3032.5531 L6204.91001,3172.89103 Z M5897.65891,2566.96138 C5841.49445,2566.96138 5799.92236,2583.74673 5772.9414,2617.31793 C5745.96043,2650.88913 5729.71703,2695.74179 5724.21071,2751.87724 L6031.46181,2751.87724 C6035.86686,2692.4397 6026.78157,2646.76154 6004.20566,2614.84138 C5981.62975,2582.92122 5946.11452,2566.96138 5897.65891,2566.96138 Z M6725.25461,3016.04276 C6725.25461,2994.02886 6715.89401,2976.418 6697.17252,2963.20966 C6678.45103,2950.00131 6655.32484,2937.89385 6627.79324,2926.8869 C6600.26164,2915.87994 6569.97734,2904.59799 6536.93942,2893.04069 C6503.9015,2881.48339 6473.6172,2865.52355 6446.0856,2845.16069 C6418.554,2824.79783 6395.42781,2798.93188 6376.70632,2767.56207 C6357.98483,2736.19226 6348.62423,2695.74232 6348.62423,2646.21103 C6348.62423,2564.75959 6372.85167,2502.57125 6421.30729,2459.64414 C6469.7629,2416.71703 6539.69211,2395.25379 6631.09701,2395.25379 C6693.86906,2395.25379 6750.5833,2401.85786 6801.24144,2415.06621 C6851.89958,2428.27455 6891.54449,2443.13371 6920.17735,2459.64414 L6872.27261,2614.84138 C6846.94354,2604.93512 6815.00736,2594.47868 6776.46313,2583.47172 C6737.91889,2572.46477 6698.82461,2566.96138 6659.1791,2566.96138 C6595.3058,2566.96138 6563.36962,2591.72665 6563.36962,2641.25793 C6563.36962,2661.07044 6572.73023,2677.03028 6591.45171,2689.13793 C6610.1732,2701.24558 6633.29939,2712.52753 6660.83099,2722.98414 C6688.36259,2733.44074 6718.64689,2744.7227 6751.68481,2756.83034 C6784.72273,2768.93799 6815.00703,2784.62266 6842.53863,2803.88483 C6870.07023,2823.14699 6893.19642,2848.18743 6911.91791,2879.0069 C6930.6394,2909.82636 6940,2949.45079 6940,2997.88138 C6940,3081.53421 6913.29475,3147.29976 6859.88345,3195.18 C6806.47215,3243.06024 6726.3564,3267 6619.5338,3267 C6561.16681,3267 6506.37976,3259.57042 6455.17098,3244.71103 C6403.96221,3229.85165 6362.39012,3212.51596 6330.45347,3192.70345 L6389.92142,3032.5531 C6415.25049,3046.86214 6448.83854,3060.89579 6490.68657,3074.65448 C6532.5346,3088.41317 6575.48324,3095.29241 6619.5338,3095.29241 C6651.47046,3095.29241 6677.07446,3089.23868 6696.34658,3077.13103 C6715.61869,3065.02339 6725.25461,3044.66083 6725.25461,3016.04276 Z" id="slices" fill="#FFFFFF" fill-rule="nonzero"></path>
                <path d="M3528.42648,1865.90756 C3510.14986,1879.30072 3488.06594,1889.49763 3462.17405,1896.4986 C3436.28217,1903.49957 3409.62915,1907 3382.21422,1907 C3345.66097,1907 3314.74347,1901.21668 3289.46081,1889.64986 C3264.17814,1878.08304 3243.61725,1861.79842 3227.77751,1840.79552 C3211.93777,1819.79261 3200.51505,1794.37643 3193.50901,1764.54622 C3186.50297,1734.716 3183,1701.84238 3183,1665.92437 C3183,1588.60932 3200.36253,1529.10198 3235.08812,1487.40056 C3269.81371,1445.69914 3320.37828,1424.84874 3386.78335,1424.84874 C3420.2905,1424.84874 3447.24811,1427.58821 3467.65701,1433.06723 C3488.06591,1438.54625 3506.49456,1445.54711 3522.94352,1454.07003 L3494.6149,1550.86555 C3480.60282,1544.16897 3466.74325,1538.99442 3453.03578,1535.34174 C3439.32832,1531.68906 3423.64111,1529.86275 3405.97371,1529.86275 C3373.07578,1529.86275 3348.09811,1540.66843 3331.03992,1562.28011 C3313.98174,1583.8918 3305.45278,1618.43954 3305.45278,1665.92437 C3305.45278,1685.40533 3307.58502,1703.36406 3311.84956,1719.80112 C3316.11411,1736.23818 3322.51083,1750.54429 3331.03992,1762.71989 C3339.56901,1774.89549 3350.68713,1784.48363 3364.3946,1791.48459 C3378.10206,1798.48556 3394.09387,1801.98599 3412.3705,1801.98599 C3432.47478,1801.98599 3449.53271,1799.39872 3463.54479,1794.22409 C3477.55687,1789.04946 3490.04571,1782.80956 3501.01168,1775.5042 L3528.42648,1865.90756 Z M3714.84713,1437.63305 L3714.84713,1696.97199 C3714.84713,1734.10756 3719.26391,1760.89348 3728.09761,1777.33053 C3736.93132,1793.76759 3754.14155,1801.98599 3779.72882,1801.98599 C3802.26999,1801.98599 3821.00325,1795.28952 3835.92916,1781.89636 C3850.85507,1768.5032 3861.97319,1752.06639 3869.28384,1732.58543 L3869.28384,1437.63305 L3988.0813,1437.63305 L3988.0813,1755.41457 C3988.0813,1780.37454 3989.29973,1804.87756 3991.73661,1828.92437 C3994.17349,1852.97118 3997.82876,1874.73473 4002.70253,1894.21569 L3913.14752,1894.21569 L3892.1295,1826.64146 L3888.4742,1826.64146 C3874.46212,1849.77509 3854.96734,1868.95137 3829.98929,1884.17087 C3805.01124,1899.39037 3775.46447,1907 3741.3481,1907 C3718.19771,1907 3697.48451,1903.95615 3679.20789,1897.86835 C3660.93126,1891.78055 3645.70097,1881.73583 3633.51655,1867.73389 C3621.33214,1853.73196 3612.04166,1834.86006 3605.64484,1811.11765 C3599.24802,1787.37523 3596.04966,1757.54546 3596.04966,1721.62745 L3596.04966,1437.63305 L3714.84713,1437.63305 Z M4415.75219,1865.90756 C4397.47557,1879.30072 4375.39164,1889.49763 4349.49976,1896.4986 C4323.60787,1903.49957 4296.95486,1907 4269.53992,1907 C4232.98667,1907 4202.06918,1901.21668 4176.78651,1889.64986 C4151.50385,1878.08304 4130.94295,1861.79842 4115.10321,1840.79552 C4099.26347,1819.79261 4087.84075,1794.37643 4080.83471,1764.54622 C4073.82867,1734.716 4070.32571,1701.84238 4070.32571,1665.92437 C4070.32571,1588.60932 4087.68824,1529.10198 4122.41383,1487.40056 C4157.13941,1445.69914 4207.70398,1424.84874 4274.10906,1424.84874 C4307.6162,1424.84874 4334.57382,1427.58821 4354.98272,1433.06723 C4375.39161,1438.54625 4393.82027,1445.54711 4410.26923,1454.07003 L4381.9406,1550.86555 C4367.92852,1544.16897 4354.06896,1538.99442 4340.36149,1535.34174 C4326.65402,1531.68906 4310.96682,1529.86275 4293.29942,1529.86275 C4260.40149,1529.86275 4235.42381,1540.66843 4218.36563,1562.28011 C4201.30744,1583.8918 4192.77848,1618.43954 4192.77848,1665.92437 C4192.77848,1685.40533 4194.91072,1703.36406 4199.17527,1719.80112 C4203.43981,1736.23818 4209.83654,1750.54429 4218.36563,1762.71989 C4226.89472,1774.89549 4238.01283,1784.48363 4251.7203,1791.48459 C4265.42777,1798.48556 4281.41958,1801.98599 4299.6962,1801.98599 C4319.80049,1801.98599 4336.85842,1799.39872 4350.8705,1794.22409 C4364.88258,1789.04946 4377.37142,1782.80956 4388.33739,1775.5042 L4415.75219,1865.90756 Z M4602.17283,1437.63305 L4602.17283,1696.97199 C4602.17283,1734.10756 4606.58962,1760.89348 4615.42332,1777.33053 C4624.25702,1793.76759 4641.46725,1801.98599 4667.05453,1801.98599 C4689.5957,1801.98599 4708.32896,1795.28952 4723.25487,1781.89636 C4738.18078,1768.5032 4749.29889,1752.06639 4756.60954,1732.58543 L4756.60954,1437.63305 L4875.40701,1437.63305 L4875.40701,1755.41457 C4875.40701,1780.37454 4876.62543,1804.87756 4879.06232,1828.92437 C4881.4992,1852.97118 4885.15447,1874.73473 4890.02824,1894.21569 L4800.47322,1894.21569 L4779.45521,1826.64146 L4775.7999,1826.64146 C4761.78782,1849.77509 4742.29305,1868.95137 4717.315,1884.17087 C4692.33694,1899.39037 4662.79017,1907 4628.67381,1907 C4605.52342,1907 4584.81022,1903.95615 4566.53359,1897.86835 C4548.25697,1891.78055 4533.02668,1881.73583 4520.84226,1867.73389 C4508.65784,1853.73196 4499.36736,1834.86006 4492.97055,1811.11765 C4486.57373,1787.37523 4483.37537,1757.54546 4483.37537,1721.62745 L4483.37537,1437.63305 L4602.17283,1437.63305 Z M5239.11003,1894.21569 L5239.11003,1645.83473 C5239.11003,1603.82892 5235.15015,1573.99915 5227.23028,1556.34454 C5219.31041,1538.68992 5202.8617,1529.86275 5177.88364,1529.86275 C5157.17013,1529.86275 5140.41681,1535.49387 5127.62317,1546.7563 C5114.82954,1558.01873 5105.08215,1572.47704 5098.38072,1590.13165 L5098.38072,1894.21569 L4979.58325,1894.21569 L4979.58325,1437.63305 L5071.87975,1437.63305 L5085.58715,1497.90196 L5089.24245,1497.90196 C5103.25453,1478.421 5121.07397,1461.37542 5142.70131,1446.76471 C5164.32865,1432.15399 5192.20009,1424.84874 5226.31646,1424.84874 C5255.55906,1424.84874 5279.47061,1430.78425 5298.05185,1442.65546 C5316.63309,1454.52667 5331.10186,1474.46391 5341.45862,1502.46779 C5355.4707,1478.72537 5373.44244,1459.85348 5395.37439,1445.85154 C5417.30634,1431.8496 5443.80705,1424.84874 5474.87731,1424.84874 C5500.46459,1424.84874 5522.24391,1427.89259 5540.21592,1433.98039 C5558.18793,1440.06819 5572.80902,1450.56949 5584.0796,1465.48459 C5595.35019,1480.3997 5603.72685,1500.33694 5609.20983,1525.29692 C5614.69282,1550.25689 5617.43427,1581.91297 5617.43427,1620.26611 L5617.43427,1894.21569 L5498.63681,1894.21569 L5498.63681,1637.61625 C5498.63681,1601.69823 5494.82923,1574.76013 5487.21397,1556.80112 C5479.59871,1538.84211 5462.69309,1529.86275 5436.49659,1529.86275 C5415.17386,1529.86275 5398.26824,1535.64607 5385.77921,1547.21289 C5373.29018,1558.7797 5363.99971,1574.60774 5357.9075,1594.69748 L5357.9075,1894.21569 L5239.11003,1894.21569 Z M5715.21373,1255 L5834.0112,1255 L5834.0112,1474.15966 L5837.6665,1474.15966 C5850.46014,1459.54895 5866.90886,1447.9823 5887.01315,1439.45938 C5907.11743,1430.93647 5929.35366,1426.67507 5953.72249,1426.67507 C6008.55237,1426.67507 6050.43567,1445.39477 6079.37366,1482.83473 C6108.31165,1520.2747 6122.78043,1577.34696 6122.78043,1654.05322 C6122.78043,1736.23851 6102.52414,1798.63751 6062.01095,1841.2521 C6021.49777,1883.86669 5965.9072,1905.17367 5895.23759,1905.17367 C5856.24745,1905.17367 5820.60857,1901.97762 5788.31986,1895.58543 C5756.03116,1889.19325 5731.66269,1882.04019 5715.21373,1874.12605 L5715.21373,1255 Z M5918.99708,1527.12325 C5897.06513,1527.12325 5879.24569,1532.75438 5865.53822,1544.01681 C5851.83075,1555.27923 5841.32185,1571.56385 5834.0112,1592.87115 L5834.0112,1791.94118 C5843.75873,1796.81142 5854.26763,1800.15965 5865.53822,1801.98599 C5876.8088,1803.81233 5888.84073,1804.72549 5901.63437,1804.72549 C5933.92308,1804.72549 5958.44385,1793.00665 5975.19742,1769.56863 C5991.95099,1746.1306 6000.32765,1708.84339 6000.32765,1657.70588 C6000.32765,1570.65036 5973.21773,1527.12325 5918.99708,1527.12325 Z M6570.5555,1854.94958 C6552.27888,1869.5603 6527.4535,1881.8879 6496.07863,1891.93277 C6464.70375,1901.97764 6431.34941,1907 6396.01461,1907 C6322.29888,1907 6268.38365,1885.54083 6234.26728,1842.62185 C6200.15092,1799.70287 6183.09299,1740.8043 6183.09299,1665.92437 C6183.09299,1585.56542 6202.28316,1525.29712 6240.66407,1485.11765 C6279.04498,1444.93817 6332.96022,1424.84874 6402.41139,1424.84874 C6425.56178,1424.84874 6448.10262,1427.89259 6470.03457,1433.98039 C6491.96652,1440.06819 6511.46129,1450.11291 6528.51947,1464.11485 C6545.57766,1478.11678 6559.28492,1496.98868 6569.64167,1520.73109 C6579.99843,1544.47351 6585.17673,1573.99889 6585.17673,1609.30812 C6585.17673,1622.0925 6584.41521,1635.78984 6582.89216,1650.40056 C6581.36911,1665.01128 6579.08457,1680.23055 6576.03846,1696.05882 L6301.89046,1696.05882 C6303.71812,1734.41196 6313.61781,1763.32857 6331.58982,1782.80952 C6349.56184,1802.29048 6378.6517,1812.03081 6418.86027,1812.03081 C6443.83833,1812.03081 6466.22686,1808.226 6486.02653,1800.61625 C6505.82621,1793.0065 6520.9042,1785.24467 6531.26095,1777.33053 L6570.5555,1854.94958 Z M6400.58374,1519.81793 C6369.51348,1519.81793 6346.51574,1529.10168 6331.58982,1547.66947 C6316.66391,1566.23725 6307.67804,1591.04466 6304.63194,1622.09244 L6474.6037,1622.09244 C6477.04058,1589.21832 6472.01459,1563.95434 6459.52556,1546.29972 C6447.03653,1528.6451 6427.38946,1519.81793 6400.58374,1519.81793 Z M6921.46495,1549.03922 C6902.5791,1542.34264 6885.52117,1538.9944 6870.29065,1538.9944 C6848.96792,1538.9944 6831.14848,1544.62553 6816.83179,1555.88796 C6802.5151,1567.15038 6792.92002,1581.60869 6788.04625,1599.26331 L6788.04625,1894.21569 L6669.24878,1894.21569 L6669.24878,1437.63305 L6761.54528,1437.63305 L6775.25268,1497.90196 L6778.90798,1497.90196 C6789.26474,1475.3771 6803.27661,1458.02714 6820.94401,1445.85154 C6838.61142,1433.67594 6859.32461,1427.58824 6883.08423,1427.58824 C6898.92397,1427.58824 6916.89571,1430.93647 6937,1437.63305 L6921.46495,1549.03922 Z" id="cucumber" fill="#00A818" fill-rule="nonzero"></path>
                <path d="M3203,699.393502 L3286.63862,699.393502 L3299.84472,752.245487 L3303.36634,752.245487 C3318.6268,729.930093 3336.67495,713.487417 3357.51134,702.916968 C3378.34774,692.346518 3403.73254,687.061372 3433.66651,687.061372 C3488.83893,687.061372 3530.21762,704.531715 3557.80383,739.472924 C3585.39004,774.414134 3599.18294,830.642212 3599.18294,908.158845 C3599.18294,945.742667 3594.78095,979.655685 3585.97684,1009.89892 C3577.17273,1040.14215 3564.1135,1065.83383 3546.79875,1086.97473 C3529.484,1108.11563 3508.35445,1124.26469 3483.40948,1135.42238 C3458.4645,1146.58008 3429.85158,1152.15884 3397.56984,1152.15884 C3379.37468,1152.15884 3364.40792,1150.83756 3352.66911,1148.19495 C3340.9303,1145.55233 3329.19166,1141.29485 3317.45285,1135.42238 L3317.45285,1316 L3203,1316 L3203,699.393502 Z M3399.33065,783.956679 C3377.02691,783.956679 3359.56569,789.535444 3346.94647,800.693141 C3334.32724,811.850838 3324.49614,828.587133 3317.45285,850.902527 L3317.45285,1034.12274 C3325.67002,1040.58246 3334.62073,1045.7208 3344.30525,1049.53791 C3353.98977,1053.35501 3366.75553,1055.26354 3382.60293,1055.26354 C3415.47161,1055.26354 3440.12274,1043.66558 3456.55708,1020.46931 C3472.99142,997.273049 3481.20846,958.955743 3481.20846,905.516245 C3481.20846,866.757929 3474.75221,836.80877 3461.83952,815.66787 C3448.92682,794.52697 3428.09074,783.956679 3399.33065,783.956679 Z M3921.41172,806.859206 C3903.21656,800.399486 3886.78247,797.169675 3872.10896,797.169675 C3851.56604,797.169675 3834.39828,802.60163 3820.60518,813.465704 C3806.81207,824.329778 3797.5679,838.27669 3792.87237,855.306859 L3792.87237,1139.82671 L3678.41952,1139.82671 L3678.41952,699.393502 L3767.34058,699.393502 L3780.54668,757.530686 L3784.06831,757.530686 C3794.0463,735.802539 3807.54573,719.066185 3824.56701,707.3213 C3841.58828,695.576355 3861.54396,689.703971 3884.43465,689.703971 C3899.69511,689.703971 3917.00959,692.933782 3936.37863,699.393502 L3921.41172,806.859206 Z M3966.31246,919.610108 C3966.31246,845.029711 3984.50734,787.627157 4020.89766,747.400722 C4057.28798,707.174287 4108.35105,687.061372 4174.0884,687.061372 C4209.30483,687.061372 4239.82529,692.640137 4265.65067,703.797834 C4291.47606,714.955531 4312.89907,730.664159 4329.92035,750.924188 C4346.94163,771.184217 4359.70739,795.701421 4368.21803,824.476534 C4376.72867,853.251648 4380.98393,884.962522 4380.98393,919.610108 C4380.98393,994.190505 4362.93577,1051.59306 4326.83893,1091.81949 C4290.74208,1132.04593 4239.82574,1152.15884 4174.0884,1152.15884 C4138.87196,1152.15884 4108.3515,1146.58008 4082.52612,1135.42238 C4056.70073,1124.26469 4035.13099,1108.55606 4017.81624,1088.29603 C4000.50149,1068.036 3987.58899,1043.5188 3979.07835,1014.74368 C3970.56771,985.968569 3966.31246,954.257694 3966.31246,919.610108 Z M4084.28693,919.610108 C4084.28693,938.989267 4086.04773,956.900038 4089.56937,973.34296 C4093.09101,989.785882 4098.3734,1004.17322 4105.41669,1016.50542 C4112.45997,1028.83761 4121.70415,1038.38023 4133.14949,1045.13357 C4144.59483,1051.88692 4158.241,1055.26354 4174.0884,1055.26354 C4204.02237,1055.26354 4226.32578,1044.39963 4240.99929,1022.67148 C4255.67281,1000.94333 4263.00945,966.589886 4263.00945,919.610108 C4263.00945,879.09005 4256.25974,846.351509 4242.7601,821.393502 C4229.26047,796.435495 4206.37013,783.956679 4174.0884,783.956679 C4145.91525,783.956679 4123.9053,794.52697 4108.05791,815.66787 C4092.21051,836.80877 4084.28693,871.455836 4084.28693,919.610108 Z M4414.43938,699.393502 L4475.18743,699.393502 L4475.18743,616.592058 L4589.64027,584 L4589.64027,699.393502 L4697.04987,699.393502 L4697.04987,796.288809 L4589.64027,796.288809 L4589.64027,965.415162 C4589.64027,995.952018 4592.72167,1017.82665 4598.88454,1031.03971 C4605.04742,1044.25277 4616.63932,1050.85921 4633.6606,1050.85921 C4645.39941,1050.85921 4655.52399,1049.68473 4664.03463,1047.33574 C4672.54526,1044.98675 4682.08291,1041.46332 4692.64784,1036.76534 L4712.89719,1124.85199 C4697.04979,1132.4862 4678.56144,1138.94582 4657.43158,1144.23105 C4636.30171,1149.51627 4614.8787,1152.15884 4593.1619,1152.15884 C4552.663,1152.15884 4522.87621,1141.73536 4503.80064,1120.88809 C4484.72507,1100.04081 4475.18743,1065.83417 4475.18743,1018.26715 L4475.18743,796.288809 L4414.43938,796.288809 L4414.43938,699.393502 Z M5010.47459,806.859206 C4992.27943,800.399486 4975.84534,797.169675 4961.17183,797.169675 C4940.62891,797.169675 4923.46115,802.60163 4909.66805,813.465704 C4895.87494,824.329778 4886.63076,838.27669 4881.93524,855.306859 L4881.93524,1139.82671 L4767.48239,1139.82671 L4767.48239,699.393502 L4856.40345,699.393502 L4869.60955,757.530686 L4873.13117,757.530686 C4883.10917,735.802539 4896.6086,719.066185 4913.62987,707.3213 C4930.65115,695.576355 4950.60683,689.703971 4973.49752,689.703971 C4988.75797,689.703971 5006.07246,692.933782 5025.4415,699.393502 L5010.47459,806.859206 Z M5073.86386,724.938628 C5097.34149,714.368178 5125.22075,706.000031 5157.50248,699.833935 C5189.78422,693.667839 5223.53279,690.584838 5258.74923,690.584838 C5289.27014,690.584838 5314.80168,694.255078 5335.3446,701.595668 C5355.88752,708.936258 5372.17488,719.35974 5384.20716,732.866426 C5396.23944,746.373112 5404.74996,762.522168 5409.73895,781.314079 C5414.72795,800.10599 5417.22241,821.246573 5417.22241,844.736462 C5417.22241,870.57534 5416.34201,896.560639 5414.58119,922.693141 C5412.82036,948.825642 5411.79323,974.517323 5411.49976,999.768953 C5411.20629,1025.02058 5411.93996,1049.53779 5413.70078,1073.3213 C5415.4616,1097.10481 5419.86359,1119.56668 5426.90688,1140.70758 L5333.58379,1140.70758 L5315.09525,1079.9278 L5310.69322,1079.9278 C5298.9544,1098.13246 5282.66705,1113.84109 5261.83065,1127.05415 C5240.99426,1140.26721 5214.14213,1146.87365 5181.27346,1146.87365 C5160.73054,1146.87365 5142.24218,1143.79064 5125.80785,1137.62455 C5109.37351,1131.45845 5095.28715,1122.64988 5083.54833,1111.19856 C5071.80952,1099.74724 5062.71208,1086.24075 5056.25573,1070.6787 C5049.79938,1055.11665 5046.57126,1037.64631 5046.57126,1018.26715 C5046.57126,991.253776 5052.58731,968.498287 5064.61959,950 C5076.65188,931.501713 5093.96636,916.527133 5116.56358,905.075812 C5139.16079,893.624491 5166.15966,885.696773 5197.56098,881.292419 C5228.9623,876.888065 5264.03148,875.566778 5302.76956,877.32852 C5306.87814,844.442676 5304.53042,820.806329 5295.72631,806.418773 C5286.9222,792.031216 5267.25998,784.837545 5236.73907,784.837545 C5213.84838,784.837545 5189.63745,787.186499 5164.10553,791.884477 C5138.57361,796.582454 5117.5908,802.748458 5101.15646,810.382671 L5073.86386,724.938628 Z M5219.13094,1052.62094 C5242.02162,1052.62094 5260.21651,1047.4826 5273.71614,1037.20578 C5287.21578,1026.92895 5297.19362,1015.91823 5303.64996,1004.17329 L5303.64996,946.916968 C5285.45481,945.155226 5267.99358,944.861607 5251.26578,946.036101 C5234.53797,947.210596 5219.71794,949.853168 5206.80525,953.963899 C5193.89262,958.074629 5183.62125,963.947014 5175.99102,971.581227 C5168.36079,979.215441 5164.54573,988.904875 5164.54573,1000.64982 C5164.54573,1017.09274 5169.38792,1029.86518 5179.07244,1038.96751 C5188.75696,1048.06984 5202.10966,1052.62094 5219.13094,1052.62094 Z M5824.85063,1112.51986 C5807.24241,1125.43929 5785.96613,1135.27554 5761.02115,1142.02888 C5736.07618,1148.78222 5710.39791,1152.15884 5683.98558,1152.15884 C5648.76915,1152.15884 5618.98236,1146.58008 5594.62432,1135.42238 C5570.26628,1124.26469 5550.45734,1108.55606 5535.19688,1088.29603 C5519.93642,1068.036 5508.93145,1043.5188 5502.18164,1014.74368 C5495.43182,985.968569 5492.05696,954.257694 5492.05696,919.610108 C5492.05696,845.029711 5508.78452,787.627157 5542.24013,747.400722 C5575.69575,707.174287 5624.41109,687.061372 5688.38762,687.061372 C5720.66935,687.061372 5746.64108,689.703945 5766.30359,694.98917 C5785.9661,700.274395 5803.72079,707.027636 5819.56819,715.249097 L5792.27558,808.620939 C5778.77595,802.161219 5765.42325,797.169693 5752.21709,793.646209 C5739.01092,790.122726 5723.89743,788.361011 5706.87615,788.361011 C5675.18136,788.361011 5651.11715,798.784493 5634.68282,819.631769 C5618.24848,840.479045 5610.03143,873.804825 5610.03143,919.610108 C5610.03143,938.402019 5612.0857,955.725552 5616.19428,971.581227 C5620.30286,987.436902 5626.46565,1001.23701 5634.68282,1012.98195 C5642.89999,1024.72689 5653.61149,1033.9759 5666.81766,1040.72924 C5680.02382,1047.48258 5695.43078,1050.85921 5713.039,1050.85921 C5732.40804,1050.85921 5748.84213,1048.36344 5762.34176,1043.37184 C5775.8414,1038.38024 5787.8735,1032.36105 5798.43843,1025.31408 L5824.85063,1112.51986 Z M5848.6216,699.393502 L5909.36965,699.393502 L5909.36965,616.592058 L6023.8225,584 L6023.8225,699.393502 L6131.2321,699.393502 L6131.2321,796.288809 L6023.8225,796.288809 L6023.8225,965.415162 C6023.8225,995.952018 6026.90389,1017.82665 6033.06677,1031.03971 C6039.22965,1044.25277 6050.82155,1050.85921 6067.84283,1050.85921 C6079.58164,1050.85921 6089.70621,1049.68473 6098.21685,1047.33574 C6106.72749,1044.98675 6116.26513,1041.46332 6126.83006,1036.76534 L6147.07941,1124.85199 C6131.23202,1132.4862 6112.74367,1138.94582 6091.6138,1144.23105 C6070.48394,1149.51627 6049.06093,1152.15884 6027.34413,1152.15884 C5986.84522,1152.15884 5957.05843,1141.73536 5937.98286,1120.88809 C5918.90729,1100.04081 5909.36965,1065.83417 5909.36965,1018.26715 L5909.36965,796.288809 L5848.6216,796.288809 L5848.6216,699.393502 Z M6176.13283,919.610108 C6176.13283,845.029711 6194.32772,787.627157 6230.71803,747.400722 C6267.10835,707.174287 6318.17142,687.061372 6383.90877,687.061372 C6419.12521,687.061372 6449.64566,692.640137 6475.47105,703.797834 C6501.29643,714.955531 6522.71945,730.664159 6539.74072,750.924188 C6556.762,771.184217 6569.52777,795.701421 6578.03841,824.476534 C6586.54905,853.251648 6590.8043,884.962522 6590.8043,919.610108 C6590.8043,994.190505 6572.75615,1051.59306 6536.6593,1091.81949 C6500.56245,1132.04593 6449.64612,1152.15884 6383.90877,1152.15884 C6348.69233,1152.15884 6318.17188,1146.58008 6292.34649,1135.42238 C6266.5211,1124.26469 6244.95136,1108.55606 6227.63661,1088.29603 C6210.32186,1068.036 6197.40936,1043.5188 6188.89872,1014.74368 C6180.38808,985.968569 6176.13283,954.257694 6176.13283,919.610108 Z M6294.1073,919.610108 C6294.1073,938.989267 6295.8681,956.900038 6299.38974,973.34296 C6302.91139,989.785882 6308.19377,1004.17322 6315.23706,1016.50542 C6322.28035,1028.83761 6331.52452,1038.38023 6342.96987,1045.13357 C6354.41521,1051.88692 6368.06137,1055.26354 6383.90877,1055.26354 C6413.84274,1055.26354 6436.14615,1044.39963 6450.81966,1022.67148 C6465.49318,1000.94333 6472.82983,966.589886 6472.82983,919.610108 C6472.82983,879.09005 6466.08011,846.351509 6452.58048,821.393502 C6439.08084,796.435495 6416.1905,783.956679 6383.90877,783.956679 C6355.73562,783.956679 6333.72568,794.52697 6317.87828,815.66787 C6302.03088,836.80877 6294.1073,871.455836 6294.1073,919.610108 Z M6913.03309,806.859206 C6894.83793,800.399486 6878.40384,797.169675 6863.73032,797.169675 C6843.1874,797.169675 6826.01965,802.60163 6812.22654,813.465704 C6798.43344,824.329778 6789.18926,838.27669 6784.49374,855.306859 L6784.49374,1139.82671 L6670.04089,1139.82671 L6670.04089,699.393502 L6758.96195,699.393502 L6772.16805,757.530686 L6775.68967,757.530686 C6785.66766,735.802539 6799.16709,719.066185 6816.18837,707.3213 C6833.20965,695.576355 6853.16533,689.703971 6876.05602,689.703971 C6891.31647,689.703971 6908.63096,692.933782 6928,699.393502 L6913.03309,806.859206 Z" id="protractor" fill="#FF0039" fill-rule="nonzero"></path>
            </g>
            <path d="M9408.64,692 C9447.89353,732.960205 9481.1732,777.973088 9508.48,827.04 C9535.7868,876.106912 9557.75992,926.453075 9574.4,978.08 C9591.04008,1029.70692 9603.19996,1081.75974 9610.88,1134.24 C9618.56004,1186.72026 9622.4,1236.85309 9622.4,1284.64 C9622.4,1331.57357 9618.56004,1381.06641 9610.88,1433.12 C9603.19996,1485.17359 9590.82675,1537.43974 9573.76,1589.92 C9556.69325,1642.40026 9534.29347,1693.81308 9506.56,1744.16 C9478.82653,1794.50692 9444.90687,1841.43978 9404.8,1884.96 L9297.28,1814.56 C9328.85349,1771.89312 9354.8799,1728.58689 9375.36,1684.64 C9395.8401,1640.69311 9412.05327,1596.32022 9424,1551.52 C9435.94673,1506.71978 9444.26664,1461.92022 9448.96,1417.12 C9453.65336,1372.31978 9456,1328.16022 9456,1284.64 C9456,1243.6798 9452.80003,1200.37356 9446.4,1154.72 C9439.99997,1109.06644 9430.40006,1063.41356 9417.6,1017.76 C9404.79994,972.106438 9388.37343,927.733549 9368.32,884.64 C9348.26657,841.546451 9324.16014,801.653517 9296,764.96 L9408.64,692 Z" id="){" fill="#FFFFFF" fill-rule="nonzero"></path>
            <g id="angular" transform="translate(1693.000000, 0.000000)" fill-rule="nonzero">
                <polygon id="Path" fill="#FF0039" points="1162 0 1162 0 1162 0 0 413.672 177.233083 1947.498 1162 2492 1162 2492 1162 2492 2146.76692 1947.498 2324 413.672"></polygon>
                <polygon id="Path" fill="#C3002F" points="1159 0 1159 276.612 1159 275.366 1159 1537.564 1159 1537.564 1159 2492 1159 2492 2146.30934 1947.498 2324 413.672"></polygon>
                <path d="M1169.24957,274 L442,1900 L442,1900 L713.156627,1900 L713.156627,1900 L859.356282,1536.17471 L1476.64372,1536.17471 L1622.84337,1900 L1622.84337,1900 L1894,1900 L1894,1900 L1169.24957,274 L1169.24957,274 L1169.24957,274 L1169.24957,274 L1169.24957,274 Z M1381.67642,1311.89885 L956.822719,1311.89885 L1169.24957,802.294253 L1381.67642,1311.89885 Z" id="Shape" fill="#FFFFFF"></path>
            </g>
            <path d="M4534.76,1357.68 C4534.76,1325.25317 4540.09328,1294.32015 4550.76,1264.88 C4561.42672,1235.43985 4576.3599,1207.92013 4595.56,1182.32 C4614.7601,1156.71987 4637.58653,1132.82678 4664.04,1110.64 C4690.49347,1088.45322 4719.07985,1068.82675 4749.8,1051.76 C4728.46656,1023.59986 4710.9734,995.013478 4697.32,966 C4683.6666,936.986522 4676.84,906.266829 4676.84,873.84 C4676.84,852.50656 4680.89329,830.960109 4689,809.2 C4697.10671,787.439891 4709.90658,767.813421 4727.4,750.32 C4744.89342,732.826579 4767.71986,718.74672 4795.88,708.08 C4824.04014,697.41328 4858.17313,692.08 4898.28,692.08 C4937.53353,692.08 4971.02653,696.773286 4998.76,706.16 C5026.49347,715.546714 5048.89325,727.919923 5065.96,743.28 C5083.02675,758.640077 5095.39996,776.133235 5103.08,795.76 C5110.76004,815.386765 5114.6,835.439898 5114.6,855.92 C5114.6,890.906842 5102.22679,927.386477 5077.48,965.36 C5052.73321,1003.33352 5010.49363,1039.81316 4950.76,1074.8 C4980.62682,1120.88023 5010.49318,1163.11981 5040.36,1201.52 C5070.22682,1239.92019 5103.50648,1277.89315 5140.2,1315.44 C5159.82676,1294.10656 5177.53325,1267.44016 5193.32,1235.44 C5209.10675,1203.43984 5222.97327,1170.80017 5234.92,1137.52 L5355.24,1201.52 C5350.11997,1216.88008 5343.08004,1233.73324 5334.12,1252.08 C5325.15996,1270.42676 5315.34672,1288.98657 5304.68,1307.76 C5294.01328,1326.53343 5283.13339,1344.23992 5272.04,1360.88 C5260.94661,1377.52008 5250.70671,1391.81327 5241.32,1403.76 C5268.6268,1428.50679 5292.5199,1447.91993 5313,1462 C5333.4801,1476.08007 5354.38656,1489.09327 5375.72,1501.04 L5287.4,1623.92 C5263.50655,1612.82661 5238.97346,1598.10676 5213.8,1579.76 C5188.62654,1561.41324 5163.66679,1540.29345 5138.92,1516.4 C5108.19985,1544.56014 5069.80023,1569.51989 5023.72,1591.28 C4977.63977,1613.04011 4920.89367,1623.92 4853.48,1623.92 C4809.10644,1623.92 4767.50686,1617.94673 4728.68,1606 C4689.85314,1594.05327 4656.14681,1576.56012 4627.56,1553.52 C4598.97319,1530.47988 4576.36008,1502.5335 4559.72,1469.68 C4543.07992,1436.8265 4534.76,1399.49354 4534.76,1357.68 Z M5039.08,1415.28 C4995.55978,1370.05311 4955.88018,1325.04022 4920.04,1280.24 C4884.19982,1235.43978 4853.05347,1192.98687 4826.6,1152.88 C4785.6398,1184.45349 4754.49344,1214.95985 4733.16,1244.4 C4711.82656,1273.84015 4701.16,1306.90648 4701.16,1343.6 C4701.16,1387.12022 4717.15984,1421.25321 4749.16,1446 C4781.16016,1470.74679 4823.18641,1483.12 4875.24,1483.12 C4909.3735,1483.12 4941.37318,1476.08007 4971.24,1462 C5001.10682,1447.91993 5023.71992,1432.34675 5039.08,1415.28 Z M4843.24,881.52 C4843.24,917.360179 4858.59985,955.759795 4889.32,996.72 C4922.60017,975.38656 4946.70659,955.333427 4961.64,936.56 C4976.57341,917.786573 4984.04,899.866752 4984.04,882.8 C4984.04,862.319898 4978.28006,846.106726 4966.76,834.16 C4955.23994,822.213274 4936.68013,816.24 4911.08,816.24 C4888.03988,816.24 4870.97339,822.213274 4859.88,834.16 C4848.78661,846.106726 4843.24,861.893235 4843.24,881.52 Z M5576.68,1357.68 C5576.68,1325.25317 5582.01328,1294.32015 5592.68,1264.88 C5603.34672,1235.43985 5618.2799,1207.92013 5637.48,1182.32 C5656.6801,1156.71987 5679.50653,1132.82678 5705.96,1110.64 C5732.41347,1088.45322 5760.99985,1068.82675 5791.72,1051.76 C5770.38656,1023.59986 5752.8934,995.013478 5739.24,966 C5725.5866,936.986522 5718.76,906.266829 5718.76,873.84 C5718.76,852.50656 5722.81329,830.960109 5730.92,809.2 C5739.02671,787.439891 5751.82658,767.813421 5769.32,750.32 C5786.81342,732.826579 5809.63986,718.74672 5837.8,708.08 C5865.96014,697.41328 5900.09313,692.08 5940.2,692.08 C5979.45353,692.08 6012.94653,696.773286 6040.68,706.16 C6068.41347,715.546714 6090.81325,727.919923 6107.88,743.28 C6124.94675,758.640077 6137.31996,776.133235 6145,795.76 C6152.68004,815.386765 6156.52,835.439898 6156.52,855.92 C6156.52,890.906842 6144.14679,927.386477 6119.4,965.36 C6094.65321,1003.33352 6052.41363,1039.81316 5992.68,1074.8 C6022.54682,1120.88023 6052.41318,1163.11981 6082.28,1201.52 C6112.14682,1239.92019 6145.42648,1277.89315 6182.12,1315.44 C6201.74676,1294.10656 6219.45325,1267.44016 6235.24,1235.44 C6251.02675,1203.43984 6264.89327,1170.80017 6276.84,1137.52 L6397.16,1201.52 C6392.03997,1216.88008 6385.00004,1233.73324 6376.04,1252.08 C6367.07996,1270.42676 6357.26672,1288.98657 6346.6,1307.76 C6335.93328,1326.53343 6325.05339,1344.23992 6313.96,1360.88 C6302.86661,1377.52008 6292.62671,1391.81327 6283.24,1403.76 C6310.5468,1428.50679 6334.4399,1447.91993 6354.92,1462 C6375.4001,1476.08007 6396.30656,1489.09327 6417.64,1501.04 L6329.32,1623.92 C6305.42655,1612.82661 6280.89346,1598.10676 6255.72,1579.76 C6230.54654,1561.41324 6205.58679,1540.29345 6180.84,1516.4 C6150.11985,1544.56014 6111.72023,1569.51989 6065.64,1591.28 C6019.55977,1613.04011 5962.81367,1623.92 5895.4,1623.92 C5851.02644,1623.92 5809.42686,1617.94673 5770.6,1606 C5731.77314,1594.05327 5698.06681,1576.56012 5669.48,1553.52 C5640.89319,1530.47988 5618.28008,1502.5335 5601.64,1469.68 C5584.99992,1436.8265 5576.68,1399.49354 5576.68,1357.68 Z M6081,1415.28 C6037.47978,1370.05311 5997.80018,1325.04022 5961.96,1280.24 C5926.11982,1235.43978 5894.97347,1192.98687 5868.52,1152.88 C5827.5598,1184.45349 5796.41344,1214.95985 5775.08,1244.4 C5753.74656,1273.84015 5743.08,1306.90648 5743.08,1343.6 C5743.08,1387.12022 5759.07984,1421.25321 5791.08,1446 C5823.08016,1470.74679 5865.10641,1483.12 5917.16,1483.12 C5951.2935,1483.12 5983.29318,1476.08007 6013.16,1462 C6043.02682,1447.91993 6065.63992,1432.34675 6081,1415.28 Z M5885.16,881.52 C5885.16,917.360179 5900.51985,955.759795 5931.24,996.72 C5964.52017,975.38656 5988.62659,955.333427 6003.56,936.56 C6018.49341,917.786573 6025.96,899.866752 6025.96,882.8 C6025.96,862.319898 6020.20006,846.106726 6008.68,834.16 C5997.15994,822.213274 5978.60013,816.24 5953,816.24 C5929.95988,816.24 5912.89339,822.213274 5901.8,834.16 C5890.70661,846.106726 5885.16,861.893235 5885.16,881.52 Z" id="&amp;&amp;" fill="#FFFFFF" fill-rule="nonzero"></path>
            <path d="M150.32,967 L316.72,967 L316.72,1607 L150.32,1607 L150.32,967 Z M126,786.52 C126,761.77321 135.173242,740.653421 153.52,723.16 C171.866758,705.666579 197.253171,696.92 229.68,696.92 C262.106829,696.92 288.346566,705.666579 308.4,723.16 C328.453434,740.653421 338.48,761.77321 338.48,786.52 C338.48,811.26679 328.453434,831.959917 308.4,848.6 C288.346566,865.240083 262.106829,873.56 229.68,873.56 C197.253171,873.56 171.866758,865.240083 153.52,848.6 C135.173242,831.959917 126,811.26679 126,786.52 Z M420.4,967 L508.72,967 L508.72,931.16 C508.72,850.092928 525.786496,791.426848 559.92,755.16 C594.053504,718.893152 643.546342,700.76 708.4,700.76 C776.667008,700.76 833.413107,708.866586 878.64,725.08 L846.64,858.2 C827.013235,851.373299 809.733408,846.893344 794.8,844.76 C779.866592,842.626656 764.293414,841.56 748.08,841.56 C731.013248,841.56 717.573382,844.119974 707.76,849.24 C697.946618,854.360026 690.693357,862.25328 686,872.92 C681.306643,883.58672 678.320006,896.813254 677.04,912.6 C675.759994,928.386746 675.12,946.519898 675.12,967 L815.92,967 L815.92,1107.8 L675.12,1107.8 L675.12,1607 L508.72,1607 L508.72,1107.8 L420.4,1107.8 L420.4,967 Z M1431.6,1888.6 C1392.34647,1847.6398 1359.0668,1802.62691 1331.76,1753.56 C1304.4532,1704.49309 1282.48008,1654.14692 1265.84,1602.52 C1249.19992,1550.89308 1237.04004,1498.84026 1229.36,1446.36 C1221.67996,1393.87974 1217.84,1343.74691 1217.84,1295.96 C1217.84,1249.02643 1221.67996,1199.53359 1229.36,1147.48 C1237.04004,1095.42641 1249.41325,1043.16026 1266.48,990.68 C1283.54675,938.199738 1305.94653,886.786918 1333.68,836.44 C1361.41347,786.093082 1395.33313,739.160218 1435.44,695.64 L1542.96,764.76 C1513.09318,804.866867 1488.13343,846.679782 1468.08,890.2 C1448.02657,933.720218 1431.8134,978.306438 1419.44,1023.96 C1407.0666,1069.61356 1398.10669,1115.47977 1392.56,1161.56 C1387.01331,1207.64023 1384.24,1252.43978 1384.24,1295.96 C1384.24,1336.9202 1387.22664,1380.43977 1393.2,1426.52 C1399.17336,1472.60023 1408.55994,1518.46644 1421.36,1564.12 C1434.16006,1609.77356 1450.7999,1654.35978 1471.28,1697.88 C1491.7601,1741.40022 1516.50652,1781.07982 1545.52,1816.92 L1431.6,1888.6 Z" id="if(" fill="#FFFFFF" fill-rule="nonzero"></path>
            <g id="cucumber" transform="translate(7006.000000, 9.000000)" fill-rule="nonzero">
                <path d="M1095.93809,0 C490.210945,0 0,491.56657 0,1098.9713 C0,1633.75689 382.28625,2078.10534 886.790566,2176.9643 L886.790566,2491.55402 C1542.6843,2392.39853 2123.44253,1870.30498 2166.78016,1184.96029 C2192.859,772.435125 1987.75294,351.301746 1641.81438,146.805715 C1622.00531,135.104977 1601.88275,123.480492 1581.15864,113.253996 C1560.04478,102.832629 1538.36325,92.6823867 1516.32587,83.8877695 C1509.32746,80.9562305 1502.47308,78.2958164 1495.40688,75.4998398 C1476.16548,68.3828086 1456.74615,60.3592031 1436.85236,54.5300156 C1329.60547,19.0888945 1214.97043,0 1095.93809,0 Z" id="Path" fill="#00A818"></path>
                <path d="M1322.97138,406.068996 C1285.4121,402.205465 1245.85327,415.312664 1218.19004,448.093371 C1198.06748,475.002527 1185.49406,501.055945 1172.08185,527.956629 C1131.83673,622.104785 1145.25742,722.98023 1205.61662,796.963465 C1299.50212,776.781598 1379.13662,716.676574 1419.38174,622.528418 C1432.79395,595.627734 1440.33462,561.160969 1440.33462,534.260285 C1444.52858,462.810375 1385.58431,412.508215 1322.97138,406.068996 Z M834.666785,412.372652 C773.434898,418.218785 715.210805,467.021285 715.210805,534.260285 C715.210805,561.160969 722.751469,595.627734 736.172156,622.528418 C776.408801,716.676574 862.330008,776.781598 956.223984,796.954992 C1009.87284,722.988703 1023.70022,622.104785 983.463574,527.956629 C970.051359,501.055945 957.477937,474.578895 937.355379,454.4055 C909.692156,421.61632 871.412695,408.864973 834.666785,412.381125 L834.666785,412.372652 Z M505.648125,736.019648 C399.89243,741.459094 352.657371,874.717031 440.679797,944.074195 C467.504227,964.239117 493.489863,978.956121 520.322766,992.410699 C614.199797,1032.75749 722.759941,1018.88775 803.241703,965.086383 C783.119145,877.665516 714.804117,797.387098 620.910141,757.031836 C587.375367,743.58573 560.135777,736.019648 526.609477,736.019648 C519.06034,735.172383 512.697375,735.655324 505.648125,736.019648 Z M1538.84619,1143.72387 C1477.41943,1142.5377 1415.19625,1160.53362 1364.90256,1194.15312 C1385.01664,1281.58246 1453.34014,1361.86088 1547.23412,1402.20766 C1580.76042,1415.65377 1608.00001,1423.21985 1641.53479,1423.21985 C1762.25319,1429.94714 1821.34997,1280.32003 1727.46446,1213.07256 C1700.63156,1192.89069 1674.64593,1180.28338 1647.8215,1166.83727 C1612.61761,1151.70511 1575.70225,1144.4271 1538.84619,1143.71539 L1538.84619,1143.72387 Z M623.002887,1150.01905 C586.146832,1150.73075 549.239941,1158.00877 514.027582,1173.14093 C480.492809,1186.58704 454.507172,1201.30404 434.384613,1221.47743 C347.20098,1295.44372 405.89107,1436.25927 526.601004,1429.52351 C560.135777,1429.52351 594.085711,1421.9659 620.910141,1408.51132 C714.804117,1368.16453 781.441559,1287.88611 794.853773,1200.45677 C744.055435,1166.50964 684.090113,1148.90999 623.002887,1150.01905 L623.002887,1150.01905 Z M962.519168,1355.97238 C868.625191,1376.14577 788.990695,1436.2508 748.754051,1530.39895 C735.341836,1557.29964 727.792699,1589.66518 727.792699,1616.56587 C721.090828,1730.88742 876.589488,1792.25487 943.659035,1704.82553 C963.773121,1677.92484 976.346543,1651.87143 989.758758,1624.97074 C1030.00388,1537.54987 1016.16803,1436.67443 962.519168,1355.97238 L962.519168,1355.97238 Z M1211.9118,1362.27604 C1158.25447,1436.2508 1144.4271,1537.12624 1184.66374,1631.28287 C1198.07596,1658.17508 1210.64938,1684.66061 1230.77194,1704.82553 C1304.54336,1785.52758 1459.61838,1725.83771 1452.92498,1624.97074 C1452.92498,1598.07006 1445.37585,1563.60329 1431.96363,1536.70261 C1391.71852,1442.55445 1305.80578,1382.44943 1211.9118,1362.27604 Z" id="Shape" fill="#FFFFFF"></path>
            </g>
            <text id="{" font-family="PTSans-Regular, PT Sans" font-size="2770" font-weight="normal" fill="#FFFFFF">
                <tspan x="0" y="4847">{</tspan>
            </text>
            <text id="{" transform="translate(9291.500000, 3991.000000) scale(-1, 1) translate(-9291.500000, -3991.000000) " font-family="PTSans-Regular, PT Sans" font-size="2770" font-weight="normal" fill="#FFFFFF">
                <tspan x="8812" y="4855">{</tspan>
            </text>
        </g>
    </g>
</svg>