<?xml version="1.0" encoding="UTF-8"?>
<svg width="903px" height="469px" viewBox="0 0 903 469" version="1.1" xmlns="http://www.w3.org/2000/svg" xmlns:xlink="http://www.w3.org/1999/xlink">
    <!-- Generator: Sketch 55.2 (78181) - https://sketchapp.com -->
    <title>Logo</title>
    <desc>Created with Sketch.</desc>
    <defs>
        <rect id="path-1" x="0" y="0" width="143" height="344"></rect>
    </defs>
    <g id="Transparent" stroke="none" stroke-width="1" fill="none" fill-rule="evenodd">
        <g id="Logo">
            <rect id="background" fill="#0B4F6C" x="0" y="0" width="903" height="469"></rect>
            <g id="icon" transform="translate(59.000000, 62.000000)">
                <g id="jar">
                    <path d="M281.7,134.923077 C278.242105,121.076923 272.478947,109.538462 263.257895,98.7692308 C254.421053,88 241.357895,77.6153846 239.821053,63 C242.510526,62.2307692 245.2,61.0769231 247.889474,59.9230769 C250.963158,58.7692308 253.268421,56.4615385 253.268421,52.6153846 C253.268421,41.8461538 253.268421,31.4615385 253.268421,20.6923077 C253.268421,17.2307692 250.963158,14.5384615 247.889474,13.3846154 C228.678947,6.84615385 207.931579,4.15384615 187.952632,2.23076923 C137.621053,-2.76923077 86.9052632,2.23076923 38.1105263,14.5384615 C32.3473684,16.0769231 31.9631579,22.6153846 35.0368421,26.0769231 C34.2684211,34.9230769 33.8842105,43.7692308 33.5,52.6153846 C33.5,55.3076923 35.4210526,57.6153846 38.1105263,58.3846154 C42.3368421,59.9230769 46.9473684,61.0769231 51.5578947,62.2307692 C48.4842105,78.3846154 34.6526316,90.3076923 24.6631579,102.615385 C15.4421053,113.769231 7.75789474,125.692308 4.3,139.923077 C-1.07894737,161.846154 -0.694736842,183.384615 4.68421053,204.153846 C14.6736842,242.230769 28.5052632,284.538462 51.9421053,316.846154 C60.0105263,328 69.6157895,337.230769 83.0631579,341.076923 C98.8157895,345.692308 116.873684,343.769231 133.010526,343.769231 C150.684211,343.384615 168.742105,343.384615 186.415789,343 C199.478947,342.615385 213.310526,342.230769 223.684211,333.384615 C237.9,321.846154 244.815789,301.076923 252.5,284.923077 C262.105263,264.923077 271.710526,244.153846 277.857895,222.615385 C285.926316,194.923077 288.231579,163 281.7,134.923077 Z M187.568421,17.2307692 C201.784211,18.7692308 216.768421,20.6923077 230.984211,24.5384615 C200.631579,33.3846154 167.205263,34.5384615 135.7,34.1538462 C118.410526,33.7692308 100.736842,32.6153846 83.4473684,30.6923077 C73.0736842,29.5384615 62.7,27.2307692 52.3263158,25.6923077 C96.8947368,16.0769231 142.231579,12.6153846 187.568421,17.2307692 Z M45.7947368,48.3846154 C45.7947368,44.9230769 45.7947368,41.4615385 45.4105263,38 C56.1684211,41.8461538 68.0789474,43 78.8368421,44.5384615 C97.6631579,46.8461538 116.873684,48 135.7,48.3846154 C169.510526,48.7692308 205.626316,47.6153846 238.284211,36.8461538 C238.284211,40.6923077 238.284211,44.1538462 238.284211,48 C208.7,58.7692308 175.273684,60.3076923 144.152632,59.9230769 C111.110526,59.5384615 77.6842105,56.0769231 45.7947368,48.3846154 Z M128.784211,86.0769231 C108.421053,86.4615385 88.0578947,87.6153846 68.0789474,90.6923077 C64.2368421,91.0769231 58.4736842,91.8461538 52.7105263,93 C58.4736842,84.9230769 62.3157895,76.0769231 62.3157895,65.6923077 C89.2105263,71.8461538 116.873684,74.1538462 144.152632,74.5384615 C169.510526,74.9230769 196.405263,74.1538462 221.763158,68.3846154 C224.068421,78.7692308 229.447368,86.4615385 235.978947,93.7692308 C200.631579,87.6153846 164.131579,85.6923077 128.784211,86.0769231 Z M222.915789,108 C188.721053,115.692308 152.605263,116.461538 118.026316,114.538462 C99.5842105,113.384615 80.7578947,111.076923 62.7,106.846154 C66.1578947,106.076923 70,105.692308 73.4578947,105.307692 C92.6684211,103 112.263158,102.230769 131.473684,102.230769 C161.057895,102.230769 193.331579,102.230769 222.915789,108 Z M269.021053,191.461538 C264.794737,229.923077 245.2,265.307692 227.142105,298.769231 C221.378947,309.538462 215.231579,320.307692 202.168421,322.230769 C187.184211,324.538462 171.047368,322.615385 156.063158,322.615385 C140.694737,322.615385 124.942105,322.230769 109.573684,322.230769 C93.0526316,322.230769 80.3736842,321.461538 68.8473684,308 C56.9368421,294.153846 49.6368421,276.846154 43.1052632,259.923077 C35.4210526,241.461538 28.5052632,223 22.7421053,203.769231 C16.2105263,181.846154 14.2894737,159.538462 21.5894737,137.230769 C25.0473684,127.230769 31.1947368,118.769231 38.1105263,110.692308 C42.3368421,113 46.5631579,114.538462 51.1736842,116.076923 C71.5368421,123 93.4368421,125.692308 114.568421,127.615385 C160.289474,131.846154 210.236842,129.923077 254.036842,114.923077 C254.421053,114.923077 254.805263,114.538462 255.189474,114.538462 C255.573684,114.923077 255.573684,114.923077 255.957895,115.307692 C272.478947,136.461538 271.710526,166.076923 269.021053,191.461538 Z" id="Shape" fill="#C3002F" fill-rule="nonzero"></path>
                    <g id="jar-left">
                        <mask id="mask-2" fill="white">
                            <use xlink:href="#path-1"></use>
                        </mask>
                        <g id="Mask"></g>
                        <path d="M281.7,134.923077 C278.242105,121.076923 272.478947,109.538462 263.257895,98.7692308 C254.421053,88 241.357895,77.6153846 239.821053,63 C242.510526,62.2307692 245.2,61.0769231 247.889474,59.9230769 C250.963158,58.7692308 253.268421,56.4615385 253.268421,52.6153846 C253.268421,41.8461538 253.268421,31.4615385 253.268421,20.6923077 C253.268421,17.2307692 250.963158,14.5384615 247.889474,13.3846154 C228.678947,6.84615385 207.931579,4.15384615 187.952632,2.23076923 C137.621053,-2.76923077 86.9052632,2.23076923 38.1105263,14.5384615 C32.3473684,16.0769231 31.9631579,22.6153846 35.0368421,26.0769231 C34.2684211,34.9230769 33.8842105,43.7692308 33.5,52.6153846 C33.5,55.3076923 35.4210526,57.6153846 38.1105263,58.3846154 C42.3368421,59.9230769 46.9473684,61.0769231 51.5578947,62.2307692 C48.4842105,78.3846154 34.6526316,90.3076923 24.6631579,102.615385 C15.4421053,113.769231 7.75789474,125.692308 4.3,139.923077 C-1.07894737,161.846154 -0.694736842,183.384615 4.68421053,204.153846 C14.6736842,242.230769 28.5052632,284.538462 51.9421053,316.846154 C60.0105263,328 69.6157895,337.230769 83.0631579,341.076923 C98.8157895,345.692308 116.873684,343.769231 133.010526,343.769231 C150.684211,343.384615 168.742105,343.384615 186.415789,343 C199.478947,342.615385 213.310526,342.230769 223.684211,333.384615 C237.9,321.846154 244.815789,301.076923 252.5,284.923077 C262.105263,264.923077 271.710526,244.153846 277.857895,222.615385 C285.926316,194.923077 288.231579,163 281.7,134.923077 Z M187.568421,17.2307692 C201.784211,18.7692308 216.768421,20.6923077 230.984211,24.5384615 C200.631579,33.3846154 167.205263,34.5384615 135.7,34.1538462 C118.410526,33.7692308 100.736842,32.6153846 83.4473684,30.6923077 C73.0736842,29.5384615 62.7,27.2307692 52.3263158,25.6923077 C96.8947368,16.0769231 142.231579,12.6153846 187.568421,17.2307692 Z M45.7947368,48.3846154 C45.7947368,44.9230769 45.7947368,41.4615385 45.4105263,38 C56.1684211,41.8461538 68.0789474,43 78.8368421,44.5384615 C97.6631579,46.8461538 116.873684,48 135.7,48.3846154 C169.510526,48.7692308 205.626316,47.6153846 238.284211,36.8461538 C238.284211,40.6923077 238.284211,44.1538462 238.284211,48 C208.7,58.7692308 175.273684,60.3076923 144.152632,59.9230769 C111.110526,59.5384615 77.6842105,56.0769231 45.7947368,48.3846154 Z M128.784211,86.0769231 C108.421053,86.4615385 88.0578947,87.6153846 68.0789474,90.6923077 C64.2368421,91.0769231 58.4736842,91.8461538 52.7105263,93 C58.4736842,84.9230769 62.3157895,76.0769231 62.3157895,65.6923077 C89.2105263,71.8461538 116.873684,74.1538462 144.152632,74.5384615 C169.510526,74.9230769 196.405263,74.1538462 221.763158,68.3846154 C224.068421,78.7692308 229.447368,86.4615385 235.978947,93.7692308 C200.631579,87.6153846 164.131579,85.6923077 128.784211,86.0769231 Z M222.915789,108 C188.721053,115.692308 152.605263,116.461538 118.026316,114.538462 C99.5842105,113.384615 80.7578947,111.076923 62.7,106.846154 C66.1578947,106.076923 70,105.692308 73.4578947,105.307692 C92.6684211,103 112.263158,102.230769 131.473684,102.230769 C161.057895,102.230769 193.331579,102.230769 222.915789,108 Z M269.021053,191.461538 C264.794737,229.923077 245.2,265.307692 227.142105,298.769231 C221.378947,309.538462 215.231579,320.307692 202.168421,322.230769 C187.184211,324.538462 171.047368,322.615385 156.063158,322.615385 C140.694737,322.615385 124.942105,322.230769 109.573684,322.230769 C93.0526316,322.230769 80.3736842,321.461538 68.8473684,308 C56.9368421,294.153846 49.6368421,276.846154 43.1052632,259.923077 C35.4210526,241.461538 28.5052632,223 22.7421053,203.769231 C16.2105263,181.846154 14.2894737,159.538462 21.5894737,137.230769 C25.0473684,127.230769 31.1947368,118.769231 38.1105263,110.692308 C42.3368421,113 46.5631579,114.538462 51.1736842,116.076923 C71.5368421,123 93.4368421,125.692308 114.568421,127.615385 C160.289474,131.846154 210.236842,129.923077 254.036842,114.923077 C254.421053,114.923077 254.805263,114.538462 255.189474,114.538462 C255.573684,114.923077 255.573684,114.923077 255.957895,115.307692 C272.478947,136.461538 271.710526,166.076923 269.021053,191.461538 Z" id="Shape" fill="#FF0039" fill-rule="nonzero" mask="url(#mask-2)"></path>
                    </g>
                </g>
                <g id="slices" transform="translate(55.000000, 137.000000)" fill-rule="nonzero">
                    <g id="cucumber">
                        <path d="M67.4151506,27.0283659 C65.7833787,26.8612382 64.0647359,27.4282261 62.8629007,28.8462455 C61.9886714,30.0102748 61.4424162,31.1372869 60.8597193,32.3009497 C59.1112608,36.3735864 59.6943257,40.7372304 62.3166454,43.9375781 C66.3955232,43.0645561 69.8552626,40.4645484 71.6037211,36.3919118 C72.186418,35.2282489 72.5140239,33.7372945 72.5140239,32.5736316 C72.6962317,29.4828698 70.135384,27.306912 67.4151506,27.0283659 Z M46.2006428,27.3010478 C43.5404091,27.5539383 41.0108496,29.6650243 41.0108496,32.5736316 C41.0108496,33.7372945 41.3384556,35.2282489 41.9215205,36.3919118 C43.6696109,40.4645484 47.402478,43.0645561 51.4817238,43.9372116 C53.8125111,40.7375969 54.4132446,36.3735864 52.6651542,32.3009497 C52.0824574,31.1372869 51.5362021,29.9919494 50.6619728,29.1192939 C49.4601376,27.700908 47.7970774,27.1493135 46.2006428,27.3014143 L46.2006428,27.3010478 Z M31.9063498,41.3012862 C27.3117688,41.5365843 25.2596306,47.3010218 29.0837856,50.3012561 C30.2491792,51.1735451 31.3781313,51.8101695 32.543893,52.3921842 C36.6224027,54.1374952 41.3388237,53.5375216 44.8353727,51.2101959 C43.9611434,47.4285666 40.993181,43.9559035 36.9139352,42.210226 C35.4570091,41.6285778 34.2735787,41.3012862 32.8170207,41.3012862 C32.4890467,41.2646354 32.2126062,41.2855263 31.9063498,41.3012862 Z" id="Shape" fill="#FFFFFF"></path>
                        <path d="M77.1729558,19.3122887 C85.0229838,23.4339078 86.7775497,24.7718739 92.76057,30.745849 C96.4865416,34.4661875 100.082865,40.0705312 101.785997,43.7828425 L112.692932,38.7789665 C110.44131,33.8711123 106.102778,27.110147 101.23943,22.254151 C94.4457714,15.4707633 91.7388243,13.4065471 82.7513386,8.6877113 C75.9232114,5.10263617 68.6622395,2.57416723 60.9870748,1.10674436 L60.6749182,1.04706282 L60.3582036,1.02069161 C51.0820574,0.24831411 42.9426272,1.38261165 36.005578,4.51109317 C34.4106395,5.23038107 29.2701358,7.44475221 28.1819494,7.96984225 C27.4286643,8.33333013 26.7479633,8.69219351 26.076464,9.08391258 C24.0806065,10.2481959 22.2291133,11.6494215 18.9213372,14.4402623 C15.3265529,17.4732582 13.5886797,19.0829945 12.0727621,20.8795816 C11.3376689,21.750776 10.6875805,22.6380335 10.0410007,23.6420013 C9.20643841,24.9378562 9.09953158,25.1284156 6.73965937,29.4298244 C2.67687236,36.8351861 2.28925369,38.0465766 1.17876132,46.565221 C0.572222811,51.2180092 0.414606697,53.2144374 0.568594496,55.5787383 C0.709619107,57.7440046 0.920216651,58.8266513 2.14424121,64.3077037 C3.90881596,72.2092827 4.67544318,74.0391012 9.78828773,83.0023338 C13.6121226,89.7058275 17.0089241,93.5861709 21.2308604,94.7226776 L24.3501111,83.1351725 C24.6115583,83.2055517 24.7153217,83.2595982 24.6954206,83.2447098 C24.4665692,83.073501 24.1439043,82.7655641 23.7542822,82.3204784 C22.7550552,81.1790093 21.5565838,79.4142297 20.2117123,77.0565604 C15.6489279,69.0576281 15.3312458,68.299371 13.8557588,61.6922963 C12.8012473,56.9703057 12.6259633,56.0691998 12.5432234,54.7988262 C12.4559532,53.4588952 12.5700813,52.0133033 13.07808,48.1164188 C13.9986492,41.0546847 13.9278163,41.2760525 17.2603406,35.2017621 C19.4000308,31.3016857 19.5269171,31.0755133 20.1297819,30.1394233 C20.5059603,29.5553176 20.8526381,29.0821628 21.244141,28.6181738 C22.1937934,27.4926949 23.5612596,26.2260548 26.6596343,23.6118903 C29.4771271,21.2347119 30.8724553,20.1787157 32.1230447,19.4491845 C32.5095028,19.2237442 32.9147135,19.0101184 33.3969947,18.7773999 C34.2090818,18.3855379 39.1371382,16.2626826 40.938882,15.4501293 C45.8142737,13.2514174 51.8292408,12.3913927 59.0466633,12.9538531 C65.4503305,14.2085766 71.4865048,16.3266452 77.1729558,19.3122887 Z" id="Path-2" fill="#00A818"></path>
                    </g>
                    <g id="cucumber" transform="translate(95.000000, 32.000000)">
                        <path d="M54.4151506,20.0283659 C52.7833787,19.8612382 51.0647359,20.4282261 49.8629007,21.8462455 C48.9886714,23.0102748 48.4424162,24.1372869 47.8597193,25.3009497 C46.1112608,29.3735864 46.6943257,33.7372304 49.3166454,36.9375781 C53.3955232,36.0645561 56.8552626,33.4645484 58.6037211,29.3919118 C59.186418,28.2282489 59.5140239,26.7372945 59.5140239,25.5736316 C59.6962317,22.4828698 57.135384,20.306912 54.4151506,20.0283659 Z M33.2006428,20.3010478 C30.5404091,20.5539383 28.0108496,22.6650243 28.0108496,25.5736316 C28.0108496,26.7372945 28.3384556,28.2282489 28.9215205,29.3919118 C30.6696109,33.4645484 34.402478,36.0645561 38.4817238,36.9372116 C40.8125111,33.7375969 41.4132446,29.3735864 39.6651542,25.3009497 C39.0824574,24.1372869 38.5362021,22.9919494 37.6619728,22.1192939 C36.4601376,20.700908 34.7970774,20.1493135 33.2006428,20.3014143 L33.2006428,20.3010478 Z M63.7938823,51.9376502 C61.1251824,51.8863391 58.4218814,52.664802 56.2368604,54.1191057 C57.1107216,57.9011015 60.0790521,61.3737646 64.1582979,63.1190756 C65.6148559,63.7007238 66.7982863,64.0280154 68.2552124,64.0280154 C73.4998519,64.3190228 76.0673253,57.8464918 71.9884475,54.937518 C70.8226858,54.064496 69.6937337,53.5191321 68.52834,52.937484 C66.9988989,52.2829007 65.3951023,51.9680703 63.7938823,51.9372837 L63.7938823,51.9376502 Z M49.5901412,61.3917235 C47.2589858,64.5917047 46.6582522,68.9553487 48.4063427,73.0283519 C48.9890395,74.1916482 49.5352948,75.3373522 50.4095241,76.2096412 C53.6145406,79.7006297 60.3518116,77.118581 60.0610153,72.7553035 C60.0610153,71.5916406 59.7330413,70.1006862 59.1503445,68.9370233 C57.4018859,64.8643866 53.669387,62.264379 49.5901412,61.3917235 Z" id="Shape" fill="#FFFFFF"></path>
                        <path d="M79.168571,25.4420292 C80.3523254,27.0063767 81.3892246,28.6396383 82.2817955,30.3444768 C83.2141146,32.1252358 83.9947488,33.9951386 84.6243653,35.958264 C85.1825036,37.6262109 85.5795016,39.3022726 85.8398848,41.0701891 C86.1136196,42.9287589 86.1608918,43.2887485 86.1934776,43.776555 C86.2278456,44.2910412 86.2324488,44.7074185 86.2324488,47 C86.2324488,48.1583779 86.2491688,49.0072845 86.2843148,50.0381462 C86.2936876,50.3084687 86.2936876,50.3084687 86.3022058,50.5518508 C86.3084588,50.7329342 86.3128107,50.8678285 86.3164156,50.9953242 C86.3428302,51.9295395 86.3292146,52.7182884 86.2430957,54.2210673 C86.2159325,54.6950665 86.1930871,55.1271583 86.1675102,55.6391711 C86.1527291,55.9369529 86.1527291,55.9369529 86.1395085,56.2050139 C86.1268925,56.4587735 86.1221477,56.5526012 86.1151692,56.6850843 C86.0881683,57.1976852 86.0663453,57.5147138 86.03825,57.7985198 C85.974294,58.4445755 85.8478087,59.170873 85.5083462,60.7663224 C85.423623,61.1645153 85.0396605,63.0278254 84.9677841,63.3379948 C84.9274265,63.512151 84.8939381,63.6418573 84.8604733,63.7562693 C84.7315175,64.1971527 84.4929654,64.7846892 83.6609519,66.6634026 C83.0639976,68.0113447 82.688939,68.771894 82.3280514,69.3986968 C82.2598834,69.5170934 82.1885479,69.6372838 82.1099411,69.7662808 C82.0500614,69.8645458 80.558798,72.1938867 79.7969811,73.450642 C78.4851085,75.6148139 78.2378945,76.003976 77.8888992,76.4536978 C77.528609,76.9179741 77.1545466,77.3186824 75.3268901,79.1980131 C74.2038479,80.3528077 73.6031903,80.8912114 73.0695279,81.270958 C72.9517059,81.3547985 72.8227931,81.4415623 72.6682216,81.5408989 C72.6582693,81.5472948 70.2354258,83.0197287 69.0106079,83.8193928 C67.7066703,84.670713 65.4517655,86.2774032 65.5785411,86.192401 C65.4524689,86.2769316 65.3452392,86.3447463 65.2375791,86.4081731 C64.7197946,86.7132203 63.8801554,87.095973 62.1094573,87.7962738 C57.8918472,89.4643142 57.8231652,89.4818348 53.3261075,90.0861291 C51.587008,90.3198215 50.7272167,90.3509888 49.6236534,90.2774995 C49.4785488,90.2678365 49.3215518,90.2561668 49.1131284,90.2397274 L48.4970898,90.1906128 C47.0928471,90.0802488 45.9863185,90.0282276 44.5,90.0282276 L35.3431213,90.0282276 L35.3431213,103.028228 L44.5,103.028228 C45.6071793,103.028228 46.3878634,103.06493 47.4785186,103.150648 L48.0909306,103.199477 C48.3476789,103.219728 48.5536291,103.235037 48.7598607,103.24877 C50.7412107,103.380714 52.46967,103.318057 55.0574277,102.970326 C60.5775811,102.228553 61.6698449,101.949918 66.8905427,99.8851622 C69.2375975,98.9569156 70.6106559,98.3310018 71.8363609,97.6088909 C72.1711695,97.411642 72.4903421,97.2097892 72.8182218,96.9899481 C72.9229633,96.9197197 75.09,95.3756382 76.1175119,94.7047921 C77.1194054,94.0506717 79.4884573,92.6109285 79.6965239,92.477213 C80.0155711,92.272175 80.312619,92.072249 80.6066767,91.8630016 C81.8721523,90.962507 83.0219343,89.9318917 84.6465119,88.2613817 C86.888512,85.9559924 87.3721628,85.4378893 88.159195,84.4237055 C88.9487261,83.4063015 89.2832208,82.8797428 90.9139763,80.1895155 C91.5681612,79.1103188 93.048518,76.798014 93.2111991,76.5310476 C93.3442202,76.3127546 93.4703476,76.1002475 93.5941344,75.8852501 C94.212566,74.8111355 94.7799318,73.6606229 95.5474663,71.9275053 C96.6189636,69.5080296 96.9903269,68.5933886 97.3376946,67.4057825 C97.4449914,67.0389486 97.5391445,66.6742773 97.6321915,66.2727495 C97.7464124,65.7798497 98.1701853,63.7233463 98.223715,63.4717608 C98.6548622,61.4453994 98.8539331,60.3023054 98.9750149,59.0791889 C99.0264069,58.5600495 99.0605743,58.06369 99.0971718,57.3689031 C99.1050178,57.219951 99.1104219,57.1130868 99.1236038,56.8478737 C99.1370056,56.5761527 99.1370056,56.5761527 99.1513206,56.2877607 C99.1754334,55.8050572 99.1966758,55.4032832 99.2218019,54.9648306 C99.3285009,53.1032275 99.3484718,51.9453227 99.3112223,50.6279016 C99.3067242,50.4688145 99.3015702,50.309057 99.2944622,50.1032148 C99.2855716,49.849123 99.2855716,49.849123 99.2767658,49.5951838 C99.2463325,48.70255 99.2324488,47.9976446 99.2324488,47 C99.2324488,44.3202041 99.2272295,43.8480968 99.1645691,42.9100769 C99.0994136,41.9347057 99.0332774,41.4310617 98.7011391,39.1759511 C98.3302582,36.6577919 97.7561314,34.2339209 96.977241,31.9086375 C96.1470902,29.3184922 95.0787152,26.7593455 93.7988264,24.3147174 C92.5184649,21.8691864 91.0252157,19.5359361 89.3219543,17.3179967 L89.1573744,17.1036853 L84.6173178,12.1113188 L84.4237019,11.9304632 C82.6863592,10.3076207 80.8909458,8.76153685 79.0377445,7.29253942 C78.8703218,7.1598266 76.9223626,5.59901371 76.4174371,5.21063339 C76.3114609,5.12911831 76.2069041,5.04945572 76.1024802,4.97070179 C75.1555928,4.25658262 74.1678912,3.57856458 72.5667592,2.54263821 C72.1672895,2.28418281 70.9912917,1.51811066 70.7665505,1.37303362 C70.1665788,0.985734472 69.7354411,0.71751063 69.2836156,0.455393356 C69.0970286,0.347148746 68.9110596,0.242561053 68.721198,0.139161898 C67.9190612,-0.297684166 67.1163457,-0.682218554 65.5027999,-1.4163763 C65.3999234,-1.46318475 63.9775686,-2.11356348 63.625174,-2.27196075 C62.9718512,-2.56562175 62.464832,-2.78222468 61.9450981,-2.98520872 C61.5052669,-3.15698649 61.0698938,-3.31306279 60.6078387,-3.46427132 C59.7106348,-3.75788322 58.7188618,-4.03303817 57.1729269,-4.42537215 C55.0265984,-4.97007657 53.9149252,-5.20518794 52.683131,-5.35217787 C52.2174932,-5.40774241 51.7737901,-5.446013 51.1792862,-5.48636161 C51.0362101,-5.49607209 50.8891805,-5.50563106 50.6789575,-5.51900574 C50.4203789,-5.5353958 50.4203789,-5.5353958 50.1464856,-5.55289976 C49.6905764,-5.58224249 49.3037861,-5.60869843 48.8779674,-5.6403512 C46.4318429,-5.82218128 45.7939243,-5.85895765 44.7929994,-5.8498519 C43.9358397,-5.84205404 44.0239181,-5.84780397 41.2002555,-5.64084604 C37.5093768,-5.37032625 36.8496217,-5.27870161 33.001601,-4.49402871 C32.2635275,-4.34352373 31.9366355,-4.2867826 30.4101176,-4.03452693 C30.1423143,-3.99027269 29.9362121,-3.95575995 29.7316822,-3.92070304 C26.8452434,-3.42596059 24.5975798,-2.82094719 21.360907,-1.55073632 C19.0387502,-0.639421195 17.7383569,-0.074758315 16.5602021,0.559849788 C16.1017025,0.806818706 15.6691461,1.06154228 15.232325,1.34024644 C14.4702189,1.82649158 11.6334755,3.8717525 11.2750368,4.12240473 C8.21360282,6.26323203 5.7378123,8.4239564 3.84772054,10.6527477 C1.67705124,12.8156479 -0.247083467,15.1623812 -1.91966779,17.6884777 C-3.68399221,20.353129 -5.05460443,23.0454675 -6.01751847,25.767631 L6.23831428,30.1029008 C6.83383533,28.4193593 7.72295783,26.6728268 8.91966779,24.8654412 C10.1484474,23.0096209 11.5705276,21.2879677 13.1914803,19.6955159 L13.4342319,19.4570326 L13.6507538,19.1945046 C14.7459284,17.8666302 16.4373108,16.3757071 18.7249632,14.7759768 C19.3712885,14.3240086 21.8288967,12.5520999 22.2246851,12.2995758 C22.3960237,12.190257 22.5530714,12.0977748 22.7251347,12.0050936 C23.3248923,11.6820367 24.241178,11.2841628 26.1100501,10.5507363 C28.4831335,9.61943539 29.8797967,9.24348948 31.9278857,8.89244219 C32.10245,8.86252143 32.2852,8.83191913 32.5296116,8.79153034 C34.2299781,8.51054636 34.6409325,8.43921386 35.5990554,8.24383731 C38.9069298,7.56930887 39.0166562,7.55407043 42.1505303,7.32437582 C44.4876731,7.15307694 44.4807896,7.15352631 44.9112598,7.14961018 C45.4018464,7.14514715 45.8829021,7.17288028 47.914285,7.32388098 C48.3877182,7.35907314 48.8158119,7.38835417 49.3115212,7.42025847 C49.5990506,7.43863391 49.5990506,7.43863391 49.8535487,7.45476397 C50.0469755,7.46707004 50.1781737,7.47559975 50.2990094,7.4838008 C50.691895,7.5104657 50.9345752,7.53139752 51.1427701,7.5562414 C51.6796965,7.6203128 52.3339857,7.75869055 53.9751047,8.17518074 C55.2596615,8.50118106 56.0073436,8.70861605 56.5645604,8.89096645 C56.7960343,8.96671681 57.0026358,9.04078109 57.2157893,9.12402898 C57.7242803,9.32262208 56.9630401,8.9804535 60.1189383,10.4163763 C61.4614397,11.0272098 62.0546636,11.3113889 62.5036149,11.5558891 C62.5902888,11.603092 62.6743171,11.6503489 62.7601917,11.7001673 C63.0011617,11.8399611 63.2743472,12.0099181 63.7160648,12.2950596 C63.9122431,12.4216984 65.0806477,13.1828242 65.5049741,13.4573618 C66.8659663,14.3379186 67.6123647,14.8502916 68.2747721,15.349863 C68.3457605,15.4034007 68.4176173,15.4581488 68.4915045,15.5149816 C68.8759791,15.8107131 70.6999434,17.2721745 70.9622555,17.4801043 C72.4723506,18.677128 73.9381058,19.9349206 75.3597691,21.2537698 L79.168571,25.4420292 Z" id="Path-3" fill="#00A818"></path>
                    </g>
                    <g id="cucumber" transform="translate(12.000000, 49.000000)">
                        <path d="M63.5,127 C98.5700816,127 127,98.5700816 127,63.5 C127,28.4299184 98.5700816,0 63.5,0 C28.4299184,0 0,28.4299184 0,63.5 C0,98.5700816 28.4299184,127 63.5,127 Z M63.5,113 C36.1619049,113 14,90.8380951 14,63.5 C14,36.1619049 36.1619049,14 63.5,14 C90.8380951,14 113,36.1619049 113,63.5 C113,90.8380951 90.8380951,113 63.5,113 Z" id="Oval" fill="#00A818"></path>
                        <path d="M76.151009,30.0332566 C74.2472751,29.8373138 72.2421919,30.5020582 70.8400508,32.1645637 C69.8201167,33.5292877 69.1828189,34.8506122 68.5030059,36.2149065 C66.4631376,40.989722 67.14338,46.1057184 70.202753,49.8578501 C74.9614437,48.8343071 78.9978063,45.7860223 81.0376747,41.0112069 C81.7174876,39.6469125 82.0996945,37.898897 82.0996945,36.5346026 C82.3122703,32.9109508 79.3246147,30.3598278 76.151009,30.0332566 Z M51.4007499,30.3529526 C48.2971439,30.6494449 45.3459912,33.1245112 45.3459912,36.5346026 C45.3459912,37.898897 45.7281982,39.6469125 46.4084406,41.0112069 C48.4478794,45.7860223 52.8028909,48.8343071 57.5620111,49.8574205 C60.2812629,46.1061481 60.9821188,40.989722 58.9426799,36.2149065 C58.2628669,34.8506122 57.6255691,33.5078028 56.6056349,32.4846894 C55.2034939,30.8217542 53.263257,30.1750572 51.4007499,30.3533823 L51.4007499,30.3529526 Z M34.7240748,46.7670252 C29.3637303,47.0428919 26.9695691,53.801198 31.4310832,57.3187141 C32.7907091,58.3413977 34.1078198,59.0877849 35.4678752,59.7701469 C40.2261365,61.8163736 45.7286276,61.1129564 49.8079348,58.3843676 C48.7880006,53.9507332 45.3253778,49.8793351 40.5662577,47.8326787 C38.8665106,47.1507464 37.4858418,46.7670252 35.7865241,46.7670252 C35.4038878,46.7240553 35.0813738,46.7485481 34.7240748,46.7670252 Z M87.0928627,67.4441416 C83.9793795,67.3839837 80.8255284,68.2966644 78.2763371,70.0017101 C79.2958418,74.4357742 82.7588941,78.5071723 87.5180142,80.553399 C89.2173319,81.2353314 90.5980007,81.6190526 92.2977478,81.6190526 C98.4164939,81.9602336 101.411879,74.3717491 96.6531888,70.961228 C95.2931334,69.937685 93.9760226,69.2982928 92.6163967,68.6163605 C90.8320487,67.8489181 88.9609527,67.4798066 87.0928627,67.4437119 L87.0928627,67.4441416 Z M40.6723308,67.763408 C38.8042409,67.7995027 36.9335743,68.1686141 35.1487969,68.9360566 C33.4490497,69.6179889 32.131939,70.3643761 31.1120048,71.3874894 C26.6930059,75.1387618 29.667778,82.2803594 35.7860947,81.9387486 C37.4858418,81.9387486 39.2066318,81.5554571 40.5662577,80.8730951 C45.3253778,78.8268684 48.7029703,74.7554703 49.3827833,70.3214062 C46.8080133,68.5997441 43.7686046,67.7071611 40.6723308,67.763408 L40.6723308,67.763408 Z M57.8810895,78.2085315 C53.1219693,79.2316449 49.0856067,82.2799297 47.0461678,87.0547451 C46.3663549,88.4190394 45.9837185,90.0604897 45.9837185,91.424784 C45.6440267,97.2227128 53.5256485,100.335023 56.9251427,95.9009586 C57.9446475,94.5366643 58.5819453,93.2153398 59.2617582,91.8510454 C61.3016265,87.417411 60.6003413,82.3014146 57.8810895,78.2085315 L57.8810895,78.2085315 Z M70.5218314,78.5282276 C67.8021501,82.2799297 67.1012943,87.3959261 69.1407332,92.1711712 C69.8205461,93.5350359 70.4578439,94.878275 71.4777781,95.9009586 C75.2169641,99.9938417 83.0771135,96.9666122 82.7378512,91.8510454 C82.7378512,90.4867511 82.3552149,88.7387355 81.6754019,87.3744411 C79.6355336,82.5996257 75.2809515,79.5513409 70.5218314,78.5282276 Z" id="Shape" fill="#FFFFFF"></path>
                    </g>
                </g>
            </g>
            <path d="M426.008,359.814 C426.008,357.18732 424.891678,355.086008 422.659,353.51 C420.426322,351.933992 417.66835,350.48934 414.385,349.176 C411.10165,347.86266 407.49002,346.516507 403.55,345.1375 C399.60998,343.758493 395.99835,341.854179 392.715,339.4245 C389.43165,336.994821 386.673678,333.908519 384.441,330.1655 C382.208322,326.422481 381.092,321.59603 381.092,315.686 C381.092,305.967285 383.981304,298.547026 389.76,293.425 C395.538696,288.302974 403.878279,285.742 414.779,285.742 C422.265037,285.742 429.028636,286.529992 435.07,288.106 C441.111364,289.682008 445.839316,291.45499 449.254,293.425 L443.541,311.943 C440.520318,310.760994 436.71169,309.51334 432.115,308.2 C427.51831,306.88666 422.856024,306.23 418.128,306.23 C410.510629,306.23 406.702,309.18497 406.702,315.095 C406.702,317.459012 407.818322,319.363326 410.051,320.808 C412.283678,322.252674 415.04165,323.598827 418.325,324.8465 C421.60835,326.094173 425.21998,327.440326 429.16,328.885 C433.10002,330.329674 436.71165,332.201155 439.995,334.4995 C443.27835,336.797845 446.036322,339.785648 448.269,343.463 C450.501678,347.140352 451.618,351.868304 451.618,357.647 C451.618,367.628383 448.433199,375.475471 442.0635,381.1885 C435.693801,386.901529 426.139397,389.758 413.4,389.758 C406.439299,389.758 399.905531,388.871509 393.7985,387.0985 C387.691469,385.325491 382.733686,383.257012 378.925,380.893 L386.017,361.784 C389.037682,363.491342 393.043308,365.165825 398.034,366.8075 C403.024692,368.449175 408.14664,369.27 413.4,369.27 C417.208686,369.27 420.262155,368.547674 422.5605,367.103 C424.858845,365.658326 426.008,363.228684 426.008,359.814 Z M494.761,353.904 C494.761,358.50069 495.351994,361.849656 496.534,363.951 C497.716006,366.052344 499.62032,367.103 502.247,367.103 C503.823008,367.103 505.366159,366.971668 506.8765,366.709 C508.386841,366.446332 510.258322,365.855338 512.491,364.936 L515.249,385.03 C513.147656,386.080672 509.930022,387.131328 505.596,388.182 C501.261978,389.232672 496.79669,389.758 492.2,389.758 C484.713963,389.758 479.00102,388.017851 475.061,384.5375 C471.12098,381.057149 469.151,375.311373 469.151,367.3 L469.151,249.1 L494.761,249.1 L494.761,353.904 Z M528.645,288.5 L554.255,288.5 L554.255,387 L528.645,387 L528.645,288.5 Z M524.902,260.723 C524.902,256.914314 526.313819,253.663847 529.1375,250.9715 C531.961181,248.279153 535.868308,246.933 540.859,246.933 C545.849692,246.933 549.888151,248.279153 552.9745,250.9715 C556.060849,253.663847 557.604,256.914314 557.604,260.723 C557.604,264.531686 556.060849,267.716487 552.9745,270.2775 C549.888151,272.838513 545.849692,274.119 540.859,274.119 C535.868308,274.119 531.961181,272.838513 529.1375,270.2775 C526.313819,267.716487 524.902,264.531686 524.902,260.723 Z M649.012,380.893 C645.07198,383.782348 640.311195,385.982159 634.7295,387.4925 C629.147805,389.002841 623.40203,389.758 617.492,389.758 C609.611961,389.758 602.946861,388.510346 597.4965,386.015 C592.046139,383.519654 587.613684,380.006523 584.199,375.4755 C580.784316,370.944477 578.321841,365.461366 576.8115,359.026 C575.301159,352.590634 574.546,345.498705 574.546,337.75 C574.546,321.070583 578.288963,308.232878 585.775,299.2365 C593.261037,290.240122 604.161595,285.742 618.477,285.742 C625.700369,285.742 631.511811,286.332994 635.9115,287.515 C640.311189,288.697006 644.283982,290.207324 647.83,292.046 L641.723,312.928 C638.702318,311.483326 635.714515,310.367004 632.7595,309.579 C629.804485,308.790996 626.422686,308.397 622.614,308.397 C615.521965,308.397 610.137352,310.728143 606.46,315.3905 C602.782648,320.052857 600.944,327.505949 600.944,337.75 C600.944,341.952688 601.403662,345.826982 602.323,349.373 C603.242338,352.919018 604.621324,356.00532 606.46,358.632 C608.298676,361.25868 610.695485,363.327159 613.6505,364.8375 C616.605515,366.347841 620.05298,367.103 623.993,367.103 C628.327022,367.103 632.004318,366.544839 635.025,365.4285 C638.045682,364.312161 640.737988,362.966008 643.102,361.39 L649.012,380.893 Z M740.026,378.529 C736.08598,381.681016 730.7342,384.340489 723.9705,386.5075 C717.2068,388.674511 710.016371,389.758 702.399,389.758 C686.507587,389.758 674.884703,385.128546 667.53,375.8695 C660.175297,366.610454 656.498,353.904081 656.498,337.75 C656.498,320.413913 660.634959,307.412043 668.909,298.744 C677.183041,290.075957 688.805925,285.742 703.778,285.742 C708.768692,285.742 713.627976,286.39866 718.356,287.712 C723.084024,289.02534 727.286648,291.192318 730.964,294.213 C734.641352,297.233682 737.596322,301.304974 739.829,306.427 C742.061678,311.549026 743.178,317.918629 743.178,325.536 C743.178,328.294014 743.013835,331.248984 742.6855,334.401 C742.357165,337.553016 741.86467,340.836316 741.208,344.251 L682.108,344.251 C682.502002,352.525041 684.636147,358.763312 688.5105,362.966 C692.384853,367.168688 698.655957,369.27 707.324,369.27 C712.708694,369.27 717.535145,368.449175 721.8035,366.8075 C726.071855,365.165825 729.322322,363.491342 731.555,361.784 L740.026,378.529 Z M703.384,306.23 C696.685967,306.23 691.728183,308.232813 688.5105,312.2385 C685.292817,316.244187 683.35567,321.595967 682.699,328.294 L719.341,328.294 C719.866336,321.201965 718.782847,315.751686 716.0905,311.943 C713.398153,308.134314 709.162696,306.23 703.384,306.23 Z M802.081,359.814 C802.081,357.18732 800.964678,355.086008 798.732,353.51 C796.499322,351.933992 793.74135,350.48934 790.458,349.176 C787.17465,347.86266 783.56302,346.516507 779.623,345.1375 C775.68298,343.758493 772.07135,341.854179 768.788,339.4245 C765.50465,336.994821 762.746678,333.908519 760.514,330.1655 C758.281322,326.422481 757.165,321.59603 757.165,315.686 C757.165,305.967285 760.054304,298.547026 765.833,293.425 C771.611696,288.302974 779.951279,285.742 790.852,285.742 C798.338037,285.742 805.101636,286.529992 811.143,288.106 C817.184364,289.682008 821.912316,291.45499 825.327,293.425 L819.614,311.943 C816.593318,310.760994 812.78469,309.51334 808.188,308.2 C803.59131,306.88666 798.929024,306.23 794.201,306.23 C786.583629,306.23 782.775,309.18497 782.775,315.095 C782.775,317.459012 783.891322,319.363326 786.124,320.808 C788.356678,322.252674 791.11465,323.598827 794.398,324.8465 C797.68135,326.094173 801.29298,327.440326 805.233,328.885 C809.17302,330.329674 812.78465,332.201155 816.068,334.4995 C819.35135,336.797845 822.109322,339.785648 824.342,343.463 C826.574678,347.140352 827.691,351.868304 827.691,357.647 C827.691,367.628383 824.506199,375.475471 818.1365,381.1885 C811.766801,386.901529 802.212397,389.758 789.473,389.758 C782.512299,389.758 775.978531,388.871509 769.8715,387.0985 C763.764469,385.325491 758.806686,383.257012 754.998,380.893 L762.09,361.784 C765.110682,363.491342 769.116308,365.165825 774.107,366.8075 C779.097692,368.449175 784.21964,369.27 789.473,369.27 C793.281686,369.27 796.335155,368.547674 798.6335,367.103 C800.931845,365.658326 802.081,363.228684 802.081,359.814 Z" id="slices" fill="#FFFFFF" fill-rule="nonzero"></path>
            <path d="M420.799,222.621 C418.618989,224.219675 415.984849,225.436829 412.8965,226.2725 C409.808151,227.108171 406.629016,227.526 403.359,227.526 C398.998978,227.526 395.311182,226.835674 392.2955,225.455 C389.279818,224.074326 386.827343,222.130513 384.938,219.6235 C383.048657,217.116487 381.686171,214.082684 380.8505,210.522 C380.014829,206.961316 379.597,203.037355 379.597,198.75 C379.597,189.521287 381.667979,182.418192 385.81,177.4405 C389.952021,172.462808 395.983294,169.974 403.904,169.974 C407.900687,169.974 411.116154,170.300997 413.5505,170.955 C415.984846,171.609003 418.18299,172.444662 420.145,173.462 L416.766,185.016 C415.094658,184.216663 413.441508,183.599002 411.8065,183.163 C410.171492,182.726998 408.300344,182.509 406.193,182.509 C402.26898,182.509 399.289677,183.79882 397.255,186.3785 C395.220323,188.95818 394.203,193.081972 394.203,198.75 C394.203,201.075345 394.457331,203.21899 394.966,205.181 C395.474669,207.14301 396.237662,208.850659 397.255,210.304 C398.272338,211.757341 399.598492,212.901829 401.2335,213.7375 C402.868508,214.573171 404.775989,214.991 406.956,214.991 C409.354012,214.991 411.388658,214.68217 413.06,214.0645 C414.731342,213.44683 416.220993,212.702004 417.529,211.83 L420.799,222.621 Z M443.035,171.5 L443.035,202.456 C443.035,206.888689 443.561828,210.08599 444.6155,212.048 C445.669172,214.01001 447.721985,214.991 450.774,214.991 C453.46268,214.991 455.697158,214.191675 457.4775,212.593 C459.257842,210.994325 460.583996,209.032345 461.456,206.707 L461.456,171.5 L475.626,171.5 L475.626,209.432 C475.626,212.411348 475.771332,215.336152 476.062,218.2065 C476.352668,221.076848 476.788664,223.674655 477.37,226 L466.688,226 L464.181,217.934 L463.745,217.934 C462.073658,220.695347 459.748348,222.984324 456.769,224.801 C453.789652,226.617676 450.265354,227.526 446.196,227.526 C443.434653,227.526 440.964011,227.16267 438.784,226.436 C436.603989,225.70933 434.787341,224.510342 433.334,222.839 C431.880659,221.167658 430.772504,218.915014 430.0095,216.081 C429.246496,213.246986 428.865,209.686355 428.865,205.399 L428.865,171.5 L443.035,171.5 Z M526.638,222.621 C524.457989,224.219675 521.823849,225.436829 518.7355,226.2725 C515.647151,227.108171 512.468016,227.526 509.198,227.526 C504.837978,227.526 501.150182,226.835674 498.1345,225.455 C495.118818,224.074326 492.666343,222.130513 490.777,219.6235 C488.887657,217.116487 487.525171,214.082684 486.6895,210.522 C485.853829,206.961316 485.436,203.037355 485.436,198.75 C485.436,189.521287 487.506979,182.418192 491.649,177.4405 C495.791021,172.462808 501.822294,169.974 509.743,169.974 C513.739687,169.974 516.955154,170.300997 519.3895,170.955 C521.823846,171.609003 524.02199,172.444662 525.984,173.462 L522.605,185.016 C520.933658,184.216663 519.280508,183.599002 517.6455,183.163 C516.010492,182.726998 514.139344,182.509 512.032,182.509 C508.10798,182.509 505.128677,183.79882 503.094,186.3785 C501.059323,188.95818 500.042,193.081972 500.042,198.75 C500.042,201.075345 500.296331,203.21899 500.805,205.181 C501.313669,207.14301 502.076662,208.850659 503.094,210.304 C504.111338,211.757341 505.437492,212.901829 507.0725,213.7375 C508.707508,214.573171 510.614989,214.991 512.795,214.991 C515.193012,214.991 517.227658,214.68217 518.899,214.0645 C520.570342,213.44683 522.059993,212.702004 523.368,211.83 L526.638,222.621 Z M548.874,171.5 L548.874,202.456 C548.874,206.888689 549.400828,210.08599 550.4545,212.048 C551.508172,214.01001 553.560985,214.991 556.613,214.991 C559.30168,214.991 561.536158,214.191675 563.3165,212.593 C565.096842,210.994325 566.422996,209.032345 567.295,206.707 L567.295,171.5 L581.465,171.5 L581.465,209.432 C581.465,212.411348 581.610332,215.336152 581.901,218.2065 C582.191668,221.076848 582.627664,223.674655 583.209,226 L572.527,226 L570.02,217.934 L569.584,217.934 C567.912658,220.695347 565.587348,222.984324 562.608,224.801 C559.628652,226.617676 556.104354,227.526 552.035,227.526 C549.273653,227.526 546.803011,227.16267 544.623,226.436 C542.442989,225.70933 540.626341,224.510342 539.173,222.839 C537.719659,221.167658 536.611504,218.915014 535.8485,216.081 C535.085496,213.246986 534.704,209.686355 534.704,205.399 L534.704,171.5 L548.874,171.5 Z M624.847,226 L624.847,196.352 C624.847,191.337975 624.374671,187.777344 623.43,185.67 C622.485329,183.562656 620.523348,182.509 617.544,182.509 C615.073321,182.509 613.075008,183.18116 611.549,184.5255 C610.022992,185.86984 608.860337,187.595656 608.061,189.703 L608.061,226 L593.891,226 L593.891,171.5 L604.9,171.5 L606.535,178.694 L606.971,178.694 C608.642342,176.368655 610.76782,174.334009 613.3475,172.59 C615.92718,170.845991 619.251646,169.974 623.321,169.974 C626.809017,169.974 629.661156,170.682493 631.8775,172.0995 C634.093844,173.516507 635.81966,175.896317 637.055,179.239 C638.726342,176.404986 640.869987,174.152342 643.486,172.481 C646.102013,170.809658 649.262981,169.974 652.969,169.974 C656.021015,169.974 658.618823,170.33733 660.7625,171.064 C662.906177,171.79067 664.65016,173.044158 665.9945,174.8245 C667.33884,176.604842 668.337997,178.984652 668.992,181.964 C669.646003,184.943348 669.973,188.721977 669.973,193.3 L669.973,226 L655.803,226 L655.803,195.371 C655.803,191.083645 655.348838,187.868177 654.4405,185.7245 C653.532162,183.580823 651.515682,182.509 648.391,182.509 C645.847654,182.509 643.831174,183.199326 642.3415,184.58 C640.851826,185.960674 639.74367,187.849988 639.017,190.248 L639.017,226 L624.847,226 Z M681.636,149.7 L695.806,149.7 L695.806,175.86 L696.242,175.86 C697.768008,174.115991 699.729988,172.735338 702.128,171.718 C704.526012,170.700662 707.178319,170.192 710.085,170.192 C716.625033,170.192 721.620816,172.426478 725.0725,176.8955 C728.524184,181.364522 730.25,188.176954 730.25,197.333 C730.25,207.143049 727.833857,214.591308 723.0015,219.678 C718.169143,224.764692 711.538375,227.308 703.109,227.308 C698.45831,227.308 694.207353,226.926504 690.356,226.1635 C686.504647,225.400496 683.59801,224.546671 681.636,223.602 L681.636,149.7 Z M705.943,182.182 C703.326987,182.182 701.201508,182.85416 699.5665,184.1985 C697.931492,185.54284 696.678004,187.486654 695.806,190.03 L695.806,213.792 C696.968672,214.373336 698.22216,214.772999 699.5665,214.991 C700.91084,215.209001 702.345992,215.318 703.872,215.318 C707.723353,215.318 710.648157,213.919181 712.6465,211.1215 C714.644843,208.323819 715.644,203.873031 715.644,197.769 C715.644,187.377615 712.410366,182.182 705.943,182.182 Z M783.66,221.313 C781.479989,223.057009 778.518852,224.528494 774.7765,225.7275 C771.034148,226.926506 767.055688,227.526 762.841,227.526 C754.048289,227.526 747.617354,224.964526 743.548,219.8415 C739.478646,214.718474 737.444,207.688045 737.444,198.75 C737.444,189.157952 739.732977,181.964024 744.311,177.168 C748.889023,172.371976 755.319959,169.974 763.604,169.974 C766.365347,169.974 769.053987,170.33733 771.67,171.064 C774.286013,171.79067 776.611323,172.989658 778.646,174.661 C780.680677,176.332342 782.31566,178.584986 783.551,181.419 C784.78634,184.253014 785.404,187.777312 785.404,191.992 C785.404,193.518008 785.313168,195.152991 785.1315,196.897 C784.949832,198.641009 784.677335,200.457657 784.314,202.347 L751.614,202.347 C751.832001,206.925023 753.012823,210.376655 755.1565,212.702 C757.300177,215.027345 760.769976,216.19 765.566,216.19 C768.545348,216.19 771.215822,215.735838 773.5775,214.8275 C775.939178,213.919162 777.73766,212.992671 778.973,212.048 L783.66,221.313 Z M763.386,181.31 C759.679981,181.31 756.936842,182.418156 755.1565,184.6345 C753.376158,186.850844 752.304335,189.811981 751.941,193.518 L772.215,193.518 C772.505668,189.59398 771.906174,186.578344 770.4165,184.471 C768.926826,182.363656 766.583349,181.31 763.386,181.31 Z M825.516,184.798 C823.263322,183.998663 821.228676,183.599 819.412,183.599 C816.868654,183.599 814.743175,184.27116 813.0355,185.6155 C811.327825,186.95984 810.183336,188.685656 809.602,190.793 L809.602,226 L795.432,226 L795.432,171.5 L806.441,171.5 L808.076,178.694 L808.512,178.694 C809.74734,176.00532 811.418656,173.934341 813.526,172.481 C815.633344,171.027659 818.103986,170.301 820.938,170.301 C822.827343,170.301 824.970988,170.700663 827.369,171.5 L825.516,184.798 Z" id="cucumber" fill="#00A818" fill-rule="nonzero"></path>
            <path d="M381.985,83.5 L391.96,83.5 L393.535,89.8 L393.955,89.8 C395.775009,87.1399867 397.927488,85.1800063 400.4125,83.92 C402.897512,82.6599937 405.924982,82.03 409.495,82.03 C416.075033,82.03 421.009984,84.1124792 424.3,88.2775 C427.590016,92.4425208 429.235,99.1449538 429.235,108.385 C429.235,112.865022 428.710005,116.907482 427.66,120.5125 C426.609995,124.117518 425.05251,127.179987 422.9875,129.7 C420.92249,132.220013 418.402515,134.144993 415.4275,135.475 C412.452485,136.805007 409.040019,137.47 405.19,137.47 C403.019989,137.47 401.235007,137.312502 399.835,136.9975 C398.434993,136.682498 397.035007,136.175003 395.635,135.475 L395.635,157 L381.985,157 L381.985,83.5 Z M405.4,93.58 C402.739987,93.58 400.657508,94.2449933 399.1525,95.575 C397.647492,96.9050066 396.475004,98.8999867 395.635,101.56 L395.635,123.4 C396.615005,124.170004 397.682494,124.782498 398.8375,125.2375 C399.992506,125.692502 401.514991,125.92 403.405,125.92 C407.32502,125.92 410.26499,124.537514 412.225,121.7725 C414.18501,119.007486 415.165,114.440032 415.165,108.07 C415.165,103.449977 414.395008,99.8800126 412.855,97.36 C411.314992,94.8399874 408.830017,93.58 405.4,93.58 Z M467.665,96.31 C465.494989,95.5399961 463.535009,95.155 461.785,95.155 C459.334988,95.155 457.287508,95.8024935 455.6425,97.0975 C453.997492,98.3925065 452.895003,100.05499 452.335,102.085 L452.335,136 L438.685,136 L438.685,83.5 L449.29,83.5 L450.865,90.43 L451.285,90.43 C452.475006,87.839987 454.08499,85.845 456.115,84.445 C458.14501,83.044993 460.524986,82.345 463.255,82.345 C465.075009,82.345 467.139988,82.7299961 469.45,83.5 L467.665,96.31 Z M473.02,109.75 C473.02,100.859956 475.189978,94.017524 479.53,89.2225 C483.870022,84.427476 489.959961,82.03 497.8,82.03 C502.000021,82.03 505.639985,82.6949933 508.72,84.025 C511.800015,85.3550066 514.35499,87.2274879 516.385,89.6425 C518.41501,92.0575121 519.937495,94.9799828 520.9525,98.41 C521.967505,101.840017 522.475,105.619979 522.475,109.75 C522.475,118.640044 520.322522,125.482476 516.0175,130.2775 C511.712478,135.072524 505.640039,137.47 497.8,137.47 C493.599979,137.47 489.960015,136.805007 486.88,135.475 C483.799985,134.144993 481.22751,132.272512 479.1625,129.8575 C477.09749,127.442488 475.557505,124.520017 474.5425,121.09 C473.527495,117.659983 473.02,113.880021 473.02,109.75 Z M487.09,109.75 C487.09,112.060012 487.299998,114.19499 487.72,116.155 C488.140002,118.11501 488.769996,119.829993 489.61,121.3 C490.450004,122.770007 491.552493,123.907496 492.9175,124.7125 C494.282507,125.517504 495.909991,125.92 497.8,125.92 C501.370018,125.92 504.029991,124.625013 505.78,122.035 C507.530009,119.444987 508.405,115.350028 508.405,109.75 C508.405,104.919976 507.600008,101.017515 505.99,98.0425 C504.379992,95.0674851 501.650019,93.58 497.8,93.58 C494.439983,93.58 491.815009,94.8399874 489.925,97.36 C488.034991,99.8800126 487.09,104.009971 487.09,109.75 Z M526.465,83.5 L533.71,83.5 L533.71,73.63 L547.36,69.745 L547.36,83.5 L560.17,83.5 L560.17,95.05 L547.36,95.05 L547.36,115.21 C547.36,118.850018 547.727496,121.457492 548.4625,123.0325 C549.197504,124.607508 550.57999,125.395 552.61,125.395 C554.010007,125.395 555.217495,125.255001 556.2325,124.975 C557.247505,124.694999 558.384994,124.275003 559.645,123.715 L562.06,134.215 C560.169991,135.125005 557.965013,135.894997 555.445,136.525 C552.924987,137.155003 550.370013,137.47 547.78,137.47 C542.949976,137.47 539.397511,136.227512 537.1225,133.7425 C534.847489,131.257488 533.71,127.180028 533.71,121.51 L533.71,95.05 L526.465,95.05 L526.465,83.5 Z M597.55,96.31 C595.379989,95.5399961 593.420009,95.155 591.67,95.155 C589.219988,95.155 587.172508,95.8024935 585.5275,97.0975 C583.882492,98.3925065 582.780003,100.05499 582.22,102.085 L582.22,136 L568.57,136 L568.57,83.5 L579.175,83.5 L580.75,90.43 L581.17,90.43 C582.360006,87.839987 583.96999,85.845 586,84.445 C588.03001,83.044993 590.409986,82.345 593.14,82.345 C594.960009,82.345 597.024988,82.7299961 599.335,83.5 L597.55,96.31 Z M605.11,86.545 C607.910014,85.2849937 611.234981,84.2875037 615.085,83.5525 C618.935019,82.8174963 622.959979,82.45 627.16,82.45 C630.800018,82.45 633.844988,82.8874956 636.295,83.7625 C638.745012,84.6375044 640.687493,85.8799919 642.1225,87.49 C643.557507,89.100008 644.572497,91.0249888 645.1675,93.265 C645.762503,95.5050112 646.06,98.024986 646.06,100.825 C646.06,103.905015 645.955001,107.002484 645.745,110.1175 C645.534999,113.232516 645.4125,116.294985 645.3775,119.305 C645.3425,122.315015 645.429999,125.237486 645.64,128.0725 C645.850001,130.907514 646.374996,133.584987 647.215,136.105 L636.085,136.105 L633.88,128.86 L633.355,128.86 C631.954993,131.030011 630.012512,132.902492 627.5275,134.4775 C625.042488,136.052508 621.84002,136.84 617.92,136.84 C615.469988,136.84 613.26501,136.472504 611.305,135.7375 C609.34499,135.002496 607.665007,133.952507 606.265,132.5875 C604.864993,131.222493 603.780004,129.612509 603.01,127.7575 C602.239996,125.902491 601.855,123.820012 601.855,121.51 C601.855,118.289984 602.572493,115.577511 604.0075,113.3725 C605.442507,111.167489 607.507487,109.382507 610.2025,108.0175 C612.897513,106.652493 616.117481,105.707503 619.8625,105.1825 C623.607519,104.657497 627.789977,104.499999 632.41,104.71 C632.900002,100.78998 632.620005,97.9725086 631.57,96.2575 C630.519995,94.5424914 628.175018,93.685 624.535,93.685 C621.804986,93.685 618.917515,93.9649972 615.8725,94.525 C612.827485,95.0850028 610.32501,95.8199954 608.365,96.73 L605.11,86.545 Z M622.435,125.605 C625.165014,125.605 627.334992,124.992506 628.945,123.7675 C630.555008,122.542494 631.744996,121.230007 632.515,119.83 L632.515,113.005 C630.344989,112.794999 628.26251,112.759999 626.2675,112.9 C624.27249,113.040001 622.505008,113.354998 620.965,113.845 C619.425,114.335002 618.200005,115.034995 617.29,115.945 C616.379995,116.855005 615.925,118.009993 615.925,119.41 C615.925,121.37001 616.502494,122.892495 617.6575,123.9775 C618.812506,125.062505 620.40499,125.605 622.435,125.605 Z M694.675,132.745 C692.574989,134.285008 690.037515,135.457496 687.0625,136.2625 C684.087485,137.067504 681.025016,137.47 677.875,137.47 C673.674979,137.47 670.122515,136.805007 667.2175,135.475 C664.312485,134.144993 661.950009,132.272512 660.13,129.8575 C658.309991,127.442488 656.997504,124.520017 656.1925,121.09 C655.387496,117.659983 654.985,113.880021 654.985,109.75 C654.985,100.859956 656.97998,94.017524 660.97,89.2225 C664.96002,84.427476 670.769962,82.03 678.4,82.03 C682.250019,82.03 685.347488,82.3449968 687.6925,82.975 C690.037512,83.6050031 692.154991,84.4099951 694.045,85.39 L690.79,96.52 C689.179992,95.7499961 687.587508,95.1550021 686.0125,94.735 C684.437492,94.3149979 682.63501,94.105 680.605,94.105 C676.824981,94.105 673.95501,95.3474876 671.995,97.8325 C670.03499,100.317512 669.055,104.289973 669.055,109.75 C669.055,111.990011 669.299998,114.054991 669.79,115.945 C670.280002,117.835009 671.014995,119.479993 671.995,120.88 C672.975005,122.280007 674.252492,123.382496 675.8275,124.1875 C677.402508,124.992504 679.239989,125.395 681.34,125.395 C683.650012,125.395 685.609992,125.097503 687.22,124.5025 C688.830008,123.907497 690.264994,123.190004 691.525,122.35 L694.675,132.745 Z M697.51,83.5 L704.755,83.5 L704.755,73.63 L718.405,69.745 L718.405,83.5 L731.215,83.5 L731.215,95.05 L718.405,95.05 L718.405,115.21 C718.405,118.850018 718.772496,121.457492 719.5075,123.0325 C720.242504,124.607508 721.62499,125.395 723.655,125.395 C725.055007,125.395 726.262495,125.255001 727.2775,124.975 C728.292505,124.694999 729.429994,124.275003 730.69,123.715 L733.105,134.215 C731.214991,135.125005 729.010013,135.894997 726.49,136.525 C723.969987,137.155003 721.415013,137.47 718.825,137.47 C713.994976,137.47 710.442511,136.227512 708.1675,133.7425 C705.892489,131.257488 704.755,127.180028 704.755,121.51 L704.755,95.05 L697.51,95.05 L697.51,83.5 Z M736.57,109.75 C736.57,100.859956 738.739978,94.017524 743.08,89.2225 C747.420022,84.427476 753.509961,82.03 761.35,82.03 C765.550021,82.03 769.189985,82.6949933 772.27,84.025 C775.350015,85.3550066 777.90499,87.2274879 779.935,89.6425 C781.96501,92.0575121 783.487495,94.9799828 784.5025,98.41 C785.517505,101.840017 786.025,105.619979 786.025,109.75 C786.025,118.640044 783.872522,125.482476 779.5675,130.2775 C775.262478,135.072524 769.190039,137.47 761.35,137.47 C757.149979,137.47 753.510015,136.805007 750.43,135.475 C747.349985,134.144993 744.77751,132.272512 742.7125,129.8575 C740.64749,127.442488 739.107505,124.520017 738.0925,121.09 C737.077495,117.659983 736.57,113.880021 736.57,109.75 Z M750.64,109.75 C750.64,112.060012 750.849998,114.19499 751.27,116.155 C751.690002,118.11501 752.319996,119.829993 753.16,121.3 C754.000004,122.770007 755.102493,123.907496 756.4675,124.7125 C757.832507,125.517504 759.459991,125.92 761.35,125.92 C764.920018,125.92 767.579991,124.625013 769.33,122.035 C771.080009,119.444987 771.955,115.350028 771.955,109.75 C771.955,104.919976 771.150008,101.017515 769.54,98.0425 C767.929992,95.0674851 765.200019,93.58 761.35,93.58 C757.989983,93.58 755.365009,94.8399874 753.475,97.36 C751.584991,99.8800126 750.64,104.009971 750.64,109.75 Z M824.455,96.31 C822.284989,95.5399961 820.325009,95.155 818.575,95.155 C816.124988,95.155 814.077508,95.8024935 812.4325,97.0975 C810.787492,98.3925065 809.685003,100.05499 809.125,102.085 L809.125,136 L795.475,136 L795.475,83.5 L806.08,83.5 L807.655,90.43 L808.075,90.43 C809.265006,87.839987 810.87499,85.845 812.905,84.445 C814.93501,83.044993 817.314986,82.345 820.045,82.345 C821.865009,82.345 823.929988,82.7299961 826.24,83.5 L824.455,96.31 Z" id="protractor" fill="#FF0039" fill-rule="nonzero"></path>
        </g>
    </g>
</svg>